<?xml version="1.0" encoding="UTF-8" standalone="no"?>
<!DOCTYPE svg PUBLIC "-//W3C//DTD SVG 1.1//EN"
 "http://www.w3.org/Graphics/SVG/1.1/DTD/svg11.dtd">
<!-- Generated by graphviz version 8.0.1 (20230327.1645)
 -->
<!-- Title: G Pages: 1 -->
<svg width="138pt" height="188pt"
 viewBox="0.00 0.00 137.60 188.00" xmlns="http://www.w3.org/2000/svg" xmlns:xlink="http://www.w3.org/1999/xlink">
<g id="graph0" class="graph" transform="scale(1 1) rotate(0) translate(4 184)">
<title>G</title>
<polygon fill="white" stroke="none" points="-4,4 -4,-184 133.6,-184 133.6,4 -4,4"/>
<!-- 0 -->
<g id="node1" class="node">
<title>0</title>
<ellipse fill="none" stroke="black" cx="65.6" cy="-162" rx="27" ry="18"/>
<text text-anchor="middle" x="65.6" y="-158.3" font-family="Times,serif" font-size="14.00">+</text>
</g>
<!-- 1 -->
<g id="node2" class="node">
<title>1</title>
<ellipse fill="none" stroke="black" cx="28.6" cy="-90" rx="28.7" ry="18"/>
<text text-anchor="middle" x="28.6" y="-86.3" font-family="Times,serif" font-size="14.00">log 2</text>
</g>
<!-- 0&#45;&gt;1 -->
<g id="edge2" class="edge">
<title>0&#45;&gt;1</title>
<path fill="none" stroke="black" d="M57.02,-144.76C52.69,-136.58 47.33,-126.45 42.44,-117.2"/>
<polygon fill="black" stroke="black" points="45.16,-115.84 37.39,-108.63 38.97,-119.11 45.16,-115.84"/>
</g>
<!-- 4 -->
<g id="node4" class="node">
<title>4</title>
<ellipse fill="none" stroke="black" cx="102.6" cy="-90" rx="27" ry="18"/>
<text text-anchor="middle" x="102.6" y="-86.3" font-family="Times,serif" font-size="14.00">ln</text>
</g>
<!-- 0&#45;&gt;4 -->
<g id="edge4" class="edge">
<title>0&#45;&gt;4</title>
<path fill="none" stroke="black" d="M74.18,-144.76C78.57,-136.46 84.02,-126.15 88.96,-116.79"/>
<polygon fill="black" stroke="black" points="92.48,-118.62 94.06,-108.15 86.29,-115.35 92.48,-118.62"/>
</g>
<!-- 2 -->
<g id="node3" class="node">
<title>2</title>
<ellipse fill="none" stroke="black" cx="28.6" cy="-18" rx="27" ry="18"/>
<text text-anchor="middle" x="28.6" y="-14.3" font-family="Times,serif" font-size="14.00">x</text>
</g>
<!-- 1&#45;&gt;2 -->
<g id="edge1" class="edge">
<title>1&#45;&gt;2</title>
<path fill="none" stroke="black" d="M28.6,-71.7C28.6,-64.24 28.6,-55.32 28.6,-46.97"/>
<polygon fill="black" stroke="black" points="32.1,-47.1 28.6,-37.1 25.1,-47.1 32.1,-47.1"/>
</g>
<!-- 5 -->
<g id="node5" class="node">
<title>5</title>
<ellipse fill="none" stroke="black" cx="102.6" cy="-18" rx="27" ry="18"/>
<text text-anchor="middle" x="102.6" y="-14.3" font-family="Times,serif" font-size="14.00">x</text>
</g>
<!-- 4&#45;&gt;5 -->
<g id="edge3" class="edge">
<title>4&#45;&gt;5</title>
<path fill="none" stroke="black" d="M102.6,-71.7C102.6,-64.24 102.6,-55.32 102.6,-46.97"/>
<polygon fill="black" stroke="black" points="106.1,-47.1 102.6,-37.1 99.1,-47.1 106.1,-47.1"/>
</g>
</g>
</svg>
