<?xml version="1.0" encoding="UTF-8" standalone="no"?>
<!DOCTYPE svg PUBLIC "-//W3C//DTD SVG 1.1//EN"
 "http://www.w3.org/Graphics/SVG/1.1/DTD/svg11.dtd">
<!-- Generated by graphviz version 8.0.1 (20230327.1645)
 -->
<!-- Title: G Pages: 1 -->
<svg width="1142pt" height="692pt"
 viewBox="0.00 0.00 1142.00 692.00" xmlns="http://www.w3.org/2000/svg" xmlns:xlink="http://www.w3.org/1999/xlink">
<g id="graph0" class="graph" transform="scale(1 1) rotate(0) translate(4 688)">
<title>G</title>
<polygon fill="white" stroke="none" points="-4,4 -4,-688 1138,-688 1138,4 -4,4"/>
<!-- 0 -->
<g id="node1" class="node">
<title>0</title>
<ellipse fill="none" stroke="black" cx="405" cy="-666" rx="27" ry="18"/>
<text text-anchor="middle" x="405" y="-662.3" font-family="Times,serif" font-size="14.00">*</text>
</g>
<!-- 1 -->
<g id="node2" class="node">
<title>1</title>
<ellipse fill="none" stroke="black" cx="207" cy="-594" rx="27" ry="18"/>
<text text-anchor="middle" x="207" y="-590.3" font-family="Times,serif" font-size="14.00">^</text>
</g>
<!-- 0&#45;&gt;1 -->
<g id="edge15" class="edge">
<title>0&#45;&gt;1</title>
<path fill="none" stroke="black" d="M381.51,-656.7C346.6,-644.35 280.86,-621.11 240.79,-606.95"/>
<polygon fill="black" stroke="black" points="242.05,-603.33 231.46,-603.29 239.72,-609.93 242.05,-603.33"/>
</g>
<!-- 23 -->
<g id="node17" class="node">
<title>23</title>
<ellipse fill="none" stroke="black" cx="549" cy="-594" rx="27" ry="18"/>
<text text-anchor="middle" x="549" y="-590.3" font-family="Times,serif" font-size="14.00">+</text>
</g>
<!-- 0&#45;&gt;23 -->
<g id="edge58" class="edge">
<title>0&#45;&gt;23</title>
<path fill="none" stroke="black" d="M426.56,-654.52C450.88,-642.7 490.62,-623.38 518.2,-609.97"/>
<polygon fill="black" stroke="black" points="519.3,-612.84 526.76,-605.32 516.24,-606.55 519.3,-612.84"/>
</g>
<!-- 2 -->
<g id="node3" class="node">
<title>2</title>
<ellipse fill="none" stroke="black" cx="135" cy="-522" rx="27" ry="18"/>
<text text-anchor="middle" x="135" y="-518.3" font-family="Times,serif" font-size="14.00">e</text>
</g>
<!-- 1&#45;&gt;2 -->
<g id="edge1" class="edge">
<title>1&#45;&gt;2</title>
<path fill="none" stroke="black" d="M192.08,-578.5C182.14,-568.83 168.88,-555.94 157.65,-545.02"/>
<polygon fill="black" stroke="black" points="160.51,-542.95 150.9,-538.49 155.63,-547.97 160.51,-542.95"/>
</g>
<!-- 4 -->
<g id="node4" class="node">
<title>4</title>
<ellipse fill="none" stroke="black" cx="207" cy="-522" rx="27" ry="18"/>
<text text-anchor="middle" x="207" y="-518.3" font-family="Times,serif" font-size="14.00">*</text>
</g>
<!-- 1&#45;&gt;4 -->
<g id="edge14" class="edge">
<title>1&#45;&gt;4</title>
<path fill="none" stroke="black" d="M207,-575.7C207,-568.24 207,-559.32 207,-550.97"/>
<polygon fill="black" stroke="black" points="210.5,-551.1 207,-541.1 203.5,-551.1 210.5,-551.1"/>
</g>
<!-- 5 -->
<g id="node5" class="node">
<title>5</title>
<ellipse fill="none" stroke="black" cx="117" cy="-450" rx="27" ry="18"/>
<text text-anchor="middle" x="117" y="-446.3" font-family="Times,serif" font-size="14.00">ln</text>
</g>
<!-- 4&#45;&gt;5 -->
<g id="edge5" class="edge">
<title>4&#45;&gt;5</title>
<path fill="none" stroke="black" d="M190.07,-507.83C176.71,-497.44 157.84,-482.76 142.63,-470.93"/>
<polygon fill="black" stroke="black" points="145.2,-467.72 135.16,-464.35 140.9,-473.25 145.2,-467.72"/>
</g>
<!-- 11 -->
<g id="node9" class="node">
<title>11</title>
<ellipse fill="none" stroke="black" cx="207" cy="-450" rx="27" ry="18"/>
<text text-anchor="middle" x="207" y="-446.3" font-family="Times,serif" font-size="14.00">^</text>
</g>
<!-- 4&#45;&gt;11 -->
<g id="edge13" class="edge">
<title>4&#45;&gt;11</title>
<path fill="none" stroke="black" d="M207,-503.7C207,-496.24 207,-487.32 207,-478.97"/>
<polygon fill="black" stroke="black" points="210.5,-479.1 207,-469.1 203.5,-479.1 210.5,-479.1"/>
</g>
<!-- 6 -->
<g id="node6" class="node">
<title>6</title>
<ellipse fill="none" stroke="black" cx="99" cy="-378" rx="27" ry="18"/>
<text text-anchor="middle" x="99" y="-374.3" font-family="Times,serif" font-size="14.00">+</text>
</g>
<!-- 5&#45;&gt;6 -->
<g id="edge4" class="edge">
<title>5&#45;&gt;6</title>
<path fill="none" stroke="black" d="M112.64,-432.05C110.65,-424.32 108.25,-414.96 106.01,-406.27"/>
<polygon fill="black" stroke="black" points="109.2,-405.6 103.32,-396.79 102.42,-407.35 109.2,-405.6"/>
</g>
<!-- 7 -->
<g id="node7" class="node">
<title>7</title>
<ellipse fill="none" stroke="black" cx="27" cy="-306" rx="27" ry="18"/>
<text text-anchor="middle" x="27" y="-302.3" font-family="Times,serif" font-size="14.00">x</text>
</g>
<!-- 6&#45;&gt;7 -->
<g id="edge2" class="edge">
<title>6&#45;&gt;7</title>
<path fill="none" stroke="black" d="M84.08,-362.5C74.14,-352.83 60.88,-339.94 49.65,-329.02"/>
<polygon fill="black" stroke="black" points="52.51,-326.95 42.9,-322.49 47.63,-331.97 52.51,-326.95"/>
</g>
<!-- 9 -->
<g id="node8" class="node">
<title>9</title>
<ellipse fill="none" stroke="black" cx="99" cy="-306" rx="27" ry="18"/>
<text text-anchor="middle" x="99" y="-302.3" font-family="Times,serif" font-size="14.00">2</text>
</g>
<!-- 6&#45;&gt;9 -->
<g id="edge3" class="edge">
<title>6&#45;&gt;9</title>
<path fill="none" stroke="black" d="M99,-359.7C99,-352.24 99,-343.32 99,-334.97"/>
<polygon fill="black" stroke="black" points="102.5,-335.1 99,-325.1 95.5,-335.1 102.5,-335.1"/>
</g>
<!-- 12 -->
<g id="node10" class="node">
<title>12</title>
<ellipse fill="none" stroke="black" cx="171" cy="-378" rx="27" ry="18"/>
<text text-anchor="middle" x="171" y="-374.3" font-family="Times,serif" font-size="14.00">cos</text>
</g>
<!-- 11&#45;&gt;12 -->
<g id="edge7" class="edge">
<title>11&#45;&gt;12</title>
<path fill="none" stroke="black" d="M198.65,-432.76C194.38,-424.46 189.08,-414.15 184.27,-404.79"/>
<polygon fill="black" stroke="black" points="186.99,-403.44 179.3,-396.15 180.77,-406.64 186.99,-403.44"/>
</g>
<!-- 15 -->
<g id="node12" class="node">
<title>15</title>
<ellipse fill="none" stroke="black" cx="243" cy="-378" rx="27" ry="18"/>
<text text-anchor="middle" x="243" y="-374.3" font-family="Times,serif" font-size="14.00">*</text>
</g>
<!-- 11&#45;&gt;15 -->
<g id="edge12" class="edge">
<title>11&#45;&gt;15</title>
<path fill="none" stroke="black" d="M215.35,-432.76C219.62,-424.46 224.92,-414.15 229.73,-404.79"/>
<polygon fill="black" stroke="black" points="233.23,-406.64 234.7,-396.15 227.01,-403.44 233.23,-406.64"/>
</g>
<!-- 13 -->
<g id="node11" class="node">
<title>13</title>
<ellipse fill="none" stroke="black" cx="171" cy="-306" rx="27" ry="18"/>
<text text-anchor="middle" x="171" y="-302.3" font-family="Times,serif" font-size="14.00">x</text>
</g>
<!-- 12&#45;&gt;13 -->
<g id="edge6" class="edge">
<title>12&#45;&gt;13</title>
<path fill="none" stroke="black" d="M171,-359.7C171,-352.24 171,-343.32 171,-334.97"/>
<polygon fill="black" stroke="black" points="174.5,-335.1 171,-325.1 167.5,-335.1 174.5,-335.1"/>
</g>
<!-- 16 -->
<g id="node13" class="node">
<title>16</title>
<ellipse fill="none" stroke="black" cx="243" cy="-306" rx="27" ry="18"/>
<text text-anchor="middle" x="243" y="-302.3" font-family="Times,serif" font-size="14.00">2</text>
</g>
<!-- 15&#45;&gt;16 -->
<g id="edge8" class="edge">
<title>15&#45;&gt;16</title>
<path fill="none" stroke="black" d="M243,-359.7C243,-352.24 243,-343.32 243,-334.97"/>
<polygon fill="black" stroke="black" points="246.5,-335.1 243,-325.1 239.5,-335.1 246.5,-335.1"/>
</g>
<!-- 18 -->
<g id="node14" class="node">
<title>18</title>
<ellipse fill="none" stroke="black" cx="315" cy="-306" rx="27" ry="18"/>
<text text-anchor="middle" x="315" y="-302.3" font-family="Times,serif" font-size="14.00">^</text>
</g>
<!-- 15&#45;&gt;18 -->
<g id="edge11" class="edge">
<title>15&#45;&gt;18</title>
<path fill="none" stroke="black" d="M257.92,-362.5C267.86,-352.83 281.12,-339.94 292.35,-329.02"/>
<polygon fill="black" stroke="black" points="294.37,-331.97 299.1,-322.49 289.49,-326.95 294.37,-331.97"/>
</g>
<!-- 19 -->
<g id="node15" class="node">
<title>19</title>
<ellipse fill="none" stroke="black" cx="279" cy="-234" rx="27" ry="18"/>
<text text-anchor="middle" x="279" y="-230.3" font-family="Times,serif" font-size="14.00">5</text>
</g>
<!-- 18&#45;&gt;19 -->
<g id="edge9" class="edge">
<title>18&#45;&gt;19</title>
<path fill="none" stroke="black" d="M306.65,-288.76C302.38,-280.46 297.08,-270.15 292.27,-260.79"/>
<polygon fill="black" stroke="black" points="294.99,-259.44 287.3,-252.15 288.77,-262.64 294.99,-259.44"/>
</g>
<!-- 21 -->
<g id="node16" class="node">
<title>21</title>
<ellipse fill="none" stroke="black" cx="351" cy="-234" rx="27" ry="18"/>
<text text-anchor="middle" x="351" y="-230.3" font-family="Times,serif" font-size="14.00">&#45;1</text>
</g>
<!-- 18&#45;&gt;21 -->
<g id="edge10" class="edge">
<title>18&#45;&gt;21</title>
<path fill="none" stroke="black" d="M323.35,-288.76C327.62,-280.46 332.92,-270.15 337.73,-260.79"/>
<polygon fill="black" stroke="black" points="341.23,-262.64 342.7,-252.15 335.01,-259.44 341.23,-262.64"/>
</g>
<!-- 24 -->
<g id="node18" class="node">
<title>24</title>
<ellipse fill="none" stroke="black" cx="549" cy="-522" rx="27" ry="18"/>
<text text-anchor="middle" x="549" y="-518.3" font-family="Times,serif" font-size="14.00">*</text>
</g>
<!-- 23&#45;&gt;24 -->
<g id="edge43" class="edge">
<title>23&#45;&gt;24</title>
<path fill="none" stroke="black" d="M549,-575.7C549,-568.24 549,-559.32 549,-550.97"/>
<polygon fill="black" stroke="black" points="552.5,-551.1 549,-541.1 545.5,-551.1 552.5,-551.1"/>
</g>
<!-- 64 -->
<g id="node46" class="node">
<title>64</title>
<ellipse fill="none" stroke="black" cx="855" cy="-522" rx="27" ry="18"/>
<text text-anchor="middle" x="855" y="-518.3" font-family="Times,serif" font-size="14.00">*</text>
</g>
<!-- 23&#45;&gt;64 -->
<g id="edge57" class="edge">
<title>23&#45;&gt;64</title>
<path fill="none" stroke="black" d="M574.3,-587.21C628.6,-574.79 756.46,-545.54 819.12,-531.21"/>
<polygon fill="black" stroke="black" points="819.7,-534.44 828.67,-528.79 818.14,-527.61 819.7,-534.44"/>
</g>
<!-- 25 -->
<g id="node19" class="node">
<title>25</title>
<ellipse fill="none" stroke="black" cx="477" cy="-450" rx="27" ry="18"/>
<text text-anchor="middle" x="477" y="-446.3" font-family="Times,serif" font-size="14.00">ln</text>
</g>
<!-- 24&#45;&gt;25 -->
<g id="edge19" class="edge">
<title>24&#45;&gt;25</title>
<path fill="none" stroke="black" d="M534.08,-506.5C524.14,-496.83 510.88,-483.94 499.65,-473.02"/>
<polygon fill="black" stroke="black" points="502.51,-470.95 492.9,-466.49 497.63,-475.97 502.51,-470.95"/>
</g>
<!-- 31 -->
<g id="node23" class="node">
<title>31</title>
<ellipse fill="none" stroke="black" cx="585" cy="-450" rx="27" ry="18"/>
<text text-anchor="middle" x="585" y="-446.3" font-family="Times,serif" font-size="14.00">*</text>
</g>
<!-- 24&#45;&gt;31 -->
<g id="edge42" class="edge">
<title>24&#45;&gt;31</title>
<path fill="none" stroke="black" d="M557.35,-504.76C561.62,-496.46 566.92,-486.15 571.73,-476.79"/>
<polygon fill="black" stroke="black" points="575.23,-478.64 576.7,-468.15 569.01,-475.44 575.23,-478.64"/>
</g>
<!-- 26 -->
<g id="node20" class="node">
<title>26</title>
<ellipse fill="none" stroke="black" cx="459" cy="-378" rx="27" ry="18"/>
<text text-anchor="middle" x="459" y="-374.3" font-family="Times,serif" font-size="14.00">+</text>
</g>
<!-- 25&#45;&gt;26 -->
<g id="edge18" class="edge">
<title>25&#45;&gt;26</title>
<path fill="none" stroke="black" d="M472.64,-432.05C470.65,-424.32 468.25,-414.96 466.01,-406.27"/>
<polygon fill="black" stroke="black" points="469.2,-405.6 463.32,-396.79 462.42,-407.35 469.2,-405.6"/>
</g>
<!-- 27 -->
<g id="node21" class="node">
<title>27</title>
<ellipse fill="none" stroke="black" cx="387" cy="-306" rx="27" ry="18"/>
<text text-anchor="middle" x="387" y="-302.3" font-family="Times,serif" font-size="14.00">x</text>
</g>
<!-- 26&#45;&gt;27 -->
<g id="edge16" class="edge">
<title>26&#45;&gt;27</title>
<path fill="none" stroke="black" d="M444.08,-362.5C434.14,-352.83 420.88,-339.94 409.65,-329.02"/>
<polygon fill="black" stroke="black" points="412.51,-326.95 402.9,-322.49 407.63,-331.97 412.51,-326.95"/>
</g>
<!-- 29 -->
<g id="node22" class="node">
<title>29</title>
<ellipse fill="none" stroke="black" cx="459" cy="-306" rx="27" ry="18"/>
<text text-anchor="middle" x="459" y="-302.3" font-family="Times,serif" font-size="14.00">2</text>
</g>
<!-- 26&#45;&gt;29 -->
<g id="edge17" class="edge">
<title>26&#45;&gt;29</title>
<path fill="none" stroke="black" d="M459,-359.7C459,-352.24 459,-343.32 459,-334.97"/>
<polygon fill="black" stroke="black" points="462.5,-335.1 459,-325.1 455.5,-335.1 462.5,-335.1"/>
</g>
<!-- 32 -->
<g id="node24" class="node">
<title>32</title>
<ellipse fill="none" stroke="black" cx="585" cy="-378" rx="27" ry="18"/>
<text text-anchor="middle" x="585" y="-374.3" font-family="Times,serif" font-size="14.00">^</text>
</g>
<!-- 31&#45;&gt;32 -->
<g id="edge30" class="edge">
<title>31&#45;&gt;32</title>
<path fill="none" stroke="black" d="M585,-431.7C585,-424.24 585,-415.32 585,-406.97"/>
<polygon fill="black" stroke="black" points="588.5,-407.1 585,-397.1 581.5,-407.1 588.5,-407.1"/>
</g>
<!-- 48 -->
<g id="node35" class="node">
<title>48</title>
<ellipse fill="none" stroke="black" cx="675" cy="-378" rx="27" ry="18"/>
<text text-anchor="middle" x="675" y="-374.3" font-family="Times,serif" font-size="14.00">*</text>
</g>
<!-- 31&#45;&gt;48 -->
<g id="edge41" class="edge">
<title>31&#45;&gt;48</title>
<path fill="none" stroke="black" d="M601.93,-435.83C615.29,-425.44 634.16,-410.76 649.37,-398.93"/>
<polygon fill="black" stroke="black" points="651.1,-401.25 656.84,-392.35 646.8,-395.72 651.1,-401.25"/>
</g>
<!-- 33 -->
<g id="node25" class="node">
<title>33</title>
<ellipse fill="none" stroke="black" cx="531" cy="-306" rx="27" ry="18"/>
<text text-anchor="middle" x="531" y="-302.3" font-family="Times,serif" font-size="14.00">e</text>
</g>
<!-- 32&#45;&gt;33 -->
<g id="edge20" class="edge">
<title>32&#45;&gt;33</title>
<path fill="none" stroke="black" d="M573.02,-361.46C566.09,-352.49 557.24,-341.02 549.45,-330.92"/>
<polygon fill="black" stroke="black" points="551.83,-329.27 542.95,-323.49 546.29,-333.55 551.83,-329.27"/>
</g>
<!-- 35 -->
<g id="node26" class="node">
<title>35</title>
<ellipse fill="none" stroke="black" cx="603" cy="-306" rx="27" ry="18"/>
<text text-anchor="middle" x="603" y="-302.3" font-family="Times,serif" font-size="14.00">*</text>
</g>
<!-- 32&#45;&gt;35 -->
<g id="edge29" class="edge">
<title>32&#45;&gt;35</title>
<path fill="none" stroke="black" d="M589.36,-360.05C591.35,-352.32 593.75,-342.96 595.99,-334.27"/>
<polygon fill="black" stroke="black" points="599.58,-335.35 598.68,-324.79 592.8,-333.6 599.58,-335.35"/>
</g>
<!-- 36 -->
<g id="node27" class="node">
<title>36</title>
<ellipse fill="none" stroke="black" cx="549" cy="-234" rx="27" ry="18"/>
<text text-anchor="middle" x="549" y="-230.3" font-family="Times,serif" font-size="14.00">2</text>
</g>
<!-- 35&#45;&gt;36 -->
<g id="edge21" class="edge">
<title>35&#45;&gt;36</title>
<path fill="none" stroke="black" d="M591.02,-289.46C584.09,-280.49 575.24,-269.02 567.45,-258.92"/>
<polygon fill="black" stroke="black" points="569.83,-257.27 560.95,-251.49 564.29,-261.55 569.83,-257.27"/>
</g>
<!-- 38 -->
<g id="node28" class="node">
<title>38</title>
<ellipse fill="none" stroke="black" cx="621" cy="-234" rx="27" ry="18"/>
<text text-anchor="middle" x="621" y="-230.3" font-family="Times,serif" font-size="14.00">*</text>
</g>
<!-- 35&#45;&gt;38 -->
<g id="edge28" class="edge">
<title>35&#45;&gt;38</title>
<path fill="none" stroke="black" d="M607.36,-288.05C609.35,-280.32 611.75,-270.96 613.99,-262.27"/>
<polygon fill="black" stroke="black" points="617.58,-263.35 616.68,-252.79 610.8,-261.6 617.58,-263.35"/>
</g>
<!-- 39 -->
<g id="node29" class="node">
<title>39</title>
<ellipse fill="none" stroke="black" cx="585" cy="-162" rx="27" ry="18"/>
<text text-anchor="middle" x="585" y="-158.3" font-family="Times,serif" font-size="14.00">ln</text>
</g>
<!-- 38&#45;&gt;39 -->
<g id="edge24" class="edge">
<title>38&#45;&gt;39</title>
<path fill="none" stroke="black" d="M612.65,-216.76C608.38,-208.46 603.08,-198.15 598.27,-188.79"/>
<polygon fill="black" stroke="black" points="600.99,-187.44 593.3,-180.15 594.77,-190.64 600.99,-187.44"/>
</g>
<!-- 43 -->
<g id="node32" class="node">
<title>43</title>
<ellipse fill="none" stroke="black" cx="657" cy="-162" rx="27" ry="18"/>
<text text-anchor="middle" x="657" y="-158.3" font-family="Times,serif" font-size="14.00">^</text>
</g>
<!-- 38&#45;&gt;43 -->
<g id="edge27" class="edge">
<title>38&#45;&gt;43</title>
<path fill="none" stroke="black" d="M629.35,-216.76C633.62,-208.46 638.92,-198.15 643.73,-188.79"/>
<polygon fill="black" stroke="black" points="647.23,-190.64 648.7,-180.15 641.01,-187.44 647.23,-190.64"/>
</g>
<!-- 40 -->
<g id="node30" class="node">
<title>40</title>
<ellipse fill="none" stroke="black" cx="585" cy="-90" rx="27" ry="18"/>
<text text-anchor="middle" x="585" y="-86.3" font-family="Times,serif" font-size="14.00">cos</text>
</g>
<!-- 39&#45;&gt;40 -->
<g id="edge23" class="edge">
<title>39&#45;&gt;40</title>
<path fill="none" stroke="black" d="M585,-143.7C585,-136.24 585,-127.32 585,-118.97"/>
<polygon fill="black" stroke="black" points="588.5,-119.1 585,-109.1 581.5,-119.1 588.5,-119.1"/>
</g>
<!-- 41 -->
<g id="node31" class="node">
<title>41</title>
<ellipse fill="none" stroke="black" cx="585" cy="-18" rx="27" ry="18"/>
<text text-anchor="middle" x="585" y="-14.3" font-family="Times,serif" font-size="14.00">x</text>
</g>
<!-- 40&#45;&gt;41 -->
<g id="edge22" class="edge">
<title>40&#45;&gt;41</title>
<path fill="none" stroke="black" d="M585,-71.7C585,-64.24 585,-55.32 585,-46.97"/>
<polygon fill="black" stroke="black" points="588.5,-47.1 585,-37.1 581.5,-47.1 588.5,-47.1"/>
</g>
<!-- 44 -->
<g id="node33" class="node">
<title>44</title>
<ellipse fill="none" stroke="black" cx="657" cy="-90" rx="27" ry="18"/>
<text text-anchor="middle" x="657" y="-86.3" font-family="Times,serif" font-size="14.00">5</text>
</g>
<!-- 43&#45;&gt;44 -->
<g id="edge25" class="edge">
<title>43&#45;&gt;44</title>
<path fill="none" stroke="black" d="M657,-143.7C657,-136.24 657,-127.32 657,-118.97"/>
<polygon fill="black" stroke="black" points="660.5,-119.1 657,-109.1 653.5,-119.1 660.5,-119.1"/>
</g>
<!-- 46 -->
<g id="node34" class="node">
<title>46</title>
<ellipse fill="none" stroke="black" cx="729" cy="-90" rx="27" ry="18"/>
<text text-anchor="middle" x="729" y="-86.3" font-family="Times,serif" font-size="14.00">&#45;1</text>
</g>
<!-- 43&#45;&gt;46 -->
<g id="edge26" class="edge">
<title>43&#45;&gt;46</title>
<path fill="none" stroke="black" d="M671.92,-146.5C681.86,-136.83 695.12,-123.94 706.35,-113.02"/>
<polygon fill="black" stroke="black" points="708.37,-115.97 713.1,-106.49 703.49,-110.95 708.37,-115.97"/>
</g>
<!-- 49 -->
<g id="node36" class="node">
<title>49</title>
<ellipse fill="none" stroke="black" cx="675" cy="-306" rx="27" ry="18"/>
<text text-anchor="middle" x="675" y="-302.3" font-family="Times,serif" font-size="14.00">&#45;2</text>
</g>
<!-- 48&#45;&gt;49 -->
<g id="edge31" class="edge">
<title>48&#45;&gt;49</title>
<path fill="none" stroke="black" d="M675,-359.7C675,-352.24 675,-343.32 675,-334.97"/>
<polygon fill="black" stroke="black" points="678.5,-335.1 675,-325.1 671.5,-335.1 678.5,-335.1"/>
</g>
<!-- 51 -->
<g id="node37" class="node">
<title>51</title>
<ellipse fill="none" stroke="black" cx="747" cy="-306" rx="27" ry="18"/>
<text text-anchor="middle" x="747" y="-302.3" font-family="Times,serif" font-size="14.00">*</text>
</g>
<!-- 48&#45;&gt;51 -->
<g id="edge40" class="edge">
<title>48&#45;&gt;51</title>
<path fill="none" stroke="black" d="M689.92,-362.5C699.86,-352.83 713.12,-339.94 724.35,-329.02"/>
<polygon fill="black" stroke="black" points="726.37,-331.97 731.1,-322.49 721.49,-326.95 726.37,-331.97"/>
</g>
<!-- 52 -->
<g id="node38" class="node">
<title>52</title>
<ellipse fill="none" stroke="black" cx="729" cy="-234" rx="27" ry="18"/>
<text text-anchor="middle" x="729" y="-230.3" font-family="Times,serif" font-size="14.00">sin</text>
</g>
<!-- 51&#45;&gt;52 -->
<g id="edge33" class="edge">
<title>51&#45;&gt;52</title>
<path fill="none" stroke="black" d="M742.64,-288.05C740.65,-280.32 738.25,-270.96 736.01,-262.27"/>
<polygon fill="black" stroke="black" points="739.2,-261.6 733.32,-252.79 732.42,-263.35 739.2,-261.6"/>
</g>
<!-- 55 -->
<g id="node40" class="node">
<title>55</title>
<ellipse fill="none" stroke="black" cx="801" cy="-234" rx="27" ry="18"/>
<text text-anchor="middle" x="801" y="-230.3" font-family="Times,serif" font-size="14.00">^</text>
</g>
<!-- 51&#45;&gt;55 -->
<g id="edge39" class="edge">
<title>51&#45;&gt;55</title>
<path fill="none" stroke="black" d="M758.98,-289.46C765.91,-280.49 774.76,-269.02 782.55,-258.92"/>
<polygon fill="black" stroke="black" points="785.71,-261.55 789.05,-251.49 780.17,-257.27 785.71,-261.55"/>
</g>
<!-- 53 -->
<g id="node39" class="node">
<title>53</title>
<ellipse fill="none" stroke="black" cx="729" cy="-162" rx="27" ry="18"/>
<text text-anchor="middle" x="729" y="-158.3" font-family="Times,serif" font-size="14.00">x</text>
</g>
<!-- 52&#45;&gt;53 -->
<g id="edge32" class="edge">
<title>52&#45;&gt;53</title>
<path fill="none" stroke="black" d="M729,-215.7C729,-208.24 729,-199.32 729,-190.97"/>
<polygon fill="black" stroke="black" points="732.5,-191.1 729,-181.1 725.5,-191.1 732.5,-191.1"/>
</g>
<!-- 56 -->
<g id="node41" class="node">
<title>56</title>
<ellipse fill="none" stroke="black" cx="801" cy="-162" rx="27" ry="18"/>
<text text-anchor="middle" x="801" y="-158.3" font-family="Times,serif" font-size="14.00">*</text>
</g>
<!-- 55&#45;&gt;56 -->
<g id="edge37" class="edge">
<title>55&#45;&gt;56</title>
<path fill="none" stroke="black" d="M801,-215.7C801,-208.24 801,-199.32 801,-190.97"/>
<polygon fill="black" stroke="black" points="804.5,-191.1 801,-181.1 797.5,-191.1 804.5,-191.1"/>
</g>
<!-- 62 -->
<g id="node45" class="node">
<title>62</title>
<ellipse fill="none" stroke="black" cx="873" cy="-162" rx="27" ry="18"/>
<text text-anchor="middle" x="873" y="-158.3" font-family="Times,serif" font-size="14.00">&#45;1</text>
</g>
<!-- 55&#45;&gt;62 -->
<g id="edge38" class="edge">
<title>55&#45;&gt;62</title>
<path fill="none" stroke="black" d="M815.92,-218.5C825.86,-208.83 839.12,-195.94 850.35,-185.02"/>
<polygon fill="black" stroke="black" points="852.37,-187.97 857.1,-178.49 847.49,-182.95 852.37,-187.97"/>
</g>
<!-- 57 -->
<g id="node42" class="node">
<title>57</title>
<ellipse fill="none" stroke="black" cx="801" cy="-90" rx="27" ry="18"/>
<text text-anchor="middle" x="801" y="-86.3" font-family="Times,serif" font-size="14.00">cos</text>
</g>
<!-- 56&#45;&gt;57 -->
<g id="edge35" class="edge">
<title>56&#45;&gt;57</title>
<path fill="none" stroke="black" d="M801,-143.7C801,-136.24 801,-127.32 801,-118.97"/>
<polygon fill="black" stroke="black" points="804.5,-119.1 801,-109.1 797.5,-119.1 804.5,-119.1"/>
</g>
<!-- 60 -->
<g id="node44" class="node">
<title>60</title>
<ellipse fill="none" stroke="black" cx="873" cy="-90" rx="27" ry="18"/>
<text text-anchor="middle" x="873" y="-86.3" font-family="Times,serif" font-size="14.00">5</text>
</g>
<!-- 56&#45;&gt;60 -->
<g id="edge36" class="edge">
<title>56&#45;&gt;60</title>
<path fill="none" stroke="black" d="M815.92,-146.5C825.86,-136.83 839.12,-123.94 850.35,-113.02"/>
<polygon fill="black" stroke="black" points="852.37,-115.97 857.1,-106.49 847.49,-110.95 852.37,-115.97"/>
</g>
<!-- 58 -->
<g id="node43" class="node">
<title>58</title>
<ellipse fill="none" stroke="black" cx="801" cy="-18" rx="27" ry="18"/>
<text text-anchor="middle" x="801" y="-14.3" font-family="Times,serif" font-size="14.00">x</text>
</g>
<!-- 57&#45;&gt;58 -->
<g id="edge34" class="edge">
<title>57&#45;&gt;58</title>
<path fill="none" stroke="black" d="M801,-71.7C801,-64.24 801,-55.32 801,-46.97"/>
<polygon fill="black" stroke="black" points="804.5,-47.1 801,-37.1 797.5,-47.1 804.5,-47.1"/>
</g>
<!-- 65 -->
<g id="node47" class="node">
<title>65</title>
<ellipse fill="none" stroke="black" cx="855" cy="-450" rx="27" ry="18"/>
<text text-anchor="middle" x="855" y="-446.3" font-family="Times,serif" font-size="14.00">^</text>
</g>
<!-- 64&#45;&gt;65 -->
<g id="edge51" class="edge">
<title>64&#45;&gt;65</title>
<path fill="none" stroke="black" d="M855,-503.7C855,-496.24 855,-487.32 855,-478.97"/>
<polygon fill="black" stroke="black" points="858.5,-479.1 855,-469.1 851.5,-479.1 858.5,-479.1"/>
</g>
<!-- 77 -->
<g id="node55" class="node">
<title>77</title>
<ellipse fill="none" stroke="black" cx="1035" cy="-450" rx="27" ry="18"/>
<text text-anchor="middle" x="1035" y="-446.3" font-family="Times,serif" font-size="14.00">^</text>
</g>
<!-- 64&#45;&gt;77 -->
<g id="edge56" class="edge">
<title>64&#45;&gt;77</title>
<path fill="none" stroke="black" d="M877.8,-512.13C909.22,-499.91 966.05,-477.81 1002.09,-463.8"/>
<polygon fill="black" stroke="black" points="1003.05,-466.79 1011.1,-459.9 1000.52,-460.27 1003.05,-466.79"/>
</g>
<!-- 66 -->
<g id="node48" class="node">
<title>66</title>
<ellipse fill="none" stroke="black" cx="819" cy="-378" rx="27" ry="18"/>
<text text-anchor="middle" x="819" y="-374.3" font-family="Times,serif" font-size="14.00">cos</text>
</g>
<!-- 65&#45;&gt;66 -->
<g id="edge45" class="edge">
<title>65&#45;&gt;66</title>
<path fill="none" stroke="black" d="M846.65,-432.76C842.38,-424.46 837.08,-414.15 832.27,-404.79"/>
<polygon fill="black" stroke="black" points="834.99,-403.44 827.3,-396.15 828.77,-406.64 834.99,-403.44"/>
</g>
<!-- 69 -->
<g id="node50" class="node">
<title>69</title>
<ellipse fill="none" stroke="black" cx="891" cy="-378" rx="27" ry="18"/>
<text text-anchor="middle" x="891" y="-374.3" font-family="Times,serif" font-size="14.00">*</text>
</g>
<!-- 65&#45;&gt;69 -->
<g id="edge50" class="edge">
<title>65&#45;&gt;69</title>
<path fill="none" stroke="black" d="M863.35,-432.76C867.62,-424.46 872.92,-414.15 877.73,-404.79"/>
<polygon fill="black" stroke="black" points="881.23,-406.64 882.7,-396.15 875.01,-403.44 881.23,-406.64"/>
</g>
<!-- 67 -->
<g id="node49" class="node">
<title>67</title>
<ellipse fill="none" stroke="black" cx="819" cy="-306" rx="27" ry="18"/>
<text text-anchor="middle" x="819" y="-302.3" font-family="Times,serif" font-size="14.00">x</text>
</g>
<!-- 66&#45;&gt;67 -->
<g id="edge44" class="edge">
<title>66&#45;&gt;67</title>
<path fill="none" stroke="black" d="M819,-359.7C819,-352.24 819,-343.32 819,-334.97"/>
<polygon fill="black" stroke="black" points="822.5,-335.1 819,-325.1 815.5,-335.1 822.5,-335.1"/>
</g>
<!-- 70 -->
<g id="node51" class="node">
<title>70</title>
<ellipse fill="none" stroke="black" cx="891" cy="-306" rx="27" ry="18"/>
<text text-anchor="middle" x="891" y="-302.3" font-family="Times,serif" font-size="14.00">2</text>
</g>
<!-- 69&#45;&gt;70 -->
<g id="edge46" class="edge">
<title>69&#45;&gt;70</title>
<path fill="none" stroke="black" d="M891,-359.7C891,-352.24 891,-343.32 891,-334.97"/>
<polygon fill="black" stroke="black" points="894.5,-335.1 891,-325.1 887.5,-335.1 894.5,-335.1"/>
</g>
<!-- 72 -->
<g id="node52" class="node">
<title>72</title>
<ellipse fill="none" stroke="black" cx="963" cy="-306" rx="27" ry="18"/>
<text text-anchor="middle" x="963" y="-302.3" font-family="Times,serif" font-size="14.00">^</text>
</g>
<!-- 69&#45;&gt;72 -->
<g id="edge49" class="edge">
<title>69&#45;&gt;72</title>
<path fill="none" stroke="black" d="M905.92,-362.5C915.86,-352.83 929.12,-339.94 940.35,-329.02"/>
<polygon fill="black" stroke="black" points="942.37,-331.97 947.1,-322.49 937.49,-326.95 942.37,-331.97"/>
</g>
<!-- 73 -->
<g id="node53" class="node">
<title>73</title>
<ellipse fill="none" stroke="black" cx="927" cy="-234" rx="27" ry="18"/>
<text text-anchor="middle" x="927" y="-230.3" font-family="Times,serif" font-size="14.00">5</text>
</g>
<!-- 72&#45;&gt;73 -->
<g id="edge47" class="edge">
<title>72&#45;&gt;73</title>
<path fill="none" stroke="black" d="M954.65,-288.76C950.38,-280.46 945.08,-270.15 940.27,-260.79"/>
<polygon fill="black" stroke="black" points="942.99,-259.44 935.3,-252.15 936.77,-262.64 942.99,-259.44"/>
</g>
<!-- 75 -->
<g id="node54" class="node">
<title>75</title>
<ellipse fill="none" stroke="black" cx="999" cy="-234" rx="27" ry="18"/>
<text text-anchor="middle" x="999" y="-230.3" font-family="Times,serif" font-size="14.00">&#45;1</text>
</g>
<!-- 72&#45;&gt;75 -->
<g id="edge48" class="edge">
<title>72&#45;&gt;75</title>
<path fill="none" stroke="black" d="M971.35,-288.76C975.62,-280.46 980.92,-270.15 985.73,-260.79"/>
<polygon fill="black" stroke="black" points="989.23,-262.64 990.7,-252.15 983.01,-259.44 989.23,-262.64"/>
</g>
<!-- 78 -->
<g id="node56" class="node">
<title>78</title>
<ellipse fill="none" stroke="black" cx="1035" cy="-378" rx="27" ry="18"/>
<text text-anchor="middle" x="1035" y="-374.3" font-family="Times,serif" font-size="14.00">+</text>
</g>
<!-- 77&#45;&gt;78 -->
<g id="edge54" class="edge">
<title>77&#45;&gt;78</title>
<path fill="none" stroke="black" d="M1035,-431.7C1035,-424.24 1035,-415.32 1035,-406.97"/>
<polygon fill="black" stroke="black" points="1038.5,-407.1 1035,-397.1 1031.5,-407.1 1038.5,-407.1"/>
</g>
<!-- 83 -->
<g id="node59" class="node">
<title>83</title>
<ellipse fill="none" stroke="black" cx="1107" cy="-378" rx="27" ry="18"/>
<text text-anchor="middle" x="1107" y="-374.3" font-family="Times,serif" font-size="14.00">&#45;1</text>
</g>
<!-- 77&#45;&gt;83 -->
<g id="edge55" class="edge">
<title>77&#45;&gt;83</title>
<path fill="none" stroke="black" d="M1049.92,-434.5C1059.86,-424.83 1073.12,-411.94 1084.35,-401.02"/>
<polygon fill="black" stroke="black" points="1086.37,-403.97 1091.1,-394.49 1081.49,-398.95 1086.37,-403.97"/>
</g>
<!-- 79 -->
<g id="node57" class="node">
<title>79</title>
<ellipse fill="none" stroke="black" cx="1035" cy="-306" rx="27" ry="18"/>
<text text-anchor="middle" x="1035" y="-302.3" font-family="Times,serif" font-size="14.00">x</text>
</g>
<!-- 78&#45;&gt;79 -->
<g id="edge52" class="edge">
<title>78&#45;&gt;79</title>
<path fill="none" stroke="black" d="M1035,-359.7C1035,-352.24 1035,-343.32 1035,-334.97"/>
<polygon fill="black" stroke="black" points="1038.5,-335.1 1035,-325.1 1031.5,-335.1 1038.5,-335.1"/>
</g>
<!-- 81 -->
<g id="node58" class="node">
<title>81</title>
<ellipse fill="none" stroke="black" cx="1107" cy="-306" rx="27" ry="18"/>
<text text-anchor="middle" x="1107" y="-302.3" font-family="Times,serif" font-size="14.00">2</text>
</g>
<!-- 78&#45;&gt;81 -->
<g id="edge53" class="edge">
<title>78&#45;&gt;81</title>
<path fill="none" stroke="black" d="M1049.92,-362.5C1059.86,-352.83 1073.12,-339.94 1084.35,-329.02"/>
<polygon fill="black" stroke="black" points="1086.37,-331.97 1091.1,-322.49 1081.49,-326.95 1086.37,-331.97"/>
</g>
</g>
</svg>
