<?xml version="1.0" encoding="UTF-8" standalone="no"?>
<!DOCTYPE svg PUBLIC "-//W3C//DTD SVG 1.1//EN"
 "http://www.w3.org/Graphics/SVG/1.1/DTD/svg11.dtd">
<!-- Generated by graphviz version 8.0.1 (20230327.1645)
 -->
<!-- Title: G Pages: 1 -->
<svg width="212pt" height="404pt"
 viewBox="0.00 0.00 211.60 404.00" xmlns="http://www.w3.org/2000/svg" xmlns:xlink="http://www.w3.org/1999/xlink">
<g id="graph0" class="graph" transform="scale(1 1) rotate(0) translate(4 400)">
<title>G</title>
<polygon fill="white" stroke="none" points="-4,4 -4,-400 207.6,-400 207.6,4 -4,4"/>
<!-- 0 -->
<g id="node1" class="node">
<title>0</title>
<ellipse fill="none" stroke="black" cx="66" cy="-378" rx="27" ry="18"/>
<text text-anchor="middle" x="66" y="-374.3" font-family="Times,serif" font-size="14.00">^</text>
</g>
<!-- 1 -->
<g id="node2" class="node">
<title>1</title>
<ellipse fill="none" stroke="black" cx="30" cy="-306" rx="27" ry="18"/>
<text text-anchor="middle" x="30" y="-302.3" font-family="Times,serif" font-size="14.00">100</text>
</g>
<!-- 0&#45;&gt;1 -->
<g id="edge1" class="edge">
<title>0&#45;&gt;1</title>
<path fill="none" stroke="black" d="M57.65,-360.76C53.38,-352.46 48.08,-342.15 43.27,-332.79"/>
<polygon fill="black" stroke="black" points="45.99,-331.44 38.3,-324.15 39.77,-334.64 45.99,-331.44"/>
</g>
<!-- 3 -->
<g id="node3" class="node">
<title>3</title>
<ellipse fill="none" stroke="black" cx="102" cy="-306" rx="27" ry="18"/>
<text text-anchor="middle" x="102" y="-302.3" font-family="Times,serif" font-size="14.00">*</text>
</g>
<!-- 0&#45;&gt;3 -->
<g id="edge11" class="edge">
<title>0&#45;&gt;3</title>
<path fill="none" stroke="black" d="M74.35,-360.76C78.62,-352.46 83.92,-342.15 88.73,-332.79"/>
<polygon fill="black" stroke="black" points="92.23,-334.64 93.7,-324.15 86.01,-331.44 92.23,-334.64"/>
</g>
<!-- 4 -->
<g id="node4" class="node">
<title>4</title>
<ellipse fill="none" stroke="black" cx="66" cy="-234" rx="27" ry="18"/>
<text text-anchor="middle" x="66" y="-230.3" font-family="Times,serif" font-size="14.00">14</text>
</g>
<!-- 3&#45;&gt;4 -->
<g id="edge2" class="edge">
<title>3&#45;&gt;4</title>
<path fill="none" stroke="black" d="M93.65,-288.76C89.38,-280.46 84.08,-270.15 79.27,-260.79"/>
<polygon fill="black" stroke="black" points="81.99,-259.44 74.3,-252.15 75.77,-262.64 81.99,-259.44"/>
</g>
<!-- 6 -->
<g id="node5" class="node">
<title>6</title>
<ellipse fill="none" stroke="black" cx="138" cy="-234" rx="27" ry="18"/>
<text text-anchor="middle" x="138" y="-230.3" font-family="Times,serif" font-size="14.00">*</text>
</g>
<!-- 3&#45;&gt;6 -->
<g id="edge10" class="edge">
<title>3&#45;&gt;6</title>
<path fill="none" stroke="black" d="M110.35,-288.76C114.62,-280.46 119.92,-270.15 124.73,-260.79"/>
<polygon fill="black" stroke="black" points="128.23,-262.64 129.7,-252.15 122.01,-259.44 128.23,-262.64"/>
</g>
<!-- 7 -->
<g id="node6" class="node">
<title>7</title>
<ellipse fill="none" stroke="black" cx="101" cy="-162" rx="27" ry="18"/>
<text text-anchor="middle" x="101" y="-158.3" font-family="Times,serif" font-size="14.00">*</text>
</g>
<!-- 6&#45;&gt;7 -->
<g id="edge7" class="edge">
<title>6&#45;&gt;7</title>
<path fill="none" stroke="black" d="M129.42,-216.76C125.03,-208.46 119.58,-198.15 114.63,-188.79"/>
<polygon fill="black" stroke="black" points="117.3,-187.35 109.54,-180.15 111.11,-190.62 117.3,-187.35"/>
</g>
<!-- 14 -->
<g id="node11" class="node">
<title>14</title>
<ellipse fill="none" stroke="black" cx="175" cy="-162" rx="28.7" ry="18"/>
<text text-anchor="middle" x="175" y="-158.3" font-family="Times,serif" font-size="14.00">log a</text>
</g>
<!-- 6&#45;&gt;14 -->
<g id="edge9" class="edge">
<title>6&#45;&gt;14</title>
<path fill="none" stroke="black" d="M146.58,-216.76C150.91,-208.58 156.26,-198.45 161.15,-189.2"/>
<polygon fill="black" stroke="black" points="164.63,-191.11 166.21,-180.63 158.44,-187.84 164.63,-191.11"/>
</g>
<!-- 8 -->
<g id="node7" class="node">
<title>8</title>
<ellipse fill="none" stroke="black" cx="27" cy="-90" rx="27" ry="18"/>
<text text-anchor="middle" x="27" y="-86.3" font-family="Times,serif" font-size="14.00">sin</text>
</g>
<!-- 7&#45;&gt;8 -->
<g id="edge4" class="edge">
<title>7&#45;&gt;8</title>
<path fill="none" stroke="black" d="M86.02,-146.83C75.66,-137.03 61.68,-123.8 49.92,-112.68"/>
<polygon fill="black" stroke="black" points="52.88,-110.71 43.21,-106.38 48.07,-115.8 52.88,-110.71"/>
</g>
<!-- 11 -->
<g id="node9" class="node">
<title>11</title>
<ellipse fill="none" stroke="black" cx="101" cy="-90" rx="28.7" ry="18"/>
<text text-anchor="middle" x="101" y="-86.3" font-family="Times,serif" font-size="14.00">log b</text>
</g>
<!-- 7&#45;&gt;11 -->
<g id="edge6" class="edge">
<title>7&#45;&gt;11</title>
<path fill="none" stroke="black" d="M101,-143.7C101,-136.24 101,-127.32 101,-118.97"/>
<polygon fill="black" stroke="black" points="104.5,-119.1 101,-109.1 97.5,-119.1 104.5,-119.1"/>
</g>
<!-- 9 -->
<g id="node8" class="node">
<title>9</title>
<ellipse fill="none" stroke="black" cx="27" cy="-18" rx="27" ry="18"/>
<text text-anchor="middle" x="27" y="-14.3" font-family="Times,serif" font-size="14.00">x</text>
</g>
<!-- 8&#45;&gt;9 -->
<g id="edge3" class="edge">
<title>8&#45;&gt;9</title>
<path fill="none" stroke="black" d="M27,-71.7C27,-64.24 27,-55.32 27,-46.97"/>
<polygon fill="black" stroke="black" points="30.5,-47.1 27,-37.1 23.5,-47.1 30.5,-47.1"/>
</g>
<!-- 12 -->
<g id="node10" class="node">
<title>12</title>
<ellipse fill="none" stroke="black" cx="101" cy="-18" rx="27" ry="18"/>
<text text-anchor="middle" x="101" y="-14.3" font-family="Times,serif" font-size="14.00">x</text>
</g>
<!-- 11&#45;&gt;12 -->
<g id="edge5" class="edge">
<title>11&#45;&gt;12</title>
<path fill="none" stroke="black" d="M101,-71.7C101,-64.24 101,-55.32 101,-46.97"/>
<polygon fill="black" stroke="black" points="104.5,-47.1 101,-37.1 97.5,-47.1 104.5,-47.1"/>
</g>
<!-- 15 -->
<g id="node12" class="node">
<title>15</title>
<ellipse fill="none" stroke="black" cx="175" cy="-90" rx="27" ry="18"/>
<text text-anchor="middle" x="175" y="-86.3" font-family="Times,serif" font-size="14.00">x</text>
</g>
<!-- 14&#45;&gt;15 -->
<g id="edge8" class="edge">
<title>14&#45;&gt;15</title>
<path fill="none" stroke="black" d="M175,-143.7C175,-136.24 175,-127.32 175,-118.97"/>
<polygon fill="black" stroke="black" points="178.5,-119.1 175,-109.1 171.5,-119.1 178.5,-119.1"/>
</g>
</g>
</svg>
