<?xml version="1.0" encoding="UTF-8" standalone="no"?>
<!DOCTYPE svg PUBLIC "-//W3C//DTD SVG 1.1//EN"
 "http://www.w3.org/Graphics/SVG/1.1/DTD/svg11.dtd">
<!-- Generated by graphviz version 8.0.1 (20230327.1645)
 -->
<!-- Title: G Pages: 1 -->
<svg width="350pt" height="404pt"
 viewBox="0.00 0.00 350.00 404.00" xmlns="http://www.w3.org/2000/svg" xmlns:xlink="http://www.w3.org/1999/xlink">
<g id="graph0" class="graph" transform="scale(1 1) rotate(0) translate(4 400)">
<title>G</title>
<polygon fill="white" stroke="none" points="-4,4 -4,-400 346,-400 346,4 -4,4"/>
<!-- 0 -->
<g id="node1" class="node">
<title>0</title>
<ellipse fill="none" stroke="black" cx="207" cy="-378" rx="27" ry="18"/>
<text text-anchor="middle" x="207" y="-374.3" font-family="Times,serif" font-size="14.00">*</text>
</g>
<!-- 1 -->
<g id="node2" class="node">
<title>1</title>
<ellipse fill="none" stroke="black" cx="171" cy="-306" rx="27" ry="18"/>
<text text-anchor="middle" x="171" y="-302.3" font-family="Times,serif" font-size="14.00">+</text>
</g>
<!-- 0&#45;&gt;1 -->
<g id="edge13" class="edge">
<title>0&#45;&gt;1</title>
<path fill="none" stroke="black" d="M198.65,-360.76C194.38,-352.46 189.08,-342.15 184.27,-332.79"/>
<polygon fill="black" stroke="black" points="186.99,-331.44 179.3,-324.15 180.77,-334.64 186.99,-331.44"/>
</g>
<!-- 21 -->
<g id="node15" class="node">
<title>21</title>
<ellipse fill="none" stroke="black" cx="243" cy="-306" rx="27" ry="18"/>
<text text-anchor="middle" x="243" y="-302.3" font-family="Times,serif" font-size="14.00">^</text>
</g>
<!-- 0&#45;&gt;21 -->
<g id="edge16" class="edge">
<title>0&#45;&gt;21</title>
<path fill="none" stroke="black" d="M215.35,-360.76C219.62,-352.46 224.92,-342.15 229.73,-332.79"/>
<polygon fill="black" stroke="black" points="233.23,-334.64 234.7,-324.15 227.01,-331.44 233.23,-334.64"/>
</g>
<!-- 2 -->
<g id="node3" class="node">
<title>2</title>
<ellipse fill="none" stroke="black" cx="99" cy="-234" rx="27" ry="18"/>
<text text-anchor="middle" x="99" y="-230.3" font-family="Times,serif" font-size="14.00">^</text>
</g>
<!-- 1&#45;&gt;2 -->
<g id="edge3" class="edge">
<title>1&#45;&gt;2</title>
<path fill="none" stroke="black" d="M156.08,-290.5C146.14,-280.83 132.88,-267.94 121.65,-257.02"/>
<polygon fill="black" stroke="black" points="124.51,-254.95 114.9,-250.49 119.63,-259.97 124.51,-254.95"/>
</g>
<!-- 7 -->
<g id="node6" class="node">
<title>7</title>
<ellipse fill="none" stroke="black" cx="171" cy="-234" rx="27" ry="18"/>
<text text-anchor="middle" x="171" y="-230.3" font-family="Times,serif" font-size="14.00">*</text>
</g>
<!-- 1&#45;&gt;7 -->
<g id="edge12" class="edge">
<title>1&#45;&gt;7</title>
<path fill="none" stroke="black" d="M171,-287.7C171,-280.24 171,-271.32 171,-262.97"/>
<polygon fill="black" stroke="black" points="174.5,-263.1 171,-253.1 167.5,-263.1 174.5,-263.1"/>
</g>
<!-- 3 -->
<g id="node4" class="node">
<title>3</title>
<ellipse fill="none" stroke="black" cx="27" cy="-162" rx="27" ry="18"/>
<text text-anchor="middle" x="27" y="-158.3" font-family="Times,serif" font-size="14.00">e</text>
</g>
<!-- 2&#45;&gt;3 -->
<g id="edge1" class="edge">
<title>2&#45;&gt;3</title>
<path fill="none" stroke="black" d="M84.08,-218.5C74.14,-208.83 60.88,-195.94 49.65,-185.02"/>
<polygon fill="black" stroke="black" points="52.51,-182.95 42.9,-178.49 47.63,-187.97 52.51,-182.95"/>
</g>
<!-- 5 -->
<g id="node5" class="node">
<title>5</title>
<ellipse fill="none" stroke="black" cx="99" cy="-162" rx="27" ry="18"/>
<text text-anchor="middle" x="99" y="-158.3" font-family="Times,serif" font-size="14.00">x</text>
</g>
<!-- 2&#45;&gt;5 -->
<g id="edge2" class="edge">
<title>2&#45;&gt;5</title>
<path fill="none" stroke="black" d="M99,-215.7C99,-208.24 99,-199.32 99,-190.97"/>
<polygon fill="black" stroke="black" points="102.5,-191.1 99,-181.1 95.5,-191.1 102.5,-191.1"/>
</g>
<!-- 8 -->
<g id="node7" class="node">
<title>8</title>
<ellipse fill="none" stroke="black" cx="171" cy="-162" rx="27" ry="18"/>
<text text-anchor="middle" x="171" y="-158.3" font-family="Times,serif" font-size="14.00">^</text>
</g>
<!-- 7&#45;&gt;8 -->
<g id="edge6" class="edge">
<title>7&#45;&gt;8</title>
<path fill="none" stroke="black" d="M171,-215.7C171,-208.24 171,-199.32 171,-190.97"/>
<polygon fill="black" stroke="black" points="174.5,-191.1 171,-181.1 167.5,-191.1 174.5,-191.1"/>
</g>
<!-- 13 -->
<g id="node10" class="node">
<title>13</title>
<ellipse fill="none" stroke="black" cx="243" cy="-162" rx="27" ry="18"/>
<text text-anchor="middle" x="243" y="-158.3" font-family="Times,serif" font-size="14.00">^</text>
</g>
<!-- 7&#45;&gt;13 -->
<g id="edge11" class="edge">
<title>7&#45;&gt;13</title>
<path fill="none" stroke="black" d="M185.92,-218.5C195.86,-208.83 209.12,-195.94 220.35,-185.02"/>
<polygon fill="black" stroke="black" points="222.37,-187.97 227.1,-178.49 217.49,-182.95 222.37,-187.97"/>
</g>
<!-- 9 -->
<g id="node8" class="node">
<title>9</title>
<ellipse fill="none" stroke="black" cx="99" cy="-90" rx="27" ry="18"/>
<text text-anchor="middle" x="99" y="-86.3" font-family="Times,serif" font-size="14.00">&#45;1</text>
</g>
<!-- 8&#45;&gt;9 -->
<g id="edge4" class="edge">
<title>8&#45;&gt;9</title>
<path fill="none" stroke="black" d="M156.08,-146.5C146.14,-136.83 132.88,-123.94 121.65,-113.02"/>
<polygon fill="black" stroke="black" points="124.51,-110.95 114.9,-106.49 119.63,-115.97 124.51,-110.95"/>
</g>
<!-- 11 -->
<g id="node9" class="node">
<title>11</title>
<ellipse fill="none" stroke="black" cx="171" cy="-90" rx="27" ry="18"/>
<text text-anchor="middle" x="171" y="-86.3" font-family="Times,serif" font-size="14.00">2</text>
</g>
<!-- 8&#45;&gt;11 -->
<g id="edge5" class="edge">
<title>8&#45;&gt;11</title>
<path fill="none" stroke="black" d="M171,-143.7C171,-136.24 171,-127.32 171,-118.97"/>
<polygon fill="black" stroke="black" points="174.5,-119.1 171,-109.1 167.5,-119.1 174.5,-119.1"/>
</g>
<!-- 14 -->
<g id="node11" class="node">
<title>14</title>
<ellipse fill="none" stroke="black" cx="243" cy="-90" rx="27" ry="18"/>
<text text-anchor="middle" x="243" y="-86.3" font-family="Times,serif" font-size="14.00">^</text>
</g>
<!-- 13&#45;&gt;14 -->
<g id="edge9" class="edge">
<title>13&#45;&gt;14</title>
<path fill="none" stroke="black" d="M243,-143.7C243,-136.24 243,-127.32 243,-118.97"/>
<polygon fill="black" stroke="black" points="246.5,-119.1 243,-109.1 239.5,-119.1 246.5,-119.1"/>
</g>
<!-- 19 -->
<g id="node14" class="node">
<title>19</title>
<ellipse fill="none" stroke="black" cx="315" cy="-90" rx="27" ry="18"/>
<text text-anchor="middle" x="315" y="-86.3" font-family="Times,serif" font-size="14.00">&#45;1</text>
</g>
<!-- 13&#45;&gt;19 -->
<g id="edge10" class="edge">
<title>13&#45;&gt;19</title>
<path fill="none" stroke="black" d="M257.92,-146.5C267.86,-136.83 281.12,-123.94 292.35,-113.02"/>
<polygon fill="black" stroke="black" points="294.37,-115.97 299.1,-106.49 289.49,-110.95 294.37,-115.97"/>
</g>
<!-- 15 -->
<g id="node12" class="node">
<title>15</title>
<ellipse fill="none" stroke="black" cx="207" cy="-18" rx="27" ry="18"/>
<text text-anchor="middle" x="207" y="-14.3" font-family="Times,serif" font-size="14.00">e</text>
</g>
<!-- 14&#45;&gt;15 -->
<g id="edge7" class="edge">
<title>14&#45;&gt;15</title>
<path fill="none" stroke="black" d="M234.65,-72.76C230.38,-64.46 225.08,-54.15 220.27,-44.79"/>
<polygon fill="black" stroke="black" points="222.99,-43.44 215.3,-36.15 216.77,-46.64 222.99,-43.44"/>
</g>
<!-- 17 -->
<g id="node13" class="node">
<title>17</title>
<ellipse fill="none" stroke="black" cx="279" cy="-18" rx="27" ry="18"/>
<text text-anchor="middle" x="279" y="-14.3" font-family="Times,serif" font-size="14.00">x</text>
</g>
<!-- 14&#45;&gt;17 -->
<g id="edge8" class="edge">
<title>14&#45;&gt;17</title>
<path fill="none" stroke="black" d="M251.35,-72.76C255.62,-64.46 260.92,-54.15 265.73,-44.79"/>
<polygon fill="black" stroke="black" points="269.23,-46.64 270.7,-36.15 263.01,-43.44 269.23,-46.64"/>
</g>
<!-- 22 -->
<g id="node16" class="node">
<title>22</title>
<ellipse fill="none" stroke="black" cx="243" cy="-234" rx="27" ry="18"/>
<text text-anchor="middle" x="243" y="-230.3" font-family="Times,serif" font-size="14.00">2</text>
</g>
<!-- 21&#45;&gt;22 -->
<g id="edge14" class="edge">
<title>21&#45;&gt;22</title>
<path fill="none" stroke="black" d="M243,-287.7C243,-280.24 243,-271.32 243,-262.97"/>
<polygon fill="black" stroke="black" points="246.5,-263.1 243,-253.1 239.5,-263.1 246.5,-263.1"/>
</g>
<!-- 24 -->
<g id="node17" class="node">
<title>24</title>
<ellipse fill="none" stroke="black" cx="315" cy="-234" rx="27" ry="18"/>
<text text-anchor="middle" x="315" y="-230.3" font-family="Times,serif" font-size="14.00">&#45;1</text>
</g>
<!-- 21&#45;&gt;24 -->
<g id="edge15" class="edge">
<title>21&#45;&gt;24</title>
<path fill="none" stroke="black" d="M257.92,-290.5C267.86,-280.83 281.12,-267.94 292.35,-257.02"/>
<polygon fill="black" stroke="black" points="294.37,-259.97 299.1,-250.49 289.49,-254.95 294.37,-259.97"/>
</g>
</g>
</svg>
