<?xml version="1.0" encoding="UTF-8" standalone="no"?>
<!DOCTYPE svg PUBLIC "-//W3C//DTD SVG 1.1//EN"
 "http://www.w3.org/Graphics/SVG/1.1/DTD/svg11.dtd">
<!-- Generated by graphviz version 8.0.1 (20230327.1645)
 -->
<!-- Title: G Pages: 1 -->
<svg width="840pt" height="980pt"
 viewBox="0.00 0.00 840.00 980.00" xmlns="http://www.w3.org/2000/svg" xmlns:xlink="http://www.w3.org/1999/xlink">
<g id="graph0" class="graph" transform="scale(1 1) rotate(0) translate(4 976)">
<title>G</title>
<polygon fill="white" stroke="none" points="-4,4 -4,-976 836,-976 836,4 -4,4"/>
<!-- 0 -->
<g id="node1" class="node">
<title>0</title>
<ellipse fill="none" stroke="black" cx="225" cy="-954" rx="27" ry="18"/>
<text text-anchor="middle" x="225" y="-950.3" font-family="Times,serif" font-size="14.00">*</text>
</g>
<!-- 1 -->
<g id="node2" class="node">
<title>1</title>
<ellipse fill="none" stroke="black" cx="135" cy="-882" rx="27" ry="18"/>
<text text-anchor="middle" x="135" y="-878.3" font-family="Times,serif" font-size="14.00">^</text>
</g>
<!-- 0&#45;&gt;1 -->
<g id="edge12" class="edge">
<title>0&#45;&gt;1</title>
<path fill="none" stroke="black" d="M208.07,-939.83C194.71,-929.44 175.84,-914.76 160.63,-902.93"/>
<polygon fill="black" stroke="black" points="163.2,-899.72 153.16,-896.35 158.9,-905.25 163.2,-899.72"/>
</g>
<!-- 19 -->
<g id="node14" class="node">
<title>19</title>
<ellipse fill="none" stroke="black" cx="279" cy="-882" rx="27" ry="18"/>
<text text-anchor="middle" x="279" y="-878.3" font-family="Times,serif" font-size="14.00">+</text>
</g>
<!-- 0&#45;&gt;19 -->
<g id="edge76" class="edge">
<title>0&#45;&gt;19</title>
<path fill="none" stroke="black" d="M236.98,-937.46C243.91,-928.49 252.76,-917.02 260.55,-906.92"/>
<polygon fill="black" stroke="black" points="263.71,-909.55 267.05,-899.49 258.17,-905.27 263.71,-909.55"/>
</g>
<!-- 2 -->
<g id="node3" class="node">
<title>2</title>
<ellipse fill="none" stroke="black" cx="63" cy="-810" rx="27" ry="18"/>
<text text-anchor="middle" x="63" y="-806.3" font-family="Times,serif" font-size="14.00">e</text>
</g>
<!-- 1&#45;&gt;2 -->
<g id="edge1" class="edge">
<title>1&#45;&gt;2</title>
<path fill="none" stroke="black" d="M120.08,-866.5C110.14,-856.83 96.88,-843.94 85.65,-833.02"/>
<polygon fill="black" stroke="black" points="88.51,-830.95 78.9,-826.49 83.63,-835.97 88.51,-830.95"/>
</g>
<!-- 4 -->
<g id="node4" class="node">
<title>4</title>
<ellipse fill="none" stroke="black" cx="135" cy="-810" rx="27" ry="18"/>
<text text-anchor="middle" x="135" y="-806.3" font-family="Times,serif" font-size="14.00">*</text>
</g>
<!-- 1&#45;&gt;4 -->
<g id="edge11" class="edge">
<title>1&#45;&gt;4</title>
<path fill="none" stroke="black" d="M135,-863.7C135,-856.24 135,-847.32 135,-838.97"/>
<polygon fill="black" stroke="black" points="138.5,-839.1 135,-829.1 131.5,-839.1 138.5,-839.1"/>
</g>
<!-- 5 -->
<g id="node5" class="node">
<title>5</title>
<ellipse fill="none" stroke="black" cx="45" cy="-738" rx="27" ry="18"/>
<text text-anchor="middle" x="45" y="-734.3" font-family="Times,serif" font-size="14.00">ln</text>
</g>
<!-- 4&#45;&gt;5 -->
<g id="edge3" class="edge">
<title>4&#45;&gt;5</title>
<path fill="none" stroke="black" d="M118.07,-795.83C104.71,-785.44 85.84,-770.76 70.63,-758.93"/>
<polygon fill="black" stroke="black" points="73.2,-755.72 63.16,-752.35 68.9,-761.25 73.2,-755.72"/>
</g>
<!-- 8 -->
<g id="node7" class="node">
<title>8</title>
<ellipse fill="none" stroke="black" cx="135" cy="-738" rx="27" ry="18"/>
<text text-anchor="middle" x="135" y="-734.3" font-family="Times,serif" font-size="14.00">^</text>
</g>
<!-- 4&#45;&gt;8 -->
<g id="edge10" class="edge">
<title>4&#45;&gt;8</title>
<path fill="none" stroke="black" d="M135,-791.7C135,-784.24 135,-775.32 135,-766.97"/>
<polygon fill="black" stroke="black" points="138.5,-767.1 135,-757.1 131.5,-767.1 138.5,-767.1"/>
</g>
<!-- 6 -->
<g id="node6" class="node">
<title>6</title>
<ellipse fill="none" stroke="black" cx="27" cy="-666" rx="27" ry="18"/>
<text text-anchor="middle" x="27" y="-662.3" font-family="Times,serif" font-size="14.00">x</text>
</g>
<!-- 5&#45;&gt;6 -->
<g id="edge2" class="edge">
<title>5&#45;&gt;6</title>
<path fill="none" stroke="black" d="M40.64,-720.05C38.65,-712.32 36.25,-702.96 34.01,-694.27"/>
<polygon fill="black" stroke="black" points="37.2,-693.6 31.32,-684.79 30.42,-695.35 37.2,-693.6"/>
</g>
<!-- 9 -->
<g id="node8" class="node">
<title>9</title>
<ellipse fill="none" stroke="black" cx="99" cy="-666" rx="27" ry="18"/>
<text text-anchor="middle" x="99" y="-662.3" font-family="Times,serif" font-size="14.00">x</text>
</g>
<!-- 8&#45;&gt;9 -->
<g id="edge4" class="edge">
<title>8&#45;&gt;9</title>
<path fill="none" stroke="black" d="M126.65,-720.76C122.38,-712.46 117.08,-702.15 112.27,-692.79"/>
<polygon fill="black" stroke="black" points="114.99,-691.44 107.3,-684.15 108.77,-694.64 114.99,-691.44"/>
</g>
<!-- 11 -->
<g id="node9" class="node">
<title>11</title>
<ellipse fill="none" stroke="black" cx="171" cy="-666" rx="27" ry="18"/>
<text text-anchor="middle" x="171" y="-662.3" font-family="Times,serif" font-size="14.00">^</text>
</g>
<!-- 8&#45;&gt;11 -->
<g id="edge9" class="edge">
<title>8&#45;&gt;11</title>
<path fill="none" stroke="black" d="M143.35,-720.76C147.62,-712.46 152.92,-702.15 157.73,-692.79"/>
<polygon fill="black" stroke="black" points="161.23,-694.64 162.7,-684.15 155.01,-691.44 161.23,-694.64"/>
</g>
<!-- 12 -->
<g id="node10" class="node">
<title>12</title>
<ellipse fill="none" stroke="black" cx="99" cy="-594" rx="27" ry="18"/>
<text text-anchor="middle" x="99" y="-590.3" font-family="Times,serif" font-size="14.00">x</text>
</g>
<!-- 11&#45;&gt;12 -->
<g id="edge5" class="edge">
<title>11&#45;&gt;12</title>
<path fill="none" stroke="black" d="M156.08,-650.5C146.14,-640.83 132.88,-627.94 121.65,-617.02"/>
<polygon fill="black" stroke="black" points="124.51,-614.95 114.9,-610.49 119.63,-619.97 124.51,-614.95"/>
</g>
<!-- 14 -->
<g id="node11" class="node">
<title>14</title>
<ellipse fill="none" stroke="black" cx="171" cy="-594" rx="27" ry="18"/>
<text text-anchor="middle" x="171" y="-590.3" font-family="Times,serif" font-size="14.00">^</text>
</g>
<!-- 11&#45;&gt;14 -->
<g id="edge8" class="edge">
<title>11&#45;&gt;14</title>
<path fill="none" stroke="black" d="M171,-647.7C171,-640.24 171,-631.32 171,-622.97"/>
<polygon fill="black" stroke="black" points="174.5,-623.1 171,-613.1 167.5,-623.1 174.5,-623.1"/>
</g>
<!-- 15 -->
<g id="node12" class="node">
<title>15</title>
<ellipse fill="none" stroke="black" cx="99" cy="-522" rx="27" ry="18"/>
<text text-anchor="middle" x="99" y="-518.3" font-family="Times,serif" font-size="14.00">x</text>
</g>
<!-- 14&#45;&gt;15 -->
<g id="edge6" class="edge">
<title>14&#45;&gt;15</title>
<path fill="none" stroke="black" d="M156.08,-578.5C146.14,-568.83 132.88,-555.94 121.65,-545.02"/>
<polygon fill="black" stroke="black" points="124.51,-542.95 114.9,-538.49 119.63,-547.97 124.51,-542.95"/>
</g>
<!-- 17 -->
<g id="node13" class="node">
<title>17</title>
<ellipse fill="none" stroke="black" cx="171" cy="-522" rx="27" ry="18"/>
<text text-anchor="middle" x="171" y="-518.3" font-family="Times,serif" font-size="14.00">x</text>
</g>
<!-- 14&#45;&gt;17 -->
<g id="edge7" class="edge">
<title>14&#45;&gt;17</title>
<path fill="none" stroke="black" d="M171,-575.7C171,-568.24 171,-559.32 171,-550.97"/>
<polygon fill="black" stroke="black" points="174.5,-551.1 171,-541.1 167.5,-551.1 174.5,-551.1"/>
</g>
<!-- 20 -->
<g id="node15" class="node">
<title>20</title>
<ellipse fill="none" stroke="black" cx="279" cy="-810" rx="27" ry="18"/>
<text text-anchor="middle" x="279" y="-806.3" font-family="Times,serif" font-size="14.00">*</text>
</g>
<!-- 19&#45;&gt;20 -->
<g id="edge66" class="edge">
<title>19&#45;&gt;20</title>
<path fill="none" stroke="black" d="M279,-863.7C279,-856.24 279,-847.32 279,-838.97"/>
<polygon fill="black" stroke="black" points="282.5,-839.1 279,-829.1 275.5,-839.1 282.5,-839.1"/>
</g>
<!-- 98 -->
<g id="node69" class="node">
<title>98</title>
<ellipse fill="none" stroke="black" cx="387" cy="-810" rx="27" ry="18"/>
<text text-anchor="middle" x="387" y="-806.3" font-family="Times,serif" font-size="14.00">^</text>
</g>
<!-- 19&#45;&gt;98 -->
<g id="edge75" class="edge">
<title>19&#45;&gt;98</title>
<path fill="none" stroke="black" d="M297.81,-868.81C314.67,-857.88 339.62,-841.71 358.85,-829.24"/>
<polygon fill="black" stroke="black" points="360.55,-831.66 367.04,-823.29 356.75,-825.79 360.55,-831.66"/>
</g>
<!-- 21 -->
<g id="node16" class="node">
<title>21</title>
<ellipse fill="none" stroke="black" cx="243" cy="-738" rx="27" ry="18"/>
<text text-anchor="middle" x="243" y="-734.3" font-family="Times,serif" font-size="14.00">ln</text>
</g>
<!-- 20&#45;&gt;21 -->
<g id="edge14" class="edge">
<title>20&#45;&gt;21</title>
<path fill="none" stroke="black" d="M270.65,-792.76C266.38,-784.46 261.08,-774.15 256.27,-764.79"/>
<polygon fill="black" stroke="black" points="258.99,-763.44 251.3,-756.15 252.77,-766.64 258.99,-763.44"/>
</g>
<!-- 24 -->
<g id="node18" class="node">
<title>24</title>
<ellipse fill="none" stroke="black" cx="315" cy="-738" rx="27" ry="18"/>
<text text-anchor="middle" x="315" y="-734.3" font-family="Times,serif" font-size="14.00">*</text>
</g>
<!-- 20&#45;&gt;24 -->
<g id="edge65" class="edge">
<title>20&#45;&gt;24</title>
<path fill="none" stroke="black" d="M287.35,-792.76C291.62,-784.46 296.92,-774.15 301.73,-764.79"/>
<polygon fill="black" stroke="black" points="305.23,-766.64 306.7,-756.15 299.01,-763.44 305.23,-766.64"/>
</g>
<!-- 22 -->
<g id="node17" class="node">
<title>22</title>
<ellipse fill="none" stroke="black" cx="243" cy="-666" rx="27" ry="18"/>
<text text-anchor="middle" x="243" y="-662.3" font-family="Times,serif" font-size="14.00">x</text>
</g>
<!-- 21&#45;&gt;22 -->
<g id="edge13" class="edge">
<title>21&#45;&gt;22</title>
<path fill="none" stroke="black" d="M243,-719.7C243,-712.24 243,-703.32 243,-694.97"/>
<polygon fill="black" stroke="black" points="246.5,-695.1 243,-685.1 239.5,-695.1 246.5,-695.1"/>
</g>
<!-- 25 -->
<g id="node19" class="node">
<title>25</title>
<ellipse fill="none" stroke="black" cx="315" cy="-666" rx="27" ry="18"/>
<text text-anchor="middle" x="315" y="-662.3" font-family="Times,serif" font-size="14.00">^</text>
</g>
<!-- 24&#45;&gt;25 -->
<g id="edge24" class="edge">
<title>24&#45;&gt;25</title>
<path fill="none" stroke="black" d="M315,-719.7C315,-712.24 315,-703.32 315,-694.97"/>
<polygon fill="black" stroke="black" points="318.5,-695.1 315,-685.1 311.5,-695.1 318.5,-695.1"/>
</g>
<!-- 40 -->
<g id="node29" class="node">
<title>40</title>
<ellipse fill="none" stroke="black" cx="423" cy="-666" rx="27" ry="18"/>
<text text-anchor="middle" x="423" y="-662.3" font-family="Times,serif" font-size="14.00">+</text>
</g>
<!-- 24&#45;&gt;40 -->
<g id="edge64" class="edge">
<title>24&#45;&gt;40</title>
<path fill="none" stroke="black" d="M333.81,-724.81C350.67,-713.88 375.62,-697.71 394.85,-685.24"/>
<polygon fill="black" stroke="black" points="396.55,-687.66 403.04,-679.29 392.75,-681.79 396.55,-687.66"/>
</g>
<!-- 26 -->
<g id="node20" class="node">
<title>26</title>
<ellipse fill="none" stroke="black" cx="243" cy="-594" rx="27" ry="18"/>
<text text-anchor="middle" x="243" y="-590.3" font-family="Times,serif" font-size="14.00">e</text>
</g>
<!-- 25&#45;&gt;26 -->
<g id="edge15" class="edge">
<title>25&#45;&gt;26</title>
<path fill="none" stroke="black" d="M300.08,-650.5C290.14,-640.83 276.88,-627.94 265.65,-617.02"/>
<polygon fill="black" stroke="black" points="268.51,-614.95 258.9,-610.49 263.63,-619.97 268.51,-614.95"/>
</g>
<!-- 28 -->
<g id="node21" class="node">
<title>28</title>
<ellipse fill="none" stroke="black" cx="315" cy="-594" rx="27" ry="18"/>
<text text-anchor="middle" x="315" y="-590.3" font-family="Times,serif" font-size="14.00">*</text>
</g>
<!-- 25&#45;&gt;28 -->
<g id="edge23" class="edge">
<title>25&#45;&gt;28</title>
<path fill="none" stroke="black" d="M315,-647.7C315,-640.24 315,-631.32 315,-622.97"/>
<polygon fill="black" stroke="black" points="318.5,-623.1 315,-613.1 311.5,-623.1 318.5,-623.1"/>
</g>
<!-- 29 -->
<g id="node22" class="node">
<title>29</title>
<ellipse fill="none" stroke="black" cx="243" cy="-522" rx="27" ry="18"/>
<text text-anchor="middle" x="243" y="-518.3" font-family="Times,serif" font-size="14.00">ln</text>
</g>
<!-- 28&#45;&gt;29 -->
<g id="edge17" class="edge">
<title>28&#45;&gt;29</title>
<path fill="none" stroke="black" d="M300.08,-578.5C290.14,-568.83 276.88,-555.94 265.65,-545.02"/>
<polygon fill="black" stroke="black" points="268.51,-542.95 258.9,-538.49 263.63,-547.97 268.51,-542.95"/>
</g>
<!-- 32 -->
<g id="node24" class="node">
<title>32</title>
<ellipse fill="none" stroke="black" cx="315" cy="-522" rx="27" ry="18"/>
<text text-anchor="middle" x="315" y="-518.3" font-family="Times,serif" font-size="14.00">^</text>
</g>
<!-- 28&#45;&gt;32 -->
<g id="edge22" class="edge">
<title>28&#45;&gt;32</title>
<path fill="none" stroke="black" d="M315,-575.7C315,-568.24 315,-559.32 315,-550.97"/>
<polygon fill="black" stroke="black" points="318.5,-551.1 315,-541.1 311.5,-551.1 318.5,-551.1"/>
</g>
<!-- 30 -->
<g id="node23" class="node">
<title>30</title>
<ellipse fill="none" stroke="black" cx="171" cy="-450" rx="27" ry="18"/>
<text text-anchor="middle" x="171" y="-446.3" font-family="Times,serif" font-size="14.00">x</text>
</g>
<!-- 29&#45;&gt;30 -->
<g id="edge16" class="edge">
<title>29&#45;&gt;30</title>
<path fill="none" stroke="black" d="M228.08,-506.5C218.14,-496.83 204.88,-483.94 193.65,-473.02"/>
<polygon fill="black" stroke="black" points="196.51,-470.95 186.9,-466.49 191.63,-475.97 196.51,-470.95"/>
</g>
<!-- 33 -->
<g id="node25" class="node">
<title>33</title>
<ellipse fill="none" stroke="black" cx="243" cy="-450" rx="27" ry="18"/>
<text text-anchor="middle" x="243" y="-446.3" font-family="Times,serif" font-size="14.00">x</text>
</g>
<!-- 32&#45;&gt;33 -->
<g id="edge18" class="edge">
<title>32&#45;&gt;33</title>
<path fill="none" stroke="black" d="M300.08,-506.5C290.14,-496.83 276.88,-483.94 265.65,-473.02"/>
<polygon fill="black" stroke="black" points="268.51,-470.95 258.9,-466.49 263.63,-475.97 268.51,-470.95"/>
</g>
<!-- 35 -->
<g id="node26" class="node">
<title>35</title>
<ellipse fill="none" stroke="black" cx="315" cy="-450" rx="27" ry="18"/>
<text text-anchor="middle" x="315" y="-446.3" font-family="Times,serif" font-size="14.00">^</text>
</g>
<!-- 32&#45;&gt;35 -->
<g id="edge21" class="edge">
<title>32&#45;&gt;35</title>
<path fill="none" stroke="black" d="M315,-503.7C315,-496.24 315,-487.32 315,-478.97"/>
<polygon fill="black" stroke="black" points="318.5,-479.1 315,-469.1 311.5,-479.1 318.5,-479.1"/>
</g>
<!-- 36 -->
<g id="node27" class="node">
<title>36</title>
<ellipse fill="none" stroke="black" cx="243" cy="-378" rx="27" ry="18"/>
<text text-anchor="middle" x="243" y="-374.3" font-family="Times,serif" font-size="14.00">x</text>
</g>
<!-- 35&#45;&gt;36 -->
<g id="edge19" class="edge">
<title>35&#45;&gt;36</title>
<path fill="none" stroke="black" d="M300.08,-434.5C290.14,-424.83 276.88,-411.94 265.65,-401.02"/>
<polygon fill="black" stroke="black" points="268.51,-398.95 258.9,-394.49 263.63,-403.97 268.51,-398.95"/>
</g>
<!-- 38 -->
<g id="node28" class="node">
<title>38</title>
<ellipse fill="none" stroke="black" cx="315" cy="-378" rx="27" ry="18"/>
<text text-anchor="middle" x="315" y="-374.3" font-family="Times,serif" font-size="14.00">x</text>
</g>
<!-- 35&#45;&gt;38 -->
<g id="edge20" class="edge">
<title>35&#45;&gt;38</title>
<path fill="none" stroke="black" d="M315,-431.7C315,-424.24 315,-415.32 315,-406.97"/>
<polygon fill="black" stroke="black" points="318.5,-407.1 315,-397.1 311.5,-407.1 318.5,-407.1"/>
</g>
<!-- 41 -->
<g id="node30" class="node">
<title>41</title>
<ellipse fill="none" stroke="black" cx="423" cy="-594" rx="27" ry="18"/>
<text text-anchor="middle" x="423" y="-590.3" font-family="Times,serif" font-size="14.00">*</text>
</g>
<!-- 40&#45;&gt;41 -->
<g id="edge56" class="edge">
<title>40&#45;&gt;41</title>
<path fill="none" stroke="black" d="M423,-647.7C423,-640.24 423,-631.32 423,-622.97"/>
<polygon fill="black" stroke="black" points="426.5,-623.1 423,-613.1 419.5,-623.1 426.5,-623.1"/>
</g>
<!-- 87 -->
<g id="node62" class="node">
<title>87</title>
<ellipse fill="none" stroke="black" cx="535" cy="-594" rx="27" ry="18"/>
<text text-anchor="middle" x="535" y="-590.3" font-family="Times,serif" font-size="14.00">^</text>
</g>
<!-- 40&#45;&gt;87 -->
<g id="edge63" class="edge">
<title>40&#45;&gt;87</title>
<path fill="none" stroke="black" d="M442.25,-652.97C459.88,-641.95 486.21,-625.49 506.32,-612.93"/>
<polygon fill="black" stroke="black" points="508,-615.38 514.62,-607.11 504.29,-609.44 508,-615.38"/>
</g>
<!-- 42 -->
<g id="node31" class="node">
<title>42</title>
<ellipse fill="none" stroke="black" cx="387" cy="-522" rx="27" ry="18"/>
<text text-anchor="middle" x="387" y="-518.3" font-family="Times,serif" font-size="14.00">ln</text>
</g>
<!-- 41&#45;&gt;42 -->
<g id="edge26" class="edge">
<title>41&#45;&gt;42</title>
<path fill="none" stroke="black" d="M414.65,-576.76C410.38,-568.46 405.08,-558.15 400.27,-548.79"/>
<polygon fill="black" stroke="black" points="402.99,-547.44 395.3,-540.15 396.77,-550.64 402.99,-547.44"/>
</g>
<!-- 45 -->
<g id="node33" class="node">
<title>45</title>
<ellipse fill="none" stroke="black" cx="459" cy="-522" rx="27" ry="18"/>
<text text-anchor="middle" x="459" y="-518.3" font-family="Times,serif" font-size="14.00">*</text>
</g>
<!-- 41&#45;&gt;45 -->
<g id="edge55" class="edge">
<title>41&#45;&gt;45</title>
<path fill="none" stroke="black" d="M431.35,-576.76C435.62,-568.46 440.92,-558.15 445.73,-548.79"/>
<polygon fill="black" stroke="black" points="449.23,-550.64 450.7,-540.15 443.01,-547.44 449.23,-550.64"/>
</g>
<!-- 43 -->
<g id="node32" class="node">
<title>43</title>
<ellipse fill="none" stroke="black" cx="387" cy="-450" rx="27" ry="18"/>
<text text-anchor="middle" x="387" y="-446.3" font-family="Times,serif" font-size="14.00">x</text>
</g>
<!-- 42&#45;&gt;43 -->
<g id="edge25" class="edge">
<title>42&#45;&gt;43</title>
<path fill="none" stroke="black" d="M387,-503.7C387,-496.24 387,-487.32 387,-478.97"/>
<polygon fill="black" stroke="black" points="390.5,-479.1 387,-469.1 383.5,-479.1 390.5,-479.1"/>
</g>
<!-- 46 -->
<g id="node34" class="node">
<title>46</title>
<ellipse fill="none" stroke="black" cx="459" cy="-450" rx="27" ry="18"/>
<text text-anchor="middle" x="459" y="-446.3" font-family="Times,serif" font-size="14.00">^</text>
</g>
<!-- 45&#45;&gt;46 -->
<g id="edge34" class="edge">
<title>45&#45;&gt;46</title>
<path fill="none" stroke="black" d="M459,-503.7C459,-496.24 459,-487.32 459,-478.97"/>
<polygon fill="black" stroke="black" points="462.5,-479.1 459,-469.1 455.5,-479.1 462.5,-479.1"/>
</g>
<!-- 58 -->
<g id="node42" class="node">
<title>58</title>
<ellipse fill="none" stroke="black" cx="531" cy="-450" rx="27" ry="18"/>
<text text-anchor="middle" x="531" y="-446.3" font-family="Times,serif" font-size="14.00">+</text>
</g>
<!-- 45&#45;&gt;58 -->
<g id="edge54" class="edge">
<title>45&#45;&gt;58</title>
<path fill="none" stroke="black" d="M473.92,-506.5C483.86,-496.83 497.12,-483.94 508.35,-473.02"/>
<polygon fill="black" stroke="black" points="510.37,-475.97 515.1,-466.49 505.49,-470.95 510.37,-475.97"/>
</g>
<!-- 47 -->
<g id="node35" class="node">
<title>47</title>
<ellipse fill="none" stroke="black" cx="387" cy="-378" rx="27" ry="18"/>
<text text-anchor="middle" x="387" y="-374.3" font-family="Times,serif" font-size="14.00">e</text>
</g>
<!-- 46&#45;&gt;47 -->
<g id="edge27" class="edge">
<title>46&#45;&gt;47</title>
<path fill="none" stroke="black" d="M444.08,-434.5C434.14,-424.83 420.88,-411.94 409.65,-401.02"/>
<polygon fill="black" stroke="black" points="412.51,-398.95 402.9,-394.49 407.63,-403.97 412.51,-398.95"/>
</g>
<!-- 49 -->
<g id="node36" class="node">
<title>49</title>
<ellipse fill="none" stroke="black" cx="459" cy="-378" rx="27" ry="18"/>
<text text-anchor="middle" x="459" y="-374.3" font-family="Times,serif" font-size="14.00">*</text>
</g>
<!-- 46&#45;&gt;49 -->
<g id="edge33" class="edge">
<title>46&#45;&gt;49</title>
<path fill="none" stroke="black" d="M459,-431.7C459,-424.24 459,-415.32 459,-406.97"/>
<polygon fill="black" stroke="black" points="462.5,-407.1 459,-397.1 455.5,-407.1 462.5,-407.1"/>
</g>
<!-- 50 -->
<g id="node37" class="node">
<title>50</title>
<ellipse fill="none" stroke="black" cx="243" cy="-306" rx="27" ry="18"/>
<text text-anchor="middle" x="243" y="-302.3" font-family="Times,serif" font-size="14.00">ln</text>
</g>
<!-- 49&#45;&gt;50 -->
<g id="edge29" class="edge">
<title>49&#45;&gt;50</title>
<path fill="none" stroke="black" d="M437.92,-366.38C433.08,-364.13 427.91,-361.87 423,-360 374.03,-341.36 315.53,-325.22 278.81,-315.79"/>
<polygon fill="black" stroke="black" points="279.71,-312.16 269.15,-313.09 277.98,-318.94 279.71,-312.16"/>
</g>
<!-- 53 -->
<g id="node39" class="node">
<title>53</title>
<ellipse fill="none" stroke="black" cx="351" cy="-306" rx="27" ry="18"/>
<text text-anchor="middle" x="351" y="-302.3" font-family="Times,serif" font-size="14.00">^</text>
</g>
<!-- 49&#45;&gt;53 -->
<g id="edge32" class="edge">
<title>49&#45;&gt;53</title>
<path fill="none" stroke="black" d="M440.19,-364.81C423.33,-353.88 398.38,-337.71 379.15,-325.24"/>
<polygon fill="black" stroke="black" points="381.25,-321.79 370.96,-319.29 377.45,-327.66 381.25,-321.79"/>
</g>
<!-- 51 -->
<g id="node38" class="node">
<title>51</title>
<ellipse fill="none" stroke="black" cx="207" cy="-234" rx="27" ry="18"/>
<text text-anchor="middle" x="207" y="-230.3" font-family="Times,serif" font-size="14.00">x</text>
</g>
<!-- 50&#45;&gt;51 -->
<g id="edge28" class="edge">
<title>50&#45;&gt;51</title>
<path fill="none" stroke="black" d="M234.65,-288.76C230.38,-280.46 225.08,-270.15 220.27,-260.79"/>
<polygon fill="black" stroke="black" points="222.99,-259.44 215.3,-252.15 216.77,-262.64 222.99,-259.44"/>
</g>
<!-- 54 -->
<g id="node40" class="node">
<title>54</title>
<ellipse fill="none" stroke="black" cx="279" cy="-234" rx="27" ry="18"/>
<text text-anchor="middle" x="279" y="-230.3" font-family="Times,serif" font-size="14.00">x</text>
</g>
<!-- 53&#45;&gt;54 -->
<g id="edge30" class="edge">
<title>53&#45;&gt;54</title>
<path fill="none" stroke="black" d="M336.08,-290.5C326.14,-280.83 312.88,-267.94 301.65,-257.02"/>
<polygon fill="black" stroke="black" points="304.51,-254.95 294.9,-250.49 299.63,-259.97 304.51,-254.95"/>
</g>
<!-- 56 -->
<g id="node41" class="node">
<title>56</title>
<ellipse fill="none" stroke="black" cx="351" cy="-234" rx="27" ry="18"/>
<text text-anchor="middle" x="351" y="-230.3" font-family="Times,serif" font-size="14.00">x</text>
</g>
<!-- 53&#45;&gt;56 -->
<g id="edge31" class="edge">
<title>53&#45;&gt;56</title>
<path fill="none" stroke="black" d="M351,-287.7C351,-280.24 351,-271.32 351,-262.97"/>
<polygon fill="black" stroke="black" points="354.5,-263.1 351,-253.1 347.5,-263.1 354.5,-263.1"/>
</g>
<!-- 59 -->
<g id="node43" class="node">
<title>59</title>
<ellipse fill="none" stroke="black" cx="531" cy="-378" rx="27" ry="18"/>
<text text-anchor="middle" x="531" y="-374.3" font-family="Times,serif" font-size="14.00">*</text>
</g>
<!-- 58&#45;&gt;59 -->
<g id="edge48" class="edge">
<title>58&#45;&gt;59</title>
<path fill="none" stroke="black" d="M531,-431.7C531,-424.24 531,-415.32 531,-406.97"/>
<polygon fill="black" stroke="black" points="534.5,-407.1 531,-397.1 527.5,-407.1 534.5,-407.1"/>
</g>
<!-- 79 -->
<g id="node57" class="node">
<title>79</title>
<ellipse fill="none" stroke="black" cx="603" cy="-378" rx="27" ry="18"/>
<text text-anchor="middle" x="603" y="-374.3" font-family="Times,serif" font-size="14.00">^</text>
</g>
<!-- 58&#45;&gt;79 -->
<g id="edge53" class="edge">
<title>58&#45;&gt;79</title>
<path fill="none" stroke="black" d="M545.92,-434.5C555.86,-424.83 569.12,-411.94 580.35,-401.02"/>
<polygon fill="black" stroke="black" points="582.37,-403.97 587.1,-394.49 577.49,-398.95 582.37,-403.97"/>
</g>
<!-- 60 -->
<g id="node44" class="node">
<title>60</title>
<ellipse fill="none" stroke="black" cx="495" cy="-306" rx="27" ry="18"/>
<text text-anchor="middle" x="495" y="-302.3" font-family="Times,serif" font-size="14.00">*</text>
</g>
<!-- 59&#45;&gt;60 -->
<g id="edge43" class="edge">
<title>59&#45;&gt;60</title>
<path fill="none" stroke="black" d="M522.65,-360.76C518.38,-352.46 513.08,-342.15 508.27,-332.79"/>
<polygon fill="black" stroke="black" points="510.99,-331.44 503.3,-324.15 504.77,-334.64 510.99,-331.44"/>
</g>
<!-- 73 -->
<g id="node53" class="node">
<title>73</title>
<ellipse fill="none" stroke="black" cx="567" cy="-306" rx="27" ry="18"/>
<text text-anchor="middle" x="567" y="-302.3" font-family="Times,serif" font-size="14.00">+</text>
</g>
<!-- 59&#45;&gt;73 -->
<g id="edge47" class="edge">
<title>59&#45;&gt;73</title>
<path fill="none" stroke="black" d="M539.35,-360.76C543.62,-352.46 548.92,-342.15 553.73,-332.79"/>
<polygon fill="black" stroke="black" points="557.23,-334.64 558.7,-324.15 551.01,-331.44 557.23,-334.64"/>
</g>
<!-- 61 -->
<g id="node45" class="node">
<title>61</title>
<ellipse fill="none" stroke="black" cx="423" cy="-234" rx="27" ry="18"/>
<text text-anchor="middle" x="423" y="-230.3" font-family="Times,serif" font-size="14.00">ln</text>
</g>
<!-- 60&#45;&gt;61 -->
<g id="edge36" class="edge">
<title>60&#45;&gt;61</title>
<path fill="none" stroke="black" d="M480.08,-290.5C470.14,-280.83 456.88,-267.94 445.65,-257.02"/>
<polygon fill="black" stroke="black" points="448.51,-254.95 438.9,-250.49 443.63,-259.97 448.51,-254.95"/>
</g>
<!-- 64 -->
<g id="node47" class="node">
<title>64</title>
<ellipse fill="none" stroke="black" cx="495" cy="-234" rx="27" ry="18"/>
<text text-anchor="middle" x="495" y="-230.3" font-family="Times,serif" font-size="14.00">^</text>
</g>
<!-- 60&#45;&gt;64 -->
<g id="edge42" class="edge">
<title>60&#45;&gt;64</title>
<path fill="none" stroke="black" d="M495,-287.7C495,-280.24 495,-271.32 495,-262.97"/>
<polygon fill="black" stroke="black" points="498.5,-263.1 495,-253.1 491.5,-263.1 498.5,-263.1"/>
</g>
<!-- 62 -->
<g id="node46" class="node">
<title>62</title>
<ellipse fill="none" stroke="black" cx="387" cy="-162" rx="27" ry="18"/>
<text text-anchor="middle" x="387" y="-158.3" font-family="Times,serif" font-size="14.00">x</text>
</g>
<!-- 61&#45;&gt;62 -->
<g id="edge35" class="edge">
<title>61&#45;&gt;62</title>
<path fill="none" stroke="black" d="M414.65,-216.76C410.38,-208.46 405.08,-198.15 400.27,-188.79"/>
<polygon fill="black" stroke="black" points="402.99,-187.44 395.3,-180.15 396.77,-190.64 402.99,-187.44"/>
</g>
<!-- 65 -->
<g id="node48" class="node">
<title>65</title>
<ellipse fill="none" stroke="black" cx="459" cy="-162" rx="27" ry="18"/>
<text text-anchor="middle" x="459" y="-158.3" font-family="Times,serif" font-size="14.00">e</text>
</g>
<!-- 64&#45;&gt;65 -->
<g id="edge37" class="edge">
<title>64&#45;&gt;65</title>
<path fill="none" stroke="black" d="M486.65,-216.76C482.38,-208.46 477.08,-198.15 472.27,-188.79"/>
<polygon fill="black" stroke="black" points="474.99,-187.44 467.3,-180.15 468.77,-190.64 474.99,-187.44"/>
</g>
<!-- 67 -->
<g id="node49" class="node">
<title>67</title>
<ellipse fill="none" stroke="black" cx="531" cy="-162" rx="27" ry="18"/>
<text text-anchor="middle" x="531" y="-158.3" font-family="Times,serif" font-size="14.00">*</text>
</g>
<!-- 64&#45;&gt;67 -->
<g id="edge41" class="edge">
<title>64&#45;&gt;67</title>
<path fill="none" stroke="black" d="M503.35,-216.76C507.62,-208.46 512.92,-198.15 517.73,-188.79"/>
<polygon fill="black" stroke="black" points="521.23,-190.64 522.7,-180.15 515.01,-187.44 521.23,-190.64"/>
</g>
<!-- 68 -->
<g id="node50" class="node">
<title>68</title>
<ellipse fill="none" stroke="black" cx="495" cy="-90" rx="27" ry="18"/>
<text text-anchor="middle" x="495" y="-86.3" font-family="Times,serif" font-size="14.00">ln</text>
</g>
<!-- 67&#45;&gt;68 -->
<g id="edge39" class="edge">
<title>67&#45;&gt;68</title>
<path fill="none" stroke="black" d="M522.65,-144.76C518.38,-136.46 513.08,-126.15 508.27,-116.79"/>
<polygon fill="black" stroke="black" points="510.99,-115.44 503.3,-108.15 504.77,-118.64 510.99,-115.44"/>
</g>
<!-- 71 -->
<g id="node52" class="node">
<title>71</title>
<ellipse fill="none" stroke="black" cx="567" cy="-90" rx="27" ry="18"/>
<text text-anchor="middle" x="567" y="-86.3" font-family="Times,serif" font-size="14.00">x</text>
</g>
<!-- 67&#45;&gt;71 -->
<g id="edge40" class="edge">
<title>67&#45;&gt;71</title>
<path fill="none" stroke="black" d="M539.35,-144.76C543.62,-136.46 548.92,-126.15 553.73,-116.79"/>
<polygon fill="black" stroke="black" points="557.23,-118.64 558.7,-108.15 551.01,-115.44 557.23,-118.64"/>
</g>
<!-- 69 -->
<g id="node51" class="node">
<title>69</title>
<ellipse fill="none" stroke="black" cx="495" cy="-18" rx="27" ry="18"/>
<text text-anchor="middle" x="495" y="-14.3" font-family="Times,serif" font-size="14.00">x</text>
</g>
<!-- 68&#45;&gt;69 -->
<g id="edge38" class="edge">
<title>68&#45;&gt;69</title>
<path fill="none" stroke="black" d="M495,-71.7C495,-64.24 495,-55.32 495,-46.97"/>
<polygon fill="black" stroke="black" points="498.5,-47.1 495,-37.1 491.5,-47.1 498.5,-47.1"/>
</g>
<!-- 74 -->
<g id="node54" class="node">
<title>74</title>
<ellipse fill="none" stroke="black" cx="567" cy="-234" rx="27" ry="18"/>
<text text-anchor="middle" x="567" y="-230.3" font-family="Times,serif" font-size="14.00">ln</text>
</g>
<!-- 73&#45;&gt;74 -->
<g id="edge45" class="edge">
<title>73&#45;&gt;74</title>
<path fill="none" stroke="black" d="M567,-287.7C567,-280.24 567,-271.32 567,-262.97"/>
<polygon fill="black" stroke="black" points="570.5,-263.1 567,-253.1 563.5,-263.1 570.5,-263.1"/>
</g>
<!-- 77 -->
<g id="node56" class="node">
<title>77</title>
<ellipse fill="none" stroke="black" cx="639" cy="-234" rx="27" ry="18"/>
<text text-anchor="middle" x="639" y="-230.3" font-family="Times,serif" font-size="14.00">1</text>
</g>
<!-- 73&#45;&gt;77 -->
<g id="edge46" class="edge">
<title>73&#45;&gt;77</title>
<path fill="none" stroke="black" d="M581.92,-290.5C591.86,-280.83 605.12,-267.94 616.35,-257.02"/>
<polygon fill="black" stroke="black" points="618.37,-259.97 623.1,-250.49 613.49,-254.95 618.37,-259.97"/>
</g>
<!-- 75 -->
<g id="node55" class="node">
<title>75</title>
<ellipse fill="none" stroke="black" cx="603" cy="-162" rx="27" ry="18"/>
<text text-anchor="middle" x="603" y="-158.3" font-family="Times,serif" font-size="14.00">x</text>
</g>
<!-- 74&#45;&gt;75 -->
<g id="edge44" class="edge">
<title>74&#45;&gt;75</title>
<path fill="none" stroke="black" d="M575.35,-216.76C579.62,-208.46 584.92,-198.15 589.73,-188.79"/>
<polygon fill="black" stroke="black" points="593.23,-190.64 594.7,-180.15 587.01,-187.44 593.23,-190.64"/>
</g>
<!-- 80 -->
<g id="node58" class="node">
<title>80</title>
<ellipse fill="none" stroke="black" cx="639" cy="-306" rx="27" ry="18"/>
<text text-anchor="middle" x="639" y="-302.3" font-family="Times,serif" font-size="14.00">x</text>
</g>
<!-- 79&#45;&gt;80 -->
<g id="edge49" class="edge">
<title>79&#45;&gt;80</title>
<path fill="none" stroke="black" d="M611.35,-360.76C615.62,-352.46 620.92,-342.15 625.73,-332.79"/>
<polygon fill="black" stroke="black" points="629.23,-334.64 630.7,-324.15 623.01,-331.44 629.23,-334.64"/>
</g>
<!-- 82 -->
<g id="node59" class="node">
<title>82</title>
<ellipse fill="none" stroke="black" cx="711" cy="-306" rx="27" ry="18"/>
<text text-anchor="middle" x="711" y="-302.3" font-family="Times,serif" font-size="14.00">+</text>
</g>
<!-- 79&#45;&gt;82 -->
<g id="edge52" class="edge">
<title>79&#45;&gt;82</title>
<path fill="none" stroke="black" d="M621.81,-364.81C638.67,-353.88 663.62,-337.71 682.85,-325.24"/>
<polygon fill="black" stroke="black" points="684.55,-327.66 691.04,-319.29 680.75,-321.79 684.55,-327.66"/>
</g>
<!-- 83 -->
<g id="node60" class="node">
<title>83</title>
<ellipse fill="none" stroke="black" cx="711" cy="-234" rx="27" ry="18"/>
<text text-anchor="middle" x="711" y="-230.3" font-family="Times,serif" font-size="14.00">x</text>
</g>
<!-- 82&#45;&gt;83 -->
<g id="edge50" class="edge">
<title>82&#45;&gt;83</title>
<path fill="none" stroke="black" d="M711,-287.7C711,-280.24 711,-271.32 711,-262.97"/>
<polygon fill="black" stroke="black" points="714.5,-263.1 711,-253.1 707.5,-263.1 714.5,-263.1"/>
</g>
<!-- 85 -->
<g id="node61" class="node">
<title>85</title>
<ellipse fill="none" stroke="black" cx="783" cy="-234" rx="27" ry="18"/>
<text text-anchor="middle" x="783" y="-230.3" font-family="Times,serif" font-size="14.00">&#45;1</text>
</g>
<!-- 82&#45;&gt;85 -->
<g id="edge51" class="edge">
<title>82&#45;&gt;85</title>
<path fill="none" stroke="black" d="M725.92,-290.5C735.86,-280.83 749.12,-267.94 760.35,-257.02"/>
<polygon fill="black" stroke="black" points="762.37,-259.97 767.1,-250.49 757.49,-254.95 762.37,-259.97"/>
</g>
<!-- 88 -->
<g id="node63" class="node">
<title>88</title>
<ellipse fill="none" stroke="black" cx="535" cy="-522" rx="27" ry="18"/>
<text text-anchor="middle" x="535" y="-518.3" font-family="Times,serif" font-size="14.00">x</text>
</g>
<!-- 87&#45;&gt;88 -->
<g id="edge57" class="edge">
<title>87&#45;&gt;88</title>
<path fill="none" stroke="black" d="M535,-575.7C535,-568.24 535,-559.32 535,-550.97"/>
<polygon fill="black" stroke="black" points="538.5,-551.1 535,-541.1 531.5,-551.1 538.5,-551.1"/>
</g>
<!-- 90 -->
<g id="node64" class="node">
<title>90</title>
<ellipse fill="none" stroke="black" cx="661" cy="-522" rx="27" ry="18"/>
<text text-anchor="middle" x="661" y="-518.3" font-family="Times,serif" font-size="14.00">+</text>
</g>
<!-- 87&#45;&gt;90 -->
<g id="edge62" class="edge">
<title>87&#45;&gt;90</title>
<path fill="none" stroke="black" d="M555.24,-581.75C575.82,-570.32 607.91,-552.49 631.35,-539.47"/>
<polygon fill="black" stroke="black" points="632.76,-542.13 639.81,-534.22 629.36,-536.02 632.76,-542.13"/>
</g>
<!-- 91 -->
<g id="node65" class="node">
<title>91</title>
<ellipse fill="none" stroke="black" cx="670" cy="-450" rx="27" ry="18"/>
<text text-anchor="middle" x="670" y="-446.3" font-family="Times,serif" font-size="14.00">^</text>
</g>
<!-- 90&#45;&gt;91 -->
<g id="edge60" class="edge">
<title>90&#45;&gt;91</title>
<path fill="none" stroke="black" d="M663.22,-503.7C664.18,-496.24 665.33,-487.32 666.4,-478.97"/>
<polygon fill="black" stroke="black" points="670,-479.47 667.8,-469.1 663.05,-478.58 670,-479.47"/>
</g>
<!-- 96 -->
<g id="node68" class="node">
<title>96</title>
<ellipse fill="none" stroke="black" cx="742" cy="-450" rx="27" ry="18"/>
<text text-anchor="middle" x="742" y="-446.3" font-family="Times,serif" font-size="14.00">&#45;1</text>
</g>
<!-- 90&#45;&gt;96 -->
<g id="edge61" class="edge">
<title>90&#45;&gt;96</title>
<path fill="none" stroke="black" d="M677,-507.17C688.65,-497.1 704.63,-483.29 717.83,-471.89"/>
<polygon fill="black" stroke="black" points="719.75,-473.99 725.03,-464.8 715.18,-468.69 719.75,-473.99"/>
</g>
<!-- 92 -->
<g id="node66" class="node">
<title>92</title>
<ellipse fill="none" stroke="black" cx="675" cy="-378" rx="27" ry="18"/>
<text text-anchor="middle" x="675" y="-374.3" font-family="Times,serif" font-size="14.00">x</text>
</g>
<!-- 91&#45;&gt;92 -->
<g id="edge58" class="edge">
<title>91&#45;&gt;92</title>
<path fill="none" stroke="black" d="M671.24,-431.7C671.77,-424.24 672.41,-415.32 673,-406.97"/>
<polygon fill="black" stroke="black" points="676.56,-407.33 673.78,-397.1 669.57,-406.83 676.56,-407.33"/>
</g>
<!-- 94 -->
<g id="node67" class="node">
<title>94</title>
<ellipse fill="none" stroke="black" cx="747" cy="-378" rx="27" ry="18"/>
<text text-anchor="middle" x="747" y="-374.3" font-family="Times,serif" font-size="14.00">x</text>
</g>
<!-- 91&#45;&gt;94 -->
<g id="edge59" class="edge">
<title>91&#45;&gt;94</title>
<path fill="none" stroke="black" d="M685.58,-434.83C696.44,-424.97 711.11,-411.63 723.4,-400.46"/>
<polygon fill="black" stroke="black" points="725.4,-403.46 730.44,-394.14 720.69,-398.28 725.4,-403.46"/>
</g>
<!-- 99 -->
<g id="node70" class="node">
<title>99</title>
<ellipse fill="none" stroke="black" cx="387" cy="-738" rx="27" ry="18"/>
<text text-anchor="middle" x="387" y="-734.3" font-family="Times,serif" font-size="14.00">x</text>
</g>
<!-- 98&#45;&gt;99 -->
<g id="edge67" class="edge">
<title>98&#45;&gt;99</title>
<path fill="none" stroke="black" d="M387,-791.7C387,-784.24 387,-775.32 387,-766.97"/>
<polygon fill="black" stroke="black" points="390.5,-767.1 387,-757.1 383.5,-767.1 390.5,-767.1"/>
</g>
<!-- 101 -->
<g id="node71" class="node">
<title>101</title>
<ellipse fill="none" stroke="black" cx="643" cy="-738" rx="27" ry="18"/>
<text text-anchor="middle" x="643" y="-734.3" font-family="Times,serif" font-size="14.00">+</text>
</g>
<!-- 98&#45;&gt;101 -->
<g id="edge74" class="edge">
<title>98&#45;&gt;101</title>
<path fill="none" stroke="black" d="M411.55,-802.29C457.11,-789.83 554.92,-763.08 607.62,-748.67"/>
<polygon fill="black" stroke="black" points="608.43,-751.81 617.15,-745.79 606.58,-745.06 608.43,-751.81"/>
</g>
<!-- 102 -->
<g id="node72" class="node">
<title>102</title>
<ellipse fill="none" stroke="black" cx="643" cy="-666" rx="27" ry="18"/>
<text text-anchor="middle" x="643" y="-662.3" font-family="Times,serif" font-size="14.00">^</text>
</g>
<!-- 101&#45;&gt;102 -->
<g id="edge72" class="edge">
<title>101&#45;&gt;102</title>
<path fill="none" stroke="black" d="M643,-719.7C643,-712.24 643,-703.32 643,-694.97"/>
<polygon fill="black" stroke="black" points="646.5,-695.1 643,-685.1 639.5,-695.1 646.5,-695.1"/>
</g>
<!-- 110 -->
<g id="node77" class="node">
<title>110</title>
<ellipse fill="none" stroke="black" cx="715" cy="-666" rx="27" ry="18"/>
<text text-anchor="middle" x="715" y="-662.3" font-family="Times,serif" font-size="14.00">&#45;1</text>
</g>
<!-- 101&#45;&gt;110 -->
<g id="edge73" class="edge">
<title>101&#45;&gt;110</title>
<path fill="none" stroke="black" d="M657.92,-722.5C667.86,-712.83 681.12,-699.94 692.35,-689.02"/>
<polygon fill="black" stroke="black" points="694.37,-691.97 699.1,-682.49 689.49,-686.95 694.37,-691.97"/>
</g>
<!-- 103 -->
<g id="node73" class="node">
<title>103</title>
<ellipse fill="none" stroke="black" cx="643" cy="-594" rx="27" ry="18"/>
<text text-anchor="middle" x="643" y="-590.3" font-family="Times,serif" font-size="14.00">x</text>
</g>
<!-- 102&#45;&gt;103 -->
<g id="edge68" class="edge">
<title>102&#45;&gt;103</title>
<path fill="none" stroke="black" d="M643,-647.7C643,-640.24 643,-631.32 643,-622.97"/>
<polygon fill="black" stroke="black" points="646.5,-623.1 643,-613.1 639.5,-623.1 646.5,-623.1"/>
</g>
<!-- 105 -->
<g id="node74" class="node">
<title>105</title>
<ellipse fill="none" stroke="black" cx="733" cy="-594" rx="27" ry="18"/>
<text text-anchor="middle" x="733" y="-590.3" font-family="Times,serif" font-size="14.00">^</text>
</g>
<!-- 102&#45;&gt;105 -->
<g id="edge71" class="edge">
<title>102&#45;&gt;105</title>
<path fill="none" stroke="black" d="M659.93,-651.83C673.29,-641.44 692.16,-626.76 707.37,-614.93"/>
<polygon fill="black" stroke="black" points="709.1,-617.25 714.84,-608.35 704.8,-611.72 709.1,-617.25"/>
</g>
<!-- 106 -->
<g id="node75" class="node">
<title>106</title>
<ellipse fill="none" stroke="black" cx="733" cy="-522" rx="27" ry="18"/>
<text text-anchor="middle" x="733" y="-518.3" font-family="Times,serif" font-size="14.00">x</text>
</g>
<!-- 105&#45;&gt;106 -->
<g id="edge69" class="edge">
<title>105&#45;&gt;106</title>
<path fill="none" stroke="black" d="M733,-575.7C733,-568.24 733,-559.32 733,-550.97"/>
<polygon fill="black" stroke="black" points="736.5,-551.1 733,-541.1 729.5,-551.1 736.5,-551.1"/>
</g>
<!-- 108 -->
<g id="node76" class="node">
<title>108</title>
<ellipse fill="none" stroke="black" cx="805" cy="-522" rx="27" ry="18"/>
<text text-anchor="middle" x="805" y="-518.3" font-family="Times,serif" font-size="14.00">x</text>
</g>
<!-- 105&#45;&gt;108 -->
<g id="edge70" class="edge">
<title>105&#45;&gt;108</title>
<path fill="none" stroke="black" d="M747.92,-578.5C757.86,-568.83 771.12,-555.94 782.35,-545.02"/>
<polygon fill="black" stroke="black" points="784.37,-547.97 789.1,-538.49 779.49,-542.95 784.37,-547.97"/>
</g>
</g>
</svg>
