<?xml version="1.0" encoding="UTF-8" standalone="no"?>
<!DOCTYPE svg PUBLIC "-//W3C//DTD SVG 1.1//EN"
 "http://www.w3.org/Graphics/SVG/1.1/DTD/svg11.dtd">
<!-- Generated by graphviz version 8.0.1 (20230327.1645)
 -->
<!-- Title: G Pages: 1 -->
<svg width="620pt" height="476pt"
 viewBox="0.00 0.00 620.00 476.00" xmlns="http://www.w3.org/2000/svg" xmlns:xlink="http://www.w3.org/1999/xlink">
<g id="graph0" class="graph" transform="scale(1 1) rotate(0) translate(4 472)">
<title>G</title>
<polygon fill="white" stroke="none" points="-4,4 -4,-472 616,-472 616,4 -4,4"/>
<!-- 0 -->
<g id="node1" class="node">
<title>0</title>
<ellipse fill="none" stroke="black" cx="279" cy="-450" rx="27" ry="18"/>
<text text-anchor="middle" x="279" y="-446.3" font-family="Times,serif" font-size="14.00">+</text>
</g>
<!-- 1 -->
<g id="node2" class="node">
<title>1</title>
<ellipse fill="none" stroke="black" cx="207" cy="-378" rx="27" ry="18"/>
<text text-anchor="middle" x="207" y="-374.3" font-family="Times,serif" font-size="14.00">*</text>
</g>
<!-- 0&#45;&gt;1 -->
<g id="edge9" class="edge">
<title>0&#45;&gt;1</title>
<path fill="none" stroke="black" d="M264.08,-434.5C254.14,-424.83 240.88,-411.94 229.65,-401.02"/>
<polygon fill="black" stroke="black" points="232.51,-398.95 222.9,-394.49 227.63,-403.97 232.51,-398.95"/>
</g>
<!-- 14 -->
<g id="node11" class="node">
<title>14</title>
<ellipse fill="none" stroke="black" cx="315" cy="-378" rx="27" ry="18"/>
<text text-anchor="middle" x="315" y="-374.3" font-family="Times,serif" font-size="14.00">*</text>
</g>
<!-- 0&#45;&gt;14 -->
<g id="edge25" class="edge">
<title>0&#45;&gt;14</title>
<path fill="none" stroke="black" d="M287.35,-432.76C291.62,-424.46 296.92,-414.15 301.73,-404.79"/>
<polygon fill="black" stroke="black" points="305.23,-406.64 306.7,-396.15 299.01,-403.44 305.23,-406.64"/>
</g>
<!-- 2 -->
<g id="node3" class="node">
<title>2</title>
<ellipse fill="none" stroke="black" cx="99" cy="-306" rx="27" ry="18"/>
<text text-anchor="middle" x="99" y="-302.3" font-family="Times,serif" font-size="14.00">*</text>
</g>
<!-- 1&#45;&gt;2 -->
<g id="edge4" class="edge">
<title>1&#45;&gt;2</title>
<path fill="none" stroke="black" d="M188.19,-364.81C171.33,-353.88 146.38,-337.71 127.15,-325.24"/>
<polygon fill="black" stroke="black" points="129.25,-321.79 118.96,-319.29 125.45,-327.66 129.25,-321.79"/>
</g>
<!-- 8 -->
<g id="node7" class="node">
<title>8</title>
<ellipse fill="none" stroke="black" cx="207" cy="-306" rx="27" ry="18"/>
<text text-anchor="middle" x="207" y="-302.3" font-family="Times,serif" font-size="14.00">^</text>
</g>
<!-- 1&#45;&gt;8 -->
<g id="edge8" class="edge">
<title>1&#45;&gt;8</title>
<path fill="none" stroke="black" d="M207,-359.7C207,-352.24 207,-343.32 207,-334.97"/>
<polygon fill="black" stroke="black" points="210.5,-335.1 207,-325.1 203.5,-335.1 210.5,-335.1"/>
</g>
<!-- 3 -->
<g id="node4" class="node">
<title>3</title>
<ellipse fill="none" stroke="black" cx="27" cy="-234" rx="27" ry="18"/>
<text text-anchor="middle" x="27" y="-230.3" font-family="Times,serif" font-size="14.00">cos</text>
</g>
<!-- 2&#45;&gt;3 -->
<g id="edge2" class="edge">
<title>2&#45;&gt;3</title>
<path fill="none" stroke="black" d="M84.08,-290.5C74.14,-280.83 60.88,-267.94 49.65,-257.02"/>
<polygon fill="black" stroke="black" points="52.51,-254.95 42.9,-250.49 47.63,-259.97 52.51,-254.95"/>
</g>
<!-- 6 -->
<g id="node6" class="node">
<title>6</title>
<ellipse fill="none" stroke="black" cx="99" cy="-234" rx="27" ry="18"/>
<text text-anchor="middle" x="99" y="-230.3" font-family="Times,serif" font-size="14.00">1</text>
</g>
<!-- 2&#45;&gt;6 -->
<g id="edge3" class="edge">
<title>2&#45;&gt;6</title>
<path fill="none" stroke="black" d="M99,-287.7C99,-280.24 99,-271.32 99,-262.97"/>
<polygon fill="black" stroke="black" points="102.5,-263.1 99,-253.1 95.5,-263.1 102.5,-263.1"/>
</g>
<!-- 4 -->
<g id="node5" class="node">
<title>4</title>
<ellipse fill="none" stroke="black" cx="27" cy="-162" rx="27" ry="18"/>
<text text-anchor="middle" x="27" y="-158.3" font-family="Times,serif" font-size="14.00">x</text>
</g>
<!-- 3&#45;&gt;4 -->
<g id="edge1" class="edge">
<title>3&#45;&gt;4</title>
<path fill="none" stroke="black" d="M27,-215.7C27,-208.24 27,-199.32 27,-190.97"/>
<polygon fill="black" stroke="black" points="30.5,-191.1 27,-181.1 23.5,-191.1 30.5,-191.1"/>
</g>
<!-- 9 -->
<g id="node8" class="node">
<title>9</title>
<ellipse fill="none" stroke="black" cx="171" cy="-234" rx="27" ry="18"/>
<text text-anchor="middle" x="171" y="-230.3" font-family="Times,serif" font-size="14.00">cos</text>
</g>
<!-- 8&#45;&gt;9 -->
<g id="edge6" class="edge">
<title>8&#45;&gt;9</title>
<path fill="none" stroke="black" d="M198.65,-288.76C194.38,-280.46 189.08,-270.15 184.27,-260.79"/>
<polygon fill="black" stroke="black" points="186.99,-259.44 179.3,-252.15 180.77,-262.64 186.99,-259.44"/>
</g>
<!-- 12 -->
<g id="node10" class="node">
<title>12</title>
<ellipse fill="none" stroke="black" cx="243" cy="-234" rx="27" ry="18"/>
<text text-anchor="middle" x="243" y="-230.3" font-family="Times,serif" font-size="14.00">&#45;1</text>
</g>
<!-- 8&#45;&gt;12 -->
<g id="edge7" class="edge">
<title>8&#45;&gt;12</title>
<path fill="none" stroke="black" d="M215.35,-288.76C219.62,-280.46 224.92,-270.15 229.73,-260.79"/>
<polygon fill="black" stroke="black" points="233.23,-262.64 234.7,-252.15 227.01,-259.44 233.23,-262.64"/>
</g>
<!-- 10 -->
<g id="node9" class="node">
<title>10</title>
<ellipse fill="none" stroke="black" cx="171" cy="-162" rx="27" ry="18"/>
<text text-anchor="middle" x="171" y="-158.3" font-family="Times,serif" font-size="14.00">x</text>
</g>
<!-- 9&#45;&gt;10 -->
<g id="edge5" class="edge">
<title>9&#45;&gt;10</title>
<path fill="none" stroke="black" d="M171,-215.7C171,-208.24 171,-199.32 171,-190.97"/>
<polygon fill="black" stroke="black" points="174.5,-191.1 171,-181.1 167.5,-191.1 174.5,-191.1"/>
</g>
<!-- 15 -->
<g id="node12" class="node">
<title>15</title>
<ellipse fill="none" stroke="black" cx="315" cy="-306" rx="27" ry="18"/>
<text text-anchor="middle" x="315" y="-302.3" font-family="Times,serif" font-size="14.00">sin</text>
</g>
<!-- 14&#45;&gt;15 -->
<g id="edge11" class="edge">
<title>14&#45;&gt;15</title>
<path fill="none" stroke="black" d="M315,-359.7C315,-352.24 315,-343.32 315,-334.97"/>
<polygon fill="black" stroke="black" points="318.5,-335.1 315,-325.1 311.5,-335.1 318.5,-335.1"/>
</g>
<!-- 18 -->
<g id="node14" class="node">
<title>18</title>
<ellipse fill="none" stroke="black" cx="387" cy="-306" rx="27" ry="18"/>
<text text-anchor="middle" x="387" y="-302.3" font-family="Times,serif" font-size="14.00">*</text>
</g>
<!-- 14&#45;&gt;18 -->
<g id="edge24" class="edge">
<title>14&#45;&gt;18</title>
<path fill="none" stroke="black" d="M329.92,-362.5C339.86,-352.83 353.12,-339.94 364.35,-329.02"/>
<polygon fill="black" stroke="black" points="366.37,-331.97 371.1,-322.49 361.49,-326.95 366.37,-331.97"/>
</g>
<!-- 16 -->
<g id="node13" class="node">
<title>16</title>
<ellipse fill="none" stroke="black" cx="315" cy="-234" rx="27" ry="18"/>
<text text-anchor="middle" x="315" y="-230.3" font-family="Times,serif" font-size="14.00">x</text>
</g>
<!-- 15&#45;&gt;16 -->
<g id="edge10" class="edge">
<title>15&#45;&gt;16</title>
<path fill="none" stroke="black" d="M315,-287.7C315,-280.24 315,-271.32 315,-262.97"/>
<polygon fill="black" stroke="black" points="318.5,-263.1 315,-253.1 311.5,-263.1 318.5,-263.1"/>
</g>
<!-- 19 -->
<g id="node15" class="node">
<title>19</title>
<ellipse fill="none" stroke="black" cx="387" cy="-234" rx="27" ry="18"/>
<text text-anchor="middle" x="387" y="-230.3" font-family="Times,serif" font-size="14.00">*</text>
</g>
<!-- 18&#45;&gt;19 -->
<g id="edge17" class="edge">
<title>18&#45;&gt;19</title>
<path fill="none" stroke="black" d="M387,-287.7C387,-280.24 387,-271.32 387,-262.97"/>
<polygon fill="black" stroke="black" points="390.5,-263.1 387,-253.1 383.5,-263.1 390.5,-263.1"/>
</g>
<!-- 28 -->
<g id="node21" class="node">
<title>28</title>
<ellipse fill="none" stroke="black" cx="459" cy="-234" rx="27" ry="18"/>
<text text-anchor="middle" x="459" y="-230.3" font-family="Times,serif" font-size="14.00">*</text>
</g>
<!-- 18&#45;&gt;28 -->
<g id="edge23" class="edge">
<title>18&#45;&gt;28</title>
<path fill="none" stroke="black" d="M401.92,-290.5C411.86,-280.83 425.12,-267.94 436.35,-257.02"/>
<polygon fill="black" stroke="black" points="438.37,-259.97 443.1,-250.49 433.49,-254.95 438.37,-259.97"/>
</g>
<!-- 20 -->
<g id="node16" class="node">
<title>20</title>
<ellipse fill="none" stroke="black" cx="315" cy="-162" rx="27" ry="18"/>
<text text-anchor="middle" x="315" y="-158.3" font-family="Times,serif" font-size="14.00">&#45;1</text>
</g>
<!-- 19&#45;&gt;20 -->
<g id="edge12" class="edge">
<title>19&#45;&gt;20</title>
<path fill="none" stroke="black" d="M372.08,-218.5C362.14,-208.83 348.88,-195.94 337.65,-185.02"/>
<polygon fill="black" stroke="black" points="340.51,-182.95 330.9,-178.49 335.63,-187.97 340.51,-182.95"/>
</g>
<!-- 22 -->
<g id="node17" class="node">
<title>22</title>
<ellipse fill="none" stroke="black" cx="387" cy="-162" rx="27" ry="18"/>
<text text-anchor="middle" x="387" y="-158.3" font-family="Times,serif" font-size="14.00">^</text>
</g>
<!-- 19&#45;&gt;22 -->
<g id="edge16" class="edge">
<title>19&#45;&gt;22</title>
<path fill="none" stroke="black" d="M387,-215.7C387,-208.24 387,-199.32 387,-190.97"/>
<polygon fill="black" stroke="black" points="390.5,-191.1 387,-181.1 383.5,-191.1 390.5,-191.1"/>
</g>
<!-- 23 -->
<g id="node18" class="node">
<title>23</title>
<ellipse fill="none" stroke="black" cx="351" cy="-90" rx="27" ry="18"/>
<text text-anchor="middle" x="351" y="-86.3" font-family="Times,serif" font-size="14.00">cos</text>
</g>
<!-- 22&#45;&gt;23 -->
<g id="edge14" class="edge">
<title>22&#45;&gt;23</title>
<path fill="none" stroke="black" d="M378.65,-144.76C374.38,-136.46 369.08,-126.15 364.27,-116.79"/>
<polygon fill="black" stroke="black" points="366.99,-115.44 359.3,-108.15 360.77,-118.64 366.99,-115.44"/>
</g>
<!-- 26 -->
<g id="node20" class="node">
<title>26</title>
<ellipse fill="none" stroke="black" cx="423" cy="-90" rx="27" ry="18"/>
<text text-anchor="middle" x="423" y="-86.3" font-family="Times,serif" font-size="14.00">&#45;2</text>
</g>
<!-- 22&#45;&gt;26 -->
<g id="edge15" class="edge">
<title>22&#45;&gt;26</title>
<path fill="none" stroke="black" d="M395.35,-144.76C399.62,-136.46 404.92,-126.15 409.73,-116.79"/>
<polygon fill="black" stroke="black" points="413.23,-118.64 414.7,-108.15 407.01,-115.44 413.23,-118.64"/>
</g>
<!-- 24 -->
<g id="node19" class="node">
<title>24</title>
<ellipse fill="none" stroke="black" cx="351" cy="-18" rx="27" ry="18"/>
<text text-anchor="middle" x="351" y="-14.3" font-family="Times,serif" font-size="14.00">x</text>
</g>
<!-- 23&#45;&gt;24 -->
<g id="edge13" class="edge">
<title>23&#45;&gt;24</title>
<path fill="none" stroke="black" d="M351,-71.7C351,-64.24 351,-55.32 351,-46.97"/>
<polygon fill="black" stroke="black" points="354.5,-47.1 351,-37.1 347.5,-47.1 354.5,-47.1"/>
</g>
<!-- 29 -->
<g id="node22" class="node">
<title>29</title>
<ellipse fill="none" stroke="black" cx="459" cy="-162" rx="27" ry="18"/>
<text text-anchor="middle" x="459" y="-158.3" font-family="Times,serif" font-size="14.00">&#45;1</text>
</g>
<!-- 28&#45;&gt;29 -->
<g id="edge18" class="edge">
<title>28&#45;&gt;29</title>
<path fill="none" stroke="black" d="M459,-215.7C459,-208.24 459,-199.32 459,-190.97"/>
<polygon fill="black" stroke="black" points="462.5,-191.1 459,-181.1 455.5,-191.1 462.5,-191.1"/>
</g>
<!-- 31 -->
<g id="node23" class="node">
<title>31</title>
<ellipse fill="none" stroke="black" cx="531" cy="-162" rx="27" ry="18"/>
<text text-anchor="middle" x="531" y="-158.3" font-family="Times,serif" font-size="14.00">*</text>
</g>
<!-- 28&#45;&gt;31 -->
<g id="edge22" class="edge">
<title>28&#45;&gt;31</title>
<path fill="none" stroke="black" d="M473.92,-218.5C483.86,-208.83 497.12,-195.94 508.35,-185.02"/>
<polygon fill="black" stroke="black" points="510.37,-187.97 515.1,-178.49 505.49,-182.95 510.37,-187.97"/>
</g>
<!-- 32 -->
<g id="node24" class="node">
<title>32</title>
<ellipse fill="none" stroke="black" cx="513" cy="-90" rx="27" ry="18"/>
<text text-anchor="middle" x="513" y="-86.3" font-family="Times,serif" font-size="14.00">sin</text>
</g>
<!-- 31&#45;&gt;32 -->
<g id="edge20" class="edge">
<title>31&#45;&gt;32</title>
<path fill="none" stroke="black" d="M526.64,-144.05C524.65,-136.32 522.25,-126.96 520.01,-118.27"/>
<polygon fill="black" stroke="black" points="523.2,-117.6 517.32,-108.79 516.42,-119.35 523.2,-117.6"/>
</g>
<!-- 35 -->
<g id="node26" class="node">
<title>35</title>
<ellipse fill="none" stroke="black" cx="585" cy="-90" rx="27" ry="18"/>
<text text-anchor="middle" x="585" y="-86.3" font-family="Times,serif" font-size="14.00">1</text>
</g>
<!-- 31&#45;&gt;35 -->
<g id="edge21" class="edge">
<title>31&#45;&gt;35</title>
<path fill="none" stroke="black" d="M542.98,-145.46C549.91,-136.49 558.76,-125.02 566.55,-114.92"/>
<polygon fill="black" stroke="black" points="569.71,-117.55 573.05,-107.49 564.17,-113.27 569.71,-117.55"/>
</g>
<!-- 33 -->
<g id="node25" class="node">
<title>33</title>
<ellipse fill="none" stroke="black" cx="513" cy="-18" rx="27" ry="18"/>
<text text-anchor="middle" x="513" y="-14.3" font-family="Times,serif" font-size="14.00">x</text>
</g>
<!-- 32&#45;&gt;33 -->
<g id="edge19" class="edge">
<title>32&#45;&gt;33</title>
<path fill="none" stroke="black" d="M513,-71.7C513,-64.24 513,-55.32 513,-46.97"/>
<polygon fill="black" stroke="black" points="516.5,-47.1 513,-37.1 509.5,-47.1 516.5,-47.1"/>
</g>
</g>
</svg>
