<?xml version="1.0" encoding="UTF-8" standalone="no"?>
<!DOCTYPE svg PUBLIC "-//W3C//DTD SVG 1.1//EN"
 "http://www.w3.org/Graphics/SVG/1.1/DTD/svg11.dtd">
<!-- Generated by graphviz version 8.0.1 (20230327.1645)
 -->
<!-- Title: G Pages: 1 -->
<svg width="530pt" height="548pt"
 viewBox="0.00 0.00 530.00 548.00" xmlns="http://www.w3.org/2000/svg" xmlns:xlink="http://www.w3.org/1999/xlink">
<g id="graph0" class="graph" transform="scale(1 1) rotate(0) translate(4 544)">
<title>G</title>
<polygon fill="white" stroke="none" points="-4,4 -4,-544 526,-544 526,4 -4,4"/>
<!-- 0 -->
<g id="node1" class="node">
<title>0</title>
<ellipse fill="none" stroke="black" cx="387" cy="-522" rx="27" ry="18"/>
<text text-anchor="middle" x="387" y="-518.3" font-family="Times,serif" font-size="14.00">*</text>
</g>
<!-- 1 -->
<g id="node2" class="node">
<title>1</title>
<ellipse fill="none" stroke="black" cx="351" cy="-450" rx="27" ry="18"/>
<text text-anchor="middle" x="351" y="-446.3" font-family="Times,serif" font-size="14.00">*</text>
</g>
<!-- 0&#45;&gt;1 -->
<g id="edge17" class="edge">
<title>0&#45;&gt;1</title>
<path fill="none" stroke="black" d="M378.65,-504.76C374.38,-496.46 369.08,-486.15 364.27,-476.79"/>
<polygon fill="black" stroke="black" points="366.99,-475.44 359.3,-468.15 360.77,-478.64 366.99,-475.44"/>
</g>
<!-- 25 -->
<g id="node19" class="node">
<title>25</title>
<ellipse fill="none" stroke="black" cx="423" cy="-450" rx="27" ry="18"/>
<text text-anchor="middle" x="423" y="-446.3" font-family="Times,serif" font-size="14.00">^</text>
</g>
<!-- 0&#45;&gt;25 -->
<g id="edge21" class="edge">
<title>0&#45;&gt;25</title>
<path fill="none" stroke="black" d="M395.35,-504.76C399.62,-496.46 404.92,-486.15 409.73,-476.79"/>
<polygon fill="black" stroke="black" points="413.23,-478.64 414.7,-468.15 407.01,-475.44 413.23,-478.64"/>
</g>
<!-- 2 -->
<g id="node3" class="node">
<title>2</title>
<ellipse fill="none" stroke="black" cx="279" cy="-378" rx="27" ry="18"/>
<text text-anchor="middle" x="279" y="-374.3" font-family="Times,serif" font-size="14.00">*</text>
</g>
<!-- 1&#45;&gt;2 -->
<g id="edge14" class="edge">
<title>1&#45;&gt;2</title>
<path fill="none" stroke="black" d="M336.08,-434.5C326.14,-424.83 312.88,-411.94 301.65,-401.02"/>
<polygon fill="black" stroke="black" points="304.51,-398.95 294.9,-394.49 299.63,-403.97 304.51,-398.95"/>
</g>
<!-- 22 -->
<g id="node17" class="node">
<title>22</title>
<ellipse fill="none" stroke="black" cx="351" cy="-378" rx="27" ry="18"/>
<text text-anchor="middle" x="351" y="-374.3" font-family="Times,serif" font-size="14.00">cos</text>
</g>
<!-- 1&#45;&gt;22 -->
<g id="edge16" class="edge">
<title>1&#45;&gt;22</title>
<path fill="none" stroke="black" d="M351,-431.7C351,-424.24 351,-415.32 351,-406.97"/>
<polygon fill="black" stroke="black" points="354.5,-407.1 351,-397.1 347.5,-407.1 354.5,-407.1"/>
</g>
<!-- 3 -->
<g id="node4" class="node">
<title>3</title>
<ellipse fill="none" stroke="black" cx="207" cy="-306" rx="27" ry="18"/>
<text text-anchor="middle" x="207" y="-302.3" font-family="Times,serif" font-size="14.00">*</text>
</g>
<!-- 2&#45;&gt;3 -->
<g id="edge11" class="edge">
<title>2&#45;&gt;3</title>
<path fill="none" stroke="black" d="M264.08,-362.5C254.14,-352.83 240.88,-339.94 229.65,-329.02"/>
<polygon fill="black" stroke="black" points="232.51,-326.95 222.9,-322.49 227.63,-331.97 232.51,-326.95"/>
</g>
<!-- 19 -->
<g id="node15" class="node">
<title>19</title>
<ellipse fill="none" stroke="black" cx="279" cy="-306" rx="27" ry="18"/>
<text text-anchor="middle" x="279" y="-302.3" font-family="Times,serif" font-size="14.00">sin</text>
</g>
<!-- 2&#45;&gt;19 -->
<g id="edge13" class="edge">
<title>2&#45;&gt;19</title>
<path fill="none" stroke="black" d="M279,-359.7C279,-352.24 279,-343.32 279,-334.97"/>
<polygon fill="black" stroke="black" points="282.5,-335.1 279,-325.1 275.5,-335.1 282.5,-335.1"/>
</g>
<!-- 4 -->
<g id="node5" class="node">
<title>4</title>
<ellipse fill="none" stroke="black" cx="135" cy="-234" rx="27" ry="18"/>
<text text-anchor="middle" x="135" y="-230.3" font-family="Times,serif" font-size="14.00">^</text>
</g>
<!-- 3&#45;&gt;4 -->
<g id="edge6" class="edge">
<title>3&#45;&gt;4</title>
<path fill="none" stroke="black" d="M192.08,-290.5C182.14,-280.83 168.88,-267.94 157.65,-257.02"/>
<polygon fill="black" stroke="black" points="160.51,-254.95 150.9,-250.49 155.63,-259.97 160.51,-254.95"/>
</g>
<!-- 13 -->
<g id="node11" class="node">
<title>13</title>
<ellipse fill="none" stroke="black" cx="207" cy="-234" rx="27" ry="18"/>
<text text-anchor="middle" x="207" y="-230.3" font-family="Times,serif" font-size="14.00">^</text>
</g>
<!-- 3&#45;&gt;13 -->
<g id="edge10" class="edge">
<title>3&#45;&gt;13</title>
<path fill="none" stroke="black" d="M207,-287.7C207,-280.24 207,-271.32 207,-262.97"/>
<polygon fill="black" stroke="black" points="210.5,-263.1 207,-253.1 203.5,-263.1 210.5,-263.1"/>
</g>
<!-- 5 -->
<g id="node6" class="node">
<title>5</title>
<ellipse fill="none" stroke="black" cx="63" cy="-162" rx="27" ry="18"/>
<text text-anchor="middle" x="63" y="-158.3" font-family="Times,serif" font-size="14.00">sin</text>
</g>
<!-- 4&#45;&gt;5 -->
<g id="edge4" class="edge">
<title>4&#45;&gt;5</title>
<path fill="none" stroke="black" d="M120.08,-218.5C110.14,-208.83 96.88,-195.94 85.65,-185.02"/>
<polygon fill="black" stroke="black" points="88.51,-182.95 78.9,-178.49 83.63,-187.97 88.51,-182.95"/>
</g>
<!-- 11 -->
<g id="node10" class="node">
<title>11</title>
<ellipse fill="none" stroke="black" cx="135" cy="-162" rx="27" ry="18"/>
<text text-anchor="middle" x="135" y="-158.3" font-family="Times,serif" font-size="14.00">2</text>
</g>
<!-- 4&#45;&gt;11 -->
<g id="edge5" class="edge">
<title>4&#45;&gt;11</title>
<path fill="none" stroke="black" d="M135,-215.7C135,-208.24 135,-199.32 135,-190.97"/>
<polygon fill="black" stroke="black" points="138.5,-191.1 135,-181.1 131.5,-191.1 138.5,-191.1"/>
</g>
<!-- 6 -->
<g id="node7" class="node">
<title>6</title>
<ellipse fill="none" stroke="black" cx="63" cy="-90" rx="27" ry="18"/>
<text text-anchor="middle" x="63" y="-86.3" font-family="Times,serif" font-size="14.00">*</text>
</g>
<!-- 5&#45;&gt;6 -->
<g id="edge3" class="edge">
<title>5&#45;&gt;6</title>
<path fill="none" stroke="black" d="M63,-143.7C63,-136.24 63,-127.32 63,-118.97"/>
<polygon fill="black" stroke="black" points="66.5,-119.1 63,-109.1 59.5,-119.1 66.5,-119.1"/>
</g>
<!-- 7 -->
<g id="node8" class="node">
<title>7</title>
<ellipse fill="none" stroke="black" cx="27" cy="-18" rx="27" ry="18"/>
<text text-anchor="middle" x="27" y="-14.3" font-family="Times,serif" font-size="14.00">2</text>
</g>
<!-- 6&#45;&gt;7 -->
<g id="edge1" class="edge">
<title>6&#45;&gt;7</title>
<path fill="none" stroke="black" d="M54.65,-72.76C50.38,-64.46 45.08,-54.15 40.27,-44.79"/>
<polygon fill="black" stroke="black" points="42.99,-43.44 35.3,-36.15 36.77,-46.64 42.99,-43.44"/>
</g>
<!-- 9 -->
<g id="node9" class="node">
<title>9</title>
<ellipse fill="none" stroke="black" cx="99" cy="-18" rx="27" ry="18"/>
<text text-anchor="middle" x="99" y="-14.3" font-family="Times,serif" font-size="14.00">x</text>
</g>
<!-- 6&#45;&gt;9 -->
<g id="edge2" class="edge">
<title>6&#45;&gt;9</title>
<path fill="none" stroke="black" d="M71.35,-72.76C75.62,-64.46 80.92,-54.15 85.73,-44.79"/>
<polygon fill="black" stroke="black" points="89.23,-46.64 90.7,-36.15 83.01,-43.44 89.23,-46.64"/>
</g>
<!-- 14 -->
<g id="node12" class="node">
<title>14</title>
<ellipse fill="none" stroke="black" cx="207" cy="-162" rx="27" ry="18"/>
<text text-anchor="middle" x="207" y="-158.3" font-family="Times,serif" font-size="14.00">sin</text>
</g>
<!-- 13&#45;&gt;14 -->
<g id="edge8" class="edge">
<title>13&#45;&gt;14</title>
<path fill="none" stroke="black" d="M207,-215.7C207,-208.24 207,-199.32 207,-190.97"/>
<polygon fill="black" stroke="black" points="210.5,-191.1 207,-181.1 203.5,-191.1 210.5,-191.1"/>
</g>
<!-- 17 -->
<g id="node14" class="node">
<title>17</title>
<ellipse fill="none" stroke="black" cx="279" cy="-162" rx="27" ry="18"/>
<text text-anchor="middle" x="279" y="-158.3" font-family="Times,serif" font-size="14.00">20</text>
</g>
<!-- 13&#45;&gt;17 -->
<g id="edge9" class="edge">
<title>13&#45;&gt;17</title>
<path fill="none" stroke="black" d="M221.92,-218.5C231.86,-208.83 245.12,-195.94 256.35,-185.02"/>
<polygon fill="black" stroke="black" points="258.37,-187.97 263.1,-178.49 253.49,-182.95 258.37,-187.97"/>
</g>
<!-- 15 -->
<g id="node13" class="node">
<title>15</title>
<ellipse fill="none" stroke="black" cx="207" cy="-90" rx="27" ry="18"/>
<text text-anchor="middle" x="207" y="-86.3" font-family="Times,serif" font-size="14.00">x</text>
</g>
<!-- 14&#45;&gt;15 -->
<g id="edge7" class="edge">
<title>14&#45;&gt;15</title>
<path fill="none" stroke="black" d="M207,-143.7C207,-136.24 207,-127.32 207,-118.97"/>
<polygon fill="black" stroke="black" points="210.5,-119.1 207,-109.1 203.5,-119.1 210.5,-119.1"/>
</g>
<!-- 20 -->
<g id="node16" class="node">
<title>20</title>
<ellipse fill="none" stroke="black" cx="279" cy="-234" rx="27" ry="18"/>
<text text-anchor="middle" x="279" y="-230.3" font-family="Times,serif" font-size="14.00">x</text>
</g>
<!-- 19&#45;&gt;20 -->
<g id="edge12" class="edge">
<title>19&#45;&gt;20</title>
<path fill="none" stroke="black" d="M279,-287.7C279,-280.24 279,-271.32 279,-262.97"/>
<polygon fill="black" stroke="black" points="282.5,-263.1 279,-253.1 275.5,-263.1 282.5,-263.1"/>
</g>
<!-- 23 -->
<g id="node18" class="node">
<title>23</title>
<ellipse fill="none" stroke="black" cx="351" cy="-306" rx="27" ry="18"/>
<text text-anchor="middle" x="351" y="-302.3" font-family="Times,serif" font-size="14.00">x</text>
</g>
<!-- 22&#45;&gt;23 -->
<g id="edge15" class="edge">
<title>22&#45;&gt;23</title>
<path fill="none" stroke="black" d="M351,-359.7C351,-352.24 351,-343.32 351,-334.97"/>
<polygon fill="black" stroke="black" points="354.5,-335.1 351,-325.1 347.5,-335.1 354.5,-335.1"/>
</g>
<!-- 26 -->
<g id="node20" class="node">
<title>26</title>
<ellipse fill="none" stroke="black" cx="423" cy="-378" rx="27" ry="18"/>
<text text-anchor="middle" x="423" y="-374.3" font-family="Times,serif" font-size="14.00">cos</text>
</g>
<!-- 25&#45;&gt;26 -->
<g id="edge19" class="edge">
<title>25&#45;&gt;26</title>
<path fill="none" stroke="black" d="M423,-431.7C423,-424.24 423,-415.32 423,-406.97"/>
<polygon fill="black" stroke="black" points="426.5,-407.1 423,-397.1 419.5,-407.1 426.5,-407.1"/>
</g>
<!-- 29 -->
<g id="node22" class="node">
<title>29</title>
<ellipse fill="none" stroke="black" cx="495" cy="-378" rx="27" ry="18"/>
<text text-anchor="middle" x="495" y="-374.3" font-family="Times,serif" font-size="14.00">&#45;23</text>
</g>
<!-- 25&#45;&gt;29 -->
<g id="edge20" class="edge">
<title>25&#45;&gt;29</title>
<path fill="none" stroke="black" d="M437.92,-434.5C447.86,-424.83 461.12,-411.94 472.35,-401.02"/>
<polygon fill="black" stroke="black" points="474.37,-403.97 479.1,-394.49 469.49,-398.95 474.37,-403.97"/>
</g>
<!-- 27 -->
<g id="node21" class="node">
<title>27</title>
<ellipse fill="none" stroke="black" cx="423" cy="-306" rx="27" ry="18"/>
<text text-anchor="middle" x="423" y="-302.3" font-family="Times,serif" font-size="14.00">x</text>
</g>
<!-- 26&#45;&gt;27 -->
<g id="edge18" class="edge">
<title>26&#45;&gt;27</title>
<path fill="none" stroke="black" d="M423,-359.7C423,-352.24 423,-343.32 423,-334.97"/>
<polygon fill="black" stroke="black" points="426.5,-335.1 423,-325.1 419.5,-335.1 426.5,-335.1"/>
</g>
</g>
</svg>
