<?xml version="1.0" encoding="UTF-8" standalone="no"?>
<!DOCTYPE svg PUBLIC "-//W3C//DTD SVG 1.1//EN"
 "http://www.w3.org/Graphics/SVG/1.1/DTD/svg11.dtd">
<!-- Generated by graphviz version 8.0.1 (20230327.1645)
 -->
<!-- Title: G Pages: 1 -->
<svg width="494pt" height="476pt"
 viewBox="0.00 0.00 494.00 476.00" xmlns="http://www.w3.org/2000/svg" xmlns:xlink="http://www.w3.org/1999/xlink">
<g id="graph0" class="graph" transform="scale(1 1) rotate(0) translate(4 472)">
<title>G</title>
<polygon fill="white" stroke="none" points="-4,4 -4,-472 490,-472 490,4 -4,4"/>
<!-- 0 -->
<g id="node1" class="node">
<title>0</title>
<ellipse fill="none" stroke="black" cx="279" cy="-450" rx="27" ry="18"/>
<text text-anchor="middle" x="279" y="-446.3" font-family="Times,serif" font-size="14.00">+</text>
</g>
<!-- 1 -->
<g id="node2" class="node">
<title>1</title>
<ellipse fill="none" stroke="black" cx="243" cy="-378" rx="27" ry="18"/>
<text text-anchor="middle" x="243" y="-374.3" font-family="Times,serif" font-size="14.00">*</text>
</g>
<!-- 0&#45;&gt;1 -->
<g id="edge11" class="edge">
<title>0&#45;&gt;1</title>
<path fill="none" stroke="black" d="M270.65,-432.76C266.38,-424.46 261.08,-414.15 256.27,-404.79"/>
<polygon fill="black" stroke="black" points="258.99,-403.44 251.3,-396.15 252.77,-406.64 258.99,-403.44"/>
</g>
<!-- 18 -->
<g id="node13" class="node">
<title>18</title>
<ellipse fill="none" stroke="black" cx="315" cy="-378" rx="27" ry="18"/>
<text text-anchor="middle" x="315" y="-374.3" font-family="Times,serif" font-size="14.00">*</text>
</g>
<!-- 0&#45;&gt;18 -->
<g id="edge18" class="edge">
<title>0&#45;&gt;18</title>
<path fill="none" stroke="black" d="M287.35,-432.76C291.62,-424.46 296.92,-414.15 301.73,-404.79"/>
<polygon fill="black" stroke="black" points="305.23,-406.64 306.7,-396.15 299.01,-403.44 305.23,-406.64"/>
</g>
<!-- 2 -->
<g id="node3" class="node">
<title>2</title>
<ellipse fill="none" stroke="black" cx="171" cy="-306" rx="27" ry="18"/>
<text text-anchor="middle" x="171" y="-302.3" font-family="Times,serif" font-size="14.00">+</text>
</g>
<!-- 1&#45;&gt;2 -->
<g id="edge9" class="edge">
<title>1&#45;&gt;2</title>
<path fill="none" stroke="black" d="M228.08,-362.5C218.14,-352.83 204.88,-339.94 193.65,-329.02"/>
<polygon fill="black" stroke="black" points="196.51,-326.95 186.9,-322.49 191.63,-331.97 196.51,-326.95"/>
</g>
<!-- 16 -->
<g id="node12" class="node">
<title>16</title>
<ellipse fill="none" stroke="black" cx="243" cy="-306" rx="27" ry="18"/>
<text text-anchor="middle" x="243" y="-302.3" font-family="Times,serif" font-size="14.00">x</text>
</g>
<!-- 1&#45;&gt;16 -->
<g id="edge10" class="edge">
<title>1&#45;&gt;16</title>
<path fill="none" stroke="black" d="M243,-359.7C243,-352.24 243,-343.32 243,-334.97"/>
<polygon fill="black" stroke="black" points="246.5,-335.1 243,-325.1 239.5,-335.1 246.5,-335.1"/>
</g>
<!-- 3 -->
<g id="node4" class="node">
<title>3</title>
<ellipse fill="none" stroke="black" cx="99" cy="-234" rx="27" ry="18"/>
<text text-anchor="middle" x="99" y="-230.3" font-family="Times,serif" font-size="14.00">*</text>
</g>
<!-- 2&#45;&gt;3 -->
<g id="edge7" class="edge">
<title>2&#45;&gt;3</title>
<path fill="none" stroke="black" d="M156.08,-290.5C146.14,-280.83 132.88,-267.94 121.65,-257.02"/>
<polygon fill="black" stroke="black" points="124.51,-254.95 114.9,-250.49 119.63,-259.97 124.51,-254.95"/>
</g>
<!-- 14 -->
<g id="node11" class="node">
<title>14</title>
<ellipse fill="none" stroke="black" cx="171" cy="-234" rx="27" ry="18"/>
<text text-anchor="middle" x="171" y="-230.3" font-family="Times,serif" font-size="14.00">y</text>
</g>
<!-- 2&#45;&gt;14 -->
<g id="edge8" class="edge">
<title>2&#45;&gt;14</title>
<path fill="none" stroke="black" d="M171,-287.7C171,-280.24 171,-271.32 171,-262.97"/>
<polygon fill="black" stroke="black" points="174.5,-263.1 171,-253.1 167.5,-263.1 174.5,-263.1"/>
</g>
<!-- 4 -->
<g id="node5" class="node">
<title>4</title>
<ellipse fill="none" stroke="black" cx="63" cy="-162" rx="27" ry="18"/>
<text text-anchor="middle" x="63" y="-158.3" font-family="Times,serif" font-size="14.00">+</text>
</g>
<!-- 3&#45;&gt;4 -->
<g id="edge5" class="edge">
<title>3&#45;&gt;4</title>
<path fill="none" stroke="black" d="M90.65,-216.76C86.38,-208.46 81.08,-198.15 76.27,-188.79"/>
<polygon fill="black" stroke="black" points="78.99,-187.44 71.3,-180.15 72.77,-190.64 78.99,-187.44"/>
</g>
<!-- 12 -->
<g id="node10" class="node">
<title>12</title>
<ellipse fill="none" stroke="black" cx="135" cy="-162" rx="27" ry="18"/>
<text text-anchor="middle" x="135" y="-158.3" font-family="Times,serif" font-size="14.00">y</text>
</g>
<!-- 3&#45;&gt;12 -->
<g id="edge6" class="edge">
<title>3&#45;&gt;12</title>
<path fill="none" stroke="black" d="M107.35,-216.76C111.62,-208.46 116.92,-198.15 121.73,-188.79"/>
<polygon fill="black" stroke="black" points="125.23,-190.64 126.7,-180.15 119.01,-187.44 125.23,-190.64"/>
</g>
<!-- 5 -->
<g id="node6" class="node">
<title>5</title>
<ellipse fill="none" stroke="black" cx="27" cy="-90" rx="27" ry="18"/>
<text text-anchor="middle" x="27" y="-86.3" font-family="Times,serif" font-size="14.00">8</text>
</g>
<!-- 4&#45;&gt;5 -->
<g id="edge1" class="edge">
<title>4&#45;&gt;5</title>
<path fill="none" stroke="black" d="M54.65,-144.76C50.38,-136.46 45.08,-126.15 40.27,-116.79"/>
<polygon fill="black" stroke="black" points="42.99,-115.44 35.3,-108.15 36.77,-118.64 42.99,-115.44"/>
</g>
<!-- 7 -->
<g id="node7" class="node">
<title>7</title>
<ellipse fill="none" stroke="black" cx="99" cy="-90" rx="27" ry="18"/>
<text text-anchor="middle" x="99" y="-86.3" font-family="Times,serif" font-size="14.00">*</text>
</g>
<!-- 4&#45;&gt;7 -->
<g id="edge4" class="edge">
<title>4&#45;&gt;7</title>
<path fill="none" stroke="black" d="M71.35,-144.76C75.62,-136.46 80.92,-126.15 85.73,-116.79"/>
<polygon fill="black" stroke="black" points="89.23,-118.64 90.7,-108.15 83.01,-115.44 89.23,-118.64"/>
</g>
<!-- 8 -->
<g id="node8" class="node">
<title>8</title>
<ellipse fill="none" stroke="black" cx="63" cy="-18" rx="27" ry="18"/>
<text text-anchor="middle" x="63" y="-14.3" font-family="Times,serif" font-size="14.00">a</text>
</g>
<!-- 7&#45;&gt;8 -->
<g id="edge2" class="edge">
<title>7&#45;&gt;8</title>
<path fill="none" stroke="black" d="M90.65,-72.76C86.38,-64.46 81.08,-54.15 76.27,-44.79"/>
<polygon fill="black" stroke="black" points="78.99,-43.44 71.3,-36.15 72.77,-46.64 78.99,-43.44"/>
</g>
<!-- 10 -->
<g id="node9" class="node">
<title>10</title>
<ellipse fill="none" stroke="black" cx="135" cy="-18" rx="27" ry="18"/>
<text text-anchor="middle" x="135" y="-14.3" font-family="Times,serif" font-size="14.00">b</text>
</g>
<!-- 7&#45;&gt;10 -->
<g id="edge3" class="edge">
<title>7&#45;&gt;10</title>
<path fill="none" stroke="black" d="M107.35,-72.76C111.62,-64.46 116.92,-54.15 121.73,-44.79"/>
<polygon fill="black" stroke="black" points="125.23,-46.64 126.7,-36.15 119.01,-43.44 125.23,-46.64"/>
</g>
<!-- 19 -->
<g id="node14" class="node">
<title>19</title>
<ellipse fill="none" stroke="black" cx="315" cy="-306" rx="27" ry="18"/>
<text text-anchor="middle" x="315" y="-302.3" font-family="Times,serif" font-size="14.00">*</text>
</g>
<!-- 18&#45;&gt;19 -->
<g id="edge14" class="edge">
<title>18&#45;&gt;19</title>
<path fill="none" stroke="black" d="M315,-359.7C315,-352.24 315,-343.32 315,-334.97"/>
<polygon fill="black" stroke="black" points="318.5,-335.1 315,-325.1 311.5,-335.1 318.5,-335.1"/>
</g>
<!-- 24 -->
<g id="node17" class="node">
<title>24</title>
<ellipse fill="none" stroke="black" cx="387" cy="-306" rx="27" ry="18"/>
<text text-anchor="middle" x="387" y="-302.3" font-family="Times,serif" font-size="14.00">*</text>
</g>
<!-- 18&#45;&gt;24 -->
<g id="edge17" class="edge">
<title>18&#45;&gt;24</title>
<path fill="none" stroke="black" d="M329.92,-362.5C339.86,-352.83 353.12,-339.94 364.35,-329.02"/>
<polygon fill="black" stroke="black" points="366.37,-331.97 371.1,-322.49 361.49,-326.95 366.37,-331.97"/>
</g>
<!-- 20 -->
<g id="node15" class="node">
<title>20</title>
<ellipse fill="none" stroke="black" cx="243" cy="-234" rx="27" ry="18"/>
<text text-anchor="middle" x="243" y="-230.3" font-family="Times,serif" font-size="14.00">y</text>
</g>
<!-- 19&#45;&gt;20 -->
<g id="edge12" class="edge">
<title>19&#45;&gt;20</title>
<path fill="none" stroke="black" d="M300.08,-290.5C290.14,-280.83 276.88,-267.94 265.65,-257.02"/>
<polygon fill="black" stroke="black" points="268.51,-254.95 258.9,-250.49 263.63,-259.97 268.51,-254.95"/>
</g>
<!-- 22 -->
<g id="node16" class="node">
<title>22</title>
<ellipse fill="none" stroke="black" cx="315" cy="-234" rx="27" ry="18"/>
<text text-anchor="middle" x="315" y="-230.3" font-family="Times,serif" font-size="14.00">b</text>
</g>
<!-- 19&#45;&gt;22 -->
<g id="edge13" class="edge">
<title>19&#45;&gt;22</title>
<path fill="none" stroke="black" d="M315,-287.7C315,-280.24 315,-271.32 315,-262.97"/>
<polygon fill="black" stroke="black" points="318.5,-263.1 315,-253.1 311.5,-263.1 318.5,-263.1"/>
</g>
<!-- 25 -->
<g id="node18" class="node">
<title>25</title>
<ellipse fill="none" stroke="black" cx="387" cy="-234" rx="27" ry="18"/>
<text text-anchor="middle" x="387" y="-230.3" font-family="Times,serif" font-size="14.00">a</text>
</g>
<!-- 24&#45;&gt;25 -->
<g id="edge15" class="edge">
<title>24&#45;&gt;25</title>
<path fill="none" stroke="black" d="M387,-287.7C387,-280.24 387,-271.32 387,-262.97"/>
<polygon fill="black" stroke="black" points="390.5,-263.1 387,-253.1 383.5,-263.1 390.5,-263.1"/>
</g>
<!-- 27 -->
<g id="node19" class="node">
<title>27</title>
<ellipse fill="none" stroke="black" cx="459" cy="-234" rx="27" ry="18"/>
<text text-anchor="middle" x="459" y="-230.3" font-family="Times,serif" font-size="14.00">x</text>
</g>
<!-- 24&#45;&gt;27 -->
<g id="edge16" class="edge">
<title>24&#45;&gt;27</title>
<path fill="none" stroke="black" d="M401.92,-290.5C411.86,-280.83 425.12,-267.94 436.35,-257.02"/>
<polygon fill="black" stroke="black" points="438.37,-259.97 443.1,-250.49 433.49,-254.95 438.37,-259.97"/>
</g>
</g>
</svg>
