<?xml version="1.0" encoding="UTF-8" standalone="no"?>
<!DOCTYPE svg PUBLIC "-//W3C//DTD SVG 1.1//EN"
 "http://www.w3.org/Graphics/SVG/1.1/DTD/svg11.dtd">
<!-- Generated by graphviz version 8.0.1 (20230327.1645)
 -->
<!-- Title: G Pages: 1 -->
<svg width="818pt" height="692pt"
 viewBox="0.00 0.00 818.00 692.00" xmlns="http://www.w3.org/2000/svg" xmlns:xlink="http://www.w3.org/1999/xlink">
<g id="graph0" class="graph" transform="scale(1 1) rotate(0) translate(4 688)">
<title>G</title>
<polygon fill="white" stroke="none" points="-4,4 -4,-688 814,-688 814,4 -4,4"/>
<!-- 0 -->
<g id="node1" class="node">
<title>0</title>
<ellipse fill="none" stroke="black" cx="378" cy="-666" rx="27" ry="18"/>
<text text-anchor="middle" x="378" y="-662.3" font-family="Times,serif" font-size="14.00">+</text>
</g>
<!-- 1 -->
<g id="node2" class="node">
<title>1</title>
<ellipse fill="none" stroke="black" cx="270" cy="-594" rx="27" ry="18"/>
<text text-anchor="middle" x="270" y="-590.3" font-family="Times,serif" font-size="14.00">*</text>
</g>
<!-- 0&#45;&gt;1 -->
<g id="edge21" class="edge">
<title>0&#45;&gt;1</title>
<path fill="none" stroke="black" d="M359.19,-652.81C342.33,-641.88 317.38,-625.71 298.15,-613.24"/>
<polygon fill="black" stroke="black" points="300.25,-609.79 289.96,-607.29 296.45,-615.66 300.25,-609.79"/>
</g>
<!-- 33 -->
<g id="node23" class="node">
<title>33</title>
<ellipse fill="none" stroke="black" cx="468" cy="-594" rx="27" ry="18"/>
<text text-anchor="middle" x="468" y="-590.3" font-family="Times,serif" font-size="14.00">*</text>
</g>
<!-- 0&#45;&gt;33 -->
<g id="edge54" class="edge">
<title>0&#45;&gt;33</title>
<path fill="none" stroke="black" d="M394.93,-651.83C408.29,-641.44 427.16,-626.76 442.37,-614.93"/>
<polygon fill="black" stroke="black" points="444.1,-617.25 449.84,-608.35 439.8,-611.72 444.1,-617.25"/>
</g>
<!-- 2 -->
<g id="node3" class="node">
<title>2</title>
<ellipse fill="none" stroke="black" cx="153" cy="-522" rx="27" ry="18"/>
<text text-anchor="middle" x="153" y="-518.3" font-family="Times,serif" font-size="14.00">*</text>
</g>
<!-- 1&#45;&gt;2 -->
<g id="edge9" class="edge">
<title>1&#45;&gt;2</title>
<path fill="none" stroke="black" d="M250.42,-581.28C231.69,-570.08 203.22,-553.05 181.89,-540.28"/>
<polygon fill="black" stroke="black" points="184.03,-536.89 173.65,-534.75 180.43,-542.89 184.03,-536.89"/>
</g>
<!-- 16 -->
<g id="node12" class="node">
<title>16</title>
<ellipse fill="none" stroke="black" cx="270" cy="-522" rx="27" ry="18"/>
<text text-anchor="middle" x="270" y="-518.3" font-family="Times,serif" font-size="14.00">^</text>
</g>
<!-- 1&#45;&gt;16 -->
<g id="edge20" class="edge">
<title>1&#45;&gt;16</title>
<path fill="none" stroke="black" d="M270,-575.7C270,-568.24 270,-559.32 270,-550.97"/>
<polygon fill="black" stroke="black" points="273.5,-551.1 270,-541.1 266.5,-551.1 273.5,-551.1"/>
</g>
<!-- 3 -->
<g id="node4" class="node">
<title>3</title>
<ellipse fill="none" stroke="black" cx="81" cy="-450" rx="27" ry="18"/>
<text text-anchor="middle" x="81" y="-446.3" font-family="Times,serif" font-size="14.00">&#45;1</text>
</g>
<!-- 2&#45;&gt;3 -->
<g id="edge1" class="edge">
<title>2&#45;&gt;3</title>
<path fill="none" stroke="black" d="M138.08,-506.5C128.14,-496.83 114.88,-483.94 103.65,-473.02"/>
<polygon fill="black" stroke="black" points="106.51,-470.95 96.9,-466.49 101.63,-475.97 106.51,-470.95"/>
</g>
<!-- 5 -->
<g id="node5" class="node">
<title>5</title>
<ellipse fill="none" stroke="black" cx="153" cy="-450" rx="27" ry="18"/>
<text text-anchor="middle" x="153" y="-446.3" font-family="Times,serif" font-size="14.00">*</text>
</g>
<!-- 2&#45;&gt;5 -->
<g id="edge8" class="edge">
<title>2&#45;&gt;5</title>
<path fill="none" stroke="black" d="M153,-503.7C153,-496.24 153,-487.32 153,-478.97"/>
<polygon fill="black" stroke="black" points="156.5,-479.1 153,-469.1 149.5,-479.1 156.5,-479.1"/>
</g>
<!-- 6 -->
<g id="node6" class="node">
<title>6</title>
<ellipse fill="none" stroke="black" cx="81" cy="-378" rx="27" ry="18"/>
<text text-anchor="middle" x="81" y="-374.3" font-family="Times,serif" font-size="14.00">^</text>
</g>
<!-- 5&#45;&gt;6 -->
<g id="edge6" class="edge">
<title>5&#45;&gt;6</title>
<path fill="none" stroke="black" d="M138.08,-434.5C128.14,-424.83 114.88,-411.94 103.65,-401.02"/>
<polygon fill="black" stroke="black" points="106.51,-398.95 96.9,-394.49 101.63,-403.97 106.51,-398.95"/>
</g>
<!-- 14 -->
<g id="node11" class="node">
<title>14</title>
<ellipse fill="none" stroke="black" cx="153" cy="-378" rx="27" ry="18"/>
<text text-anchor="middle" x="153" y="-374.3" font-family="Times,serif" font-size="14.00">2</text>
</g>
<!-- 5&#45;&gt;14 -->
<g id="edge7" class="edge">
<title>5&#45;&gt;14</title>
<path fill="none" stroke="black" d="M153,-431.7C153,-424.24 153,-415.32 153,-406.97"/>
<polygon fill="black" stroke="black" points="156.5,-407.1 153,-397.1 149.5,-407.1 156.5,-407.1"/>
</g>
<!-- 7 -->
<g id="node7" class="node">
<title>7</title>
<ellipse fill="none" stroke="black" cx="27" cy="-306" rx="27" ry="18"/>
<text text-anchor="middle" x="27" y="-302.3" font-family="Times,serif" font-size="14.00">e</text>
</g>
<!-- 6&#45;&gt;7 -->
<g id="edge2" class="edge">
<title>6&#45;&gt;7</title>
<path fill="none" stroke="black" d="M69.02,-361.46C62.09,-352.49 53.24,-341.02 45.45,-330.92"/>
<polygon fill="black" stroke="black" points="47.83,-329.27 38.95,-323.49 42.29,-333.55 47.83,-329.27"/>
</g>
<!-- 9 -->
<g id="node8" class="node">
<title>9</title>
<ellipse fill="none" stroke="black" cx="99" cy="-306" rx="27" ry="18"/>
<text text-anchor="middle" x="99" y="-302.3" font-family="Times,serif" font-size="14.00">*</text>
</g>
<!-- 6&#45;&gt;9 -->
<g id="edge5" class="edge">
<title>6&#45;&gt;9</title>
<path fill="none" stroke="black" d="M85.36,-360.05C87.35,-352.32 89.75,-342.96 91.99,-334.27"/>
<polygon fill="black" stroke="black" points="95.58,-335.35 94.68,-324.79 88.8,-333.6 95.58,-335.35"/>
</g>
<!-- 10 -->
<g id="node9" class="node">
<title>10</title>
<ellipse fill="none" stroke="black" cx="45" cy="-234" rx="27" ry="18"/>
<text text-anchor="middle" x="45" y="-230.3" font-family="Times,serif" font-size="14.00">2</text>
</g>
<!-- 9&#45;&gt;10 -->
<g id="edge3" class="edge">
<title>9&#45;&gt;10</title>
<path fill="none" stroke="black" d="M87.02,-289.46C80.09,-280.49 71.24,-269.02 63.45,-258.92"/>
<polygon fill="black" stroke="black" points="65.83,-257.27 56.95,-251.49 60.29,-261.55 65.83,-257.27"/>
</g>
<!-- 12 -->
<g id="node10" class="node">
<title>12</title>
<ellipse fill="none" stroke="black" cx="117" cy="-234" rx="27" ry="18"/>
<text text-anchor="middle" x="117" y="-230.3" font-family="Times,serif" font-size="14.00">x</text>
</g>
<!-- 9&#45;&gt;12 -->
<g id="edge4" class="edge">
<title>9&#45;&gt;12</title>
<path fill="none" stroke="black" d="M103.36,-288.05C105.35,-280.32 107.75,-270.96 109.99,-262.27"/>
<polygon fill="black" stroke="black" points="113.58,-263.35 112.68,-252.79 106.8,-261.6 113.58,-263.35"/>
</g>
<!-- 17 -->
<g id="node13" class="node">
<title>17</title>
<ellipse fill="none" stroke="black" cx="234" cy="-450" rx="27" ry="18"/>
<text text-anchor="middle" x="234" y="-446.3" font-family="Times,serif" font-size="14.00">+</text>
</g>
<!-- 16&#45;&gt;17 -->
<g id="edge18" class="edge">
<title>16&#45;&gt;17</title>
<path fill="none" stroke="black" d="M261.65,-504.76C257.38,-496.46 252.08,-486.15 247.27,-476.79"/>
<polygon fill="black" stroke="black" points="249.99,-475.44 242.3,-468.15 243.77,-478.64 249.99,-475.44"/>
</g>
<!-- 31 -->
<g id="node22" class="node">
<title>31</title>
<ellipse fill="none" stroke="black" cx="306" cy="-450" rx="27" ry="18"/>
<text text-anchor="middle" x="306" y="-446.3" font-family="Times,serif" font-size="14.00">&#45;1</text>
</g>
<!-- 16&#45;&gt;31 -->
<g id="edge19" class="edge">
<title>16&#45;&gt;31</title>
<path fill="none" stroke="black" d="M278.35,-504.76C282.62,-496.46 287.92,-486.15 292.73,-476.79"/>
<polygon fill="black" stroke="black" points="296.23,-478.64 297.7,-468.15 290.01,-475.44 296.23,-478.64"/>
</g>
<!-- 18 -->
<g id="node14" class="node">
<title>18</title>
<ellipse fill="none" stroke="black" cx="225" cy="-378" rx="27" ry="18"/>
<text text-anchor="middle" x="225" y="-374.3" font-family="Times,serif" font-size="14.00">*</text>
</g>
<!-- 17&#45;&gt;18 -->
<g id="edge16" class="edge">
<title>17&#45;&gt;18</title>
<path fill="none" stroke="black" d="M231.78,-431.7C230.82,-424.24 229.67,-415.32 228.6,-406.97"/>
<polygon fill="black" stroke="black" points="231.95,-406.58 227.2,-397.1 225,-407.47 231.95,-406.58"/>
</g>
<!-- 29 -->
<g id="node21" class="node">
<title>29</title>
<ellipse fill="none" stroke="black" cx="297" cy="-378" rx="27" ry="18"/>
<text text-anchor="middle" x="297" y="-374.3" font-family="Times,serif" font-size="14.00">9</text>
</g>
<!-- 17&#45;&gt;29 -->
<g id="edge17" class="edge">
<title>17&#45;&gt;29</title>
<path fill="none" stroke="black" d="M247.36,-434.15C255.8,-424.78 266.87,-412.48 276.41,-401.88"/>
<polygon fill="black" stroke="black" points="278.57,-404.6 282.66,-394.82 273.37,-399.92 278.57,-404.6"/>
</g>
<!-- 19 -->
<g id="node15" class="node">
<title>19</title>
<ellipse fill="none" stroke="black" cx="207" cy="-306" rx="27" ry="18"/>
<text text-anchor="middle" x="207" y="-302.3" font-family="Times,serif" font-size="14.00">&#45;1</text>
</g>
<!-- 18&#45;&gt;19 -->
<g id="edge10" class="edge">
<title>18&#45;&gt;19</title>
<path fill="none" stroke="black" d="M220.64,-360.05C218.65,-352.32 216.25,-342.96 214.01,-334.27"/>
<polygon fill="black" stroke="black" points="217.2,-333.6 211.32,-324.79 210.42,-335.35 217.2,-333.6"/>
</g>
<!-- 21 -->
<g id="node16" class="node">
<title>21</title>
<ellipse fill="none" stroke="black" cx="279" cy="-306" rx="27" ry="18"/>
<text text-anchor="middle" x="279" y="-302.3" font-family="Times,serif" font-size="14.00">^</text>
</g>
<!-- 18&#45;&gt;21 -->
<g id="edge15" class="edge">
<title>18&#45;&gt;21</title>
<path fill="none" stroke="black" d="M236.98,-361.46C243.91,-352.49 252.76,-341.02 260.55,-330.92"/>
<polygon fill="black" stroke="black" points="263.71,-333.55 267.05,-323.49 258.17,-329.27 263.71,-333.55"/>
</g>
<!-- 22 -->
<g id="node17" class="node">
<title>22</title>
<ellipse fill="none" stroke="black" cx="216" cy="-234" rx="27" ry="18"/>
<text text-anchor="middle" x="216" y="-230.3" font-family="Times,serif" font-size="14.00">e</text>
</g>
<!-- 21&#45;&gt;22 -->
<g id="edge11" class="edge">
<title>21&#45;&gt;22</title>
<path fill="none" stroke="black" d="M265.64,-290.15C257.2,-280.78 246.13,-268.48 236.59,-257.88"/>
<polygon fill="black" stroke="black" points="239.63,-255.92 230.34,-250.82 234.43,-260.6 239.63,-255.92"/>
</g>
<!-- 24 -->
<g id="node18" class="node">
<title>24</title>
<ellipse fill="none" stroke="black" cx="288" cy="-234" rx="27" ry="18"/>
<text text-anchor="middle" x="288" y="-230.3" font-family="Times,serif" font-size="14.00">*</text>
</g>
<!-- 21&#45;&gt;24 -->
<g id="edge14" class="edge">
<title>21&#45;&gt;24</title>
<path fill="none" stroke="black" d="M281.22,-287.7C282.18,-280.24 283.33,-271.32 284.4,-262.97"/>
<polygon fill="black" stroke="black" points="288,-263.47 285.8,-253.1 281.05,-262.58 288,-263.47"/>
</g>
<!-- 25 -->
<g id="node19" class="node">
<title>25</title>
<ellipse fill="none" stroke="black" cx="252" cy="-162" rx="27" ry="18"/>
<text text-anchor="middle" x="252" y="-158.3" font-family="Times,serif" font-size="14.00">2</text>
</g>
<!-- 24&#45;&gt;25 -->
<g id="edge12" class="edge">
<title>24&#45;&gt;25</title>
<path fill="none" stroke="black" d="M279.65,-216.76C275.38,-208.46 270.08,-198.15 265.27,-188.79"/>
<polygon fill="black" stroke="black" points="267.99,-187.44 260.3,-180.15 261.77,-190.64 267.99,-187.44"/>
</g>
<!-- 27 -->
<g id="node20" class="node">
<title>27</title>
<ellipse fill="none" stroke="black" cx="324" cy="-162" rx="27" ry="18"/>
<text text-anchor="middle" x="324" y="-158.3" font-family="Times,serif" font-size="14.00">x</text>
</g>
<!-- 24&#45;&gt;27 -->
<g id="edge13" class="edge">
<title>24&#45;&gt;27</title>
<path fill="none" stroke="black" d="M296.35,-216.76C300.62,-208.46 305.92,-198.15 310.73,-188.79"/>
<polygon fill="black" stroke="black" points="314.23,-190.64 315.7,-180.15 308.01,-187.44 314.23,-190.64"/>
</g>
<!-- 34 -->
<g id="node24" class="node">
<title>34</title>
<ellipse fill="none" stroke="black" cx="468" cy="-522" rx="27" ry="18"/>
<text text-anchor="middle" x="468" y="-518.3" font-family="Times,serif" font-size="14.00">+</text>
</g>
<!-- 33&#45;&gt;34 -->
<g id="edge30" class="edge">
<title>33&#45;&gt;34</title>
<path fill="none" stroke="black" d="M468,-575.7C468,-568.24 468,-559.32 468,-550.97"/>
<polygon fill="black" stroke="black" points="471.5,-551.1 468,-541.1 464.5,-551.1 471.5,-551.1"/>
</g>
<!-- 48 -->
<g id="node33" class="node">
<title>48</title>
<ellipse fill="none" stroke="black" cx="576" cy="-522" rx="27" ry="18"/>
<text text-anchor="middle" x="576" y="-518.3" font-family="Times,serif" font-size="14.00">*</text>
</g>
<!-- 33&#45;&gt;48 -->
<g id="edge53" class="edge">
<title>33&#45;&gt;48</title>
<path fill="none" stroke="black" d="M486.81,-580.81C503.67,-569.88 528.62,-553.71 547.85,-541.24"/>
<polygon fill="black" stroke="black" points="549.55,-543.66 556.04,-535.29 545.75,-537.79 549.55,-543.66"/>
</g>
<!-- 35 -->
<g id="node25" class="node">
<title>35</title>
<ellipse fill="none" stroke="black" cx="414" cy="-450" rx="27" ry="18"/>
<text text-anchor="middle" x="414" y="-446.3" font-family="Times,serif" font-size="14.00">*</text>
</g>
<!-- 34&#45;&gt;35 -->
<g id="edge28" class="edge">
<title>34&#45;&gt;35</title>
<path fill="none" stroke="black" d="M456.02,-505.46C449.09,-496.49 440.24,-485.02 432.45,-474.92"/>
<polygon fill="black" stroke="black" points="434.83,-473.27 425.95,-467.49 429.29,-477.55 434.83,-473.27"/>
</g>
<!-- 46 -->
<g id="node32" class="node">
<title>46</title>
<ellipse fill="none" stroke="black" cx="486" cy="-450" rx="27" ry="18"/>
<text text-anchor="middle" x="486" y="-446.3" font-family="Times,serif" font-size="14.00">9</text>
</g>
<!-- 34&#45;&gt;46 -->
<g id="edge29" class="edge">
<title>34&#45;&gt;46</title>
<path fill="none" stroke="black" d="M472.36,-504.05C474.35,-496.32 476.75,-486.96 478.99,-478.27"/>
<polygon fill="black" stroke="black" points="482.58,-479.35 481.68,-468.79 475.8,-477.6 482.58,-479.35"/>
</g>
<!-- 36 -->
<g id="node26" class="node">
<title>36</title>
<ellipse fill="none" stroke="black" cx="369" cy="-378" rx="27" ry="18"/>
<text text-anchor="middle" x="369" y="-374.3" font-family="Times,serif" font-size="14.00">&#45;1</text>
</g>
<!-- 35&#45;&gt;36 -->
<g id="edge22" class="edge">
<title>35&#45;&gt;36</title>
<path fill="none" stroke="black" d="M403.79,-433.12C398.27,-424.52 391.32,-413.72 385.08,-404.02"/>
<polygon fill="black" stroke="black" points="387.52,-402.34 379.17,-395.82 381.63,-406.13 387.52,-402.34"/>
</g>
<!-- 38 -->
<g id="node27" class="node">
<title>38</title>
<ellipse fill="none" stroke="black" cx="441" cy="-378" rx="27" ry="18"/>
<text text-anchor="middle" x="441" y="-374.3" font-family="Times,serif" font-size="14.00">^</text>
</g>
<!-- 35&#45;&gt;38 -->
<g id="edge27" class="edge">
<title>35&#45;&gt;38</title>
<path fill="none" stroke="black" d="M420.54,-432.05C423.55,-424.23 427.21,-414.75 430.59,-405.98"/>
<polygon fill="black" stroke="black" points="434.19,-407.38 434.52,-396.79 427.66,-404.86 434.19,-407.38"/>
</g>
<!-- 39 -->
<g id="node28" class="node">
<title>39</title>
<ellipse fill="none" stroke="black" cx="369" cy="-306" rx="27" ry="18"/>
<text text-anchor="middle" x="369" y="-302.3" font-family="Times,serif" font-size="14.00">e</text>
</g>
<!-- 38&#45;&gt;39 -->
<g id="edge23" class="edge">
<title>38&#45;&gt;39</title>
<path fill="none" stroke="black" d="M426.08,-362.5C416.14,-352.83 402.88,-339.94 391.65,-329.02"/>
<polygon fill="black" stroke="black" points="394.51,-326.95 384.9,-322.49 389.63,-331.97 394.51,-326.95"/>
</g>
<!-- 41 -->
<g id="node29" class="node">
<title>41</title>
<ellipse fill="none" stroke="black" cx="441" cy="-306" rx="27" ry="18"/>
<text text-anchor="middle" x="441" y="-302.3" font-family="Times,serif" font-size="14.00">*</text>
</g>
<!-- 38&#45;&gt;41 -->
<g id="edge26" class="edge">
<title>38&#45;&gt;41</title>
<path fill="none" stroke="black" d="M441,-359.7C441,-352.24 441,-343.32 441,-334.97"/>
<polygon fill="black" stroke="black" points="444.5,-335.1 441,-325.1 437.5,-335.1 444.5,-335.1"/>
</g>
<!-- 42 -->
<g id="node30" class="node">
<title>42</title>
<ellipse fill="none" stroke="black" cx="369" cy="-234" rx="27" ry="18"/>
<text text-anchor="middle" x="369" y="-230.3" font-family="Times,serif" font-size="14.00">2</text>
</g>
<!-- 41&#45;&gt;42 -->
<g id="edge24" class="edge">
<title>41&#45;&gt;42</title>
<path fill="none" stroke="black" d="M426.08,-290.5C416.14,-280.83 402.88,-267.94 391.65,-257.02"/>
<polygon fill="black" stroke="black" points="394.51,-254.95 384.9,-250.49 389.63,-259.97 394.51,-254.95"/>
</g>
<!-- 44 -->
<g id="node31" class="node">
<title>44</title>
<ellipse fill="none" stroke="black" cx="441" cy="-234" rx="27" ry="18"/>
<text text-anchor="middle" x="441" y="-230.3" font-family="Times,serif" font-size="14.00">x</text>
</g>
<!-- 41&#45;&gt;44 -->
<g id="edge25" class="edge">
<title>41&#45;&gt;44</title>
<path fill="none" stroke="black" d="M441,-287.7C441,-280.24 441,-271.32 441,-262.97"/>
<polygon fill="black" stroke="black" points="444.5,-263.1 441,-253.1 437.5,-263.1 444.5,-263.1"/>
</g>
<!-- 49 -->
<g id="node34" class="node">
<title>49</title>
<ellipse fill="none" stroke="black" cx="576" cy="-450" rx="27" ry="18"/>
<text text-anchor="middle" x="576" y="-446.3" font-family="Times,serif" font-size="14.00">*</text>
</g>
<!-- 48&#45;&gt;49 -->
<g id="edge43" class="edge">
<title>48&#45;&gt;49</title>
<path fill="none" stroke="black" d="M576,-503.7C576,-496.24 576,-487.32 576,-478.97"/>
<polygon fill="black" stroke="black" points="579.5,-479.1 576,-469.1 572.5,-479.1 579.5,-479.1"/>
</g>
<!-- 69 -->
<g id="node47" class="node">
<title>69</title>
<ellipse fill="none" stroke="black" cx="657" cy="-450" rx="27" ry="18"/>
<text text-anchor="middle" x="657" y="-446.3" font-family="Times,serif" font-size="14.00">*</text>
</g>
<!-- 48&#45;&gt;69 -->
<g id="edge52" class="edge">
<title>48&#45;&gt;69</title>
<path fill="none" stroke="black" d="M592,-507.17C603.65,-497.1 619.63,-483.29 632.83,-471.89"/>
<polygon fill="black" stroke="black" points="634.75,-473.99 640.03,-464.8 630.18,-468.69 634.75,-473.99"/>
</g>
<!-- 50 -->
<g id="node35" class="node">
<title>50</title>
<ellipse fill="none" stroke="black" cx="513" cy="-378" rx="27" ry="18"/>
<text text-anchor="middle" x="513" y="-374.3" font-family="Times,serif" font-size="14.00">&#45;1</text>
</g>
<!-- 49&#45;&gt;50 -->
<g id="edge31" class="edge">
<title>49&#45;&gt;50</title>
<path fill="none" stroke="black" d="M562.64,-434.15C554.2,-424.78 543.13,-412.48 533.59,-401.88"/>
<polygon fill="black" stroke="black" points="536.63,-399.92 527.34,-394.82 531.43,-404.6 536.63,-399.92"/>
</g>
<!-- 52 -->
<g id="node36" class="node">
<title>52</title>
<ellipse fill="none" stroke="black" cx="585" cy="-378" rx="27" ry="18"/>
<text text-anchor="middle" x="585" y="-374.3" font-family="Times,serif" font-size="14.00">^</text>
</g>
<!-- 49&#45;&gt;52 -->
<g id="edge42" class="edge">
<title>49&#45;&gt;52</title>
<path fill="none" stroke="black" d="M578.22,-431.7C579.18,-424.24 580.33,-415.32 581.4,-406.97"/>
<polygon fill="black" stroke="black" points="585,-407.47 582.8,-397.1 578.05,-406.58 585,-407.47"/>
</g>
<!-- 53 -->
<g id="node37" class="node">
<title>53</title>
<ellipse fill="none" stroke="black" cx="513" cy="-306" rx="27" ry="18"/>
<text text-anchor="middle" x="513" y="-302.3" font-family="Times,serif" font-size="14.00">+</text>
</g>
<!-- 52&#45;&gt;53 -->
<g id="edge40" class="edge">
<title>52&#45;&gt;53</title>
<path fill="none" stroke="black" d="M570.08,-362.5C560.14,-352.83 546.88,-339.94 535.65,-329.02"/>
<polygon fill="black" stroke="black" points="538.51,-326.95 528.9,-322.49 533.63,-331.97 538.51,-326.95"/>
</g>
<!-- 67 -->
<g id="node46" class="node">
<title>67</title>
<ellipse fill="none" stroke="black" cx="585" cy="-306" rx="27" ry="18"/>
<text text-anchor="middle" x="585" y="-302.3" font-family="Times,serif" font-size="14.00">&#45;2</text>
</g>
<!-- 52&#45;&gt;67 -->
<g id="edge41" class="edge">
<title>52&#45;&gt;67</title>
<path fill="none" stroke="black" d="M585,-359.7C585,-352.24 585,-343.32 585,-334.97"/>
<polygon fill="black" stroke="black" points="588.5,-335.1 585,-325.1 581.5,-335.1 588.5,-335.1"/>
</g>
<!-- 54 -->
<g id="node38" class="node">
<title>54</title>
<ellipse fill="none" stroke="black" cx="513" cy="-234" rx="27" ry="18"/>
<text text-anchor="middle" x="513" y="-230.3" font-family="Times,serif" font-size="14.00">*</text>
</g>
<!-- 53&#45;&gt;54 -->
<g id="edge38" class="edge">
<title>53&#45;&gt;54</title>
<path fill="none" stroke="black" d="M513,-287.7C513,-280.24 513,-271.32 513,-262.97"/>
<polygon fill="black" stroke="black" points="516.5,-263.1 513,-253.1 509.5,-263.1 516.5,-263.1"/>
</g>
<!-- 65 -->
<g id="node45" class="node">
<title>65</title>
<ellipse fill="none" stroke="black" cx="585" cy="-234" rx="27" ry="18"/>
<text text-anchor="middle" x="585" y="-230.3" font-family="Times,serif" font-size="14.00">9</text>
</g>
<!-- 53&#45;&gt;65 -->
<g id="edge39" class="edge">
<title>53&#45;&gt;65</title>
<path fill="none" stroke="black" d="M527.92,-290.5C537.86,-280.83 551.12,-267.94 562.35,-257.02"/>
<polygon fill="black" stroke="black" points="564.37,-259.97 569.1,-250.49 559.49,-254.95 564.37,-259.97"/>
</g>
<!-- 55 -->
<g id="node39" class="node">
<title>55</title>
<ellipse fill="none" stroke="black" cx="477" cy="-162" rx="27" ry="18"/>
<text text-anchor="middle" x="477" y="-158.3" font-family="Times,serif" font-size="14.00">&#45;1</text>
</g>
<!-- 54&#45;&gt;55 -->
<g id="edge32" class="edge">
<title>54&#45;&gt;55</title>
<path fill="none" stroke="black" d="M504.65,-216.76C500.38,-208.46 495.08,-198.15 490.27,-188.79"/>
<polygon fill="black" stroke="black" points="492.99,-187.44 485.3,-180.15 486.77,-190.64 492.99,-187.44"/>
</g>
<!-- 57 -->
<g id="node40" class="node">
<title>57</title>
<ellipse fill="none" stroke="black" cx="549" cy="-162" rx="27" ry="18"/>
<text text-anchor="middle" x="549" y="-158.3" font-family="Times,serif" font-size="14.00">^</text>
</g>
<!-- 54&#45;&gt;57 -->
<g id="edge37" class="edge">
<title>54&#45;&gt;57</title>
<path fill="none" stroke="black" d="M521.35,-216.76C525.62,-208.46 530.92,-198.15 535.73,-188.79"/>
<polygon fill="black" stroke="black" points="539.23,-190.64 540.7,-180.15 533.01,-187.44 539.23,-190.64"/>
</g>
<!-- 58 -->
<g id="node41" class="node">
<title>58</title>
<ellipse fill="none" stroke="black" cx="513" cy="-90" rx="27" ry="18"/>
<text text-anchor="middle" x="513" y="-86.3" font-family="Times,serif" font-size="14.00">e</text>
</g>
<!-- 57&#45;&gt;58 -->
<g id="edge33" class="edge">
<title>57&#45;&gt;58</title>
<path fill="none" stroke="black" d="M540.65,-144.76C536.38,-136.46 531.08,-126.15 526.27,-116.79"/>
<polygon fill="black" stroke="black" points="528.99,-115.44 521.3,-108.15 522.77,-118.64 528.99,-115.44"/>
</g>
<!-- 60 -->
<g id="node42" class="node">
<title>60</title>
<ellipse fill="none" stroke="black" cx="585" cy="-90" rx="27" ry="18"/>
<text text-anchor="middle" x="585" y="-86.3" font-family="Times,serif" font-size="14.00">*</text>
</g>
<!-- 57&#45;&gt;60 -->
<g id="edge36" class="edge">
<title>57&#45;&gt;60</title>
<path fill="none" stroke="black" d="M557.35,-144.76C561.62,-136.46 566.92,-126.15 571.73,-116.79"/>
<polygon fill="black" stroke="black" points="575.23,-118.64 576.7,-108.15 569.01,-115.44 575.23,-118.64"/>
</g>
<!-- 61 -->
<g id="node43" class="node">
<title>61</title>
<ellipse fill="none" stroke="black" cx="549" cy="-18" rx="27" ry="18"/>
<text text-anchor="middle" x="549" y="-14.3" font-family="Times,serif" font-size="14.00">2</text>
</g>
<!-- 60&#45;&gt;61 -->
<g id="edge34" class="edge">
<title>60&#45;&gt;61</title>
<path fill="none" stroke="black" d="M576.65,-72.76C572.38,-64.46 567.08,-54.15 562.27,-44.79"/>
<polygon fill="black" stroke="black" points="564.99,-43.44 557.3,-36.15 558.77,-46.64 564.99,-43.44"/>
</g>
<!-- 63 -->
<g id="node44" class="node">
<title>63</title>
<ellipse fill="none" stroke="black" cx="621" cy="-18" rx="27" ry="18"/>
<text text-anchor="middle" x="621" y="-14.3" font-family="Times,serif" font-size="14.00">x</text>
</g>
<!-- 60&#45;&gt;63 -->
<g id="edge35" class="edge">
<title>60&#45;&gt;63</title>
<path fill="none" stroke="black" d="M593.35,-72.76C597.62,-64.46 602.92,-54.15 607.73,-44.79"/>
<polygon fill="black" stroke="black" points="611.23,-46.64 612.7,-36.15 605.01,-43.44 611.23,-46.64"/>
</g>
<!-- 70 -->
<g id="node48" class="node">
<title>70</title>
<ellipse fill="none" stroke="black" cx="657" cy="-378" rx="27" ry="18"/>
<text text-anchor="middle" x="657" y="-374.3" font-family="Times,serif" font-size="14.00">&#45;1</text>
</g>
<!-- 69&#45;&gt;70 -->
<g id="edge44" class="edge">
<title>69&#45;&gt;70</title>
<path fill="none" stroke="black" d="M657,-431.7C657,-424.24 657,-415.32 657,-406.97"/>
<polygon fill="black" stroke="black" points="660.5,-407.1 657,-397.1 653.5,-407.1 660.5,-407.1"/>
</g>
<!-- 72 -->
<g id="node49" class="node">
<title>72</title>
<ellipse fill="none" stroke="black" cx="729" cy="-378" rx="27" ry="18"/>
<text text-anchor="middle" x="729" y="-374.3" font-family="Times,serif" font-size="14.00">*</text>
</g>
<!-- 69&#45;&gt;72 -->
<g id="edge51" class="edge">
<title>69&#45;&gt;72</title>
<path fill="none" stroke="black" d="M671.92,-434.5C681.86,-424.83 695.12,-411.94 706.35,-401.02"/>
<polygon fill="black" stroke="black" points="708.37,-403.97 713.1,-394.49 703.49,-398.95 708.37,-403.97"/>
</g>
<!-- 73 -->
<g id="node50" class="node">
<title>73</title>
<ellipse fill="none" stroke="black" cx="693" cy="-306" rx="27" ry="18"/>
<text text-anchor="middle" x="693" y="-302.3" font-family="Times,serif" font-size="14.00">^</text>
</g>
<!-- 72&#45;&gt;73 -->
<g id="edge49" class="edge">
<title>72&#45;&gt;73</title>
<path fill="none" stroke="black" d="M720.65,-360.76C716.38,-352.46 711.08,-342.15 706.27,-332.79"/>
<polygon fill="black" stroke="black" points="708.99,-331.44 701.3,-324.15 702.77,-334.64 708.99,-331.44"/>
</g>
<!-- 81 -->
<g id="node55" class="node">
<title>81</title>
<ellipse fill="none" stroke="black" cx="765" cy="-306" rx="27" ry="18"/>
<text text-anchor="middle" x="765" y="-302.3" font-family="Times,serif" font-size="14.00">2</text>
</g>
<!-- 72&#45;&gt;81 -->
<g id="edge50" class="edge">
<title>72&#45;&gt;81</title>
<path fill="none" stroke="black" d="M737.35,-360.76C741.62,-352.46 746.92,-342.15 751.73,-332.79"/>
<polygon fill="black" stroke="black" points="755.23,-334.64 756.7,-324.15 749.01,-331.44 755.23,-334.64"/>
</g>
<!-- 74 -->
<g id="node51" class="node">
<title>74</title>
<ellipse fill="none" stroke="black" cx="675" cy="-234" rx="27" ry="18"/>
<text text-anchor="middle" x="675" y="-230.3" font-family="Times,serif" font-size="14.00">e</text>
</g>
<!-- 73&#45;&gt;74 -->
<g id="edge45" class="edge">
<title>73&#45;&gt;74</title>
<path fill="none" stroke="black" d="M688.64,-288.05C686.65,-280.32 684.25,-270.96 682.01,-262.27"/>
<polygon fill="black" stroke="black" points="685.2,-261.6 679.32,-252.79 678.42,-263.35 685.2,-261.6"/>
</g>
<!-- 76 -->
<g id="node52" class="node">
<title>76</title>
<ellipse fill="none" stroke="black" cx="747" cy="-234" rx="27" ry="18"/>
<text text-anchor="middle" x="747" y="-230.3" font-family="Times,serif" font-size="14.00">*</text>
</g>
<!-- 73&#45;&gt;76 -->
<g id="edge48" class="edge">
<title>73&#45;&gt;76</title>
<path fill="none" stroke="black" d="M704.98,-289.46C711.91,-280.49 720.76,-269.02 728.55,-258.92"/>
<polygon fill="black" stroke="black" points="731.71,-261.55 735.05,-251.49 726.17,-257.27 731.71,-261.55"/>
</g>
<!-- 77 -->
<g id="node53" class="node">
<title>77</title>
<ellipse fill="none" stroke="black" cx="711" cy="-162" rx="27" ry="18"/>
<text text-anchor="middle" x="711" y="-158.3" font-family="Times,serif" font-size="14.00">2</text>
</g>
<!-- 76&#45;&gt;77 -->
<g id="edge46" class="edge">
<title>76&#45;&gt;77</title>
<path fill="none" stroke="black" d="M738.65,-216.76C734.38,-208.46 729.08,-198.15 724.27,-188.79"/>
<polygon fill="black" stroke="black" points="726.99,-187.44 719.3,-180.15 720.77,-190.64 726.99,-187.44"/>
</g>
<!-- 79 -->
<g id="node54" class="node">
<title>79</title>
<ellipse fill="none" stroke="black" cx="783" cy="-162" rx="27" ry="18"/>
<text text-anchor="middle" x="783" y="-158.3" font-family="Times,serif" font-size="14.00">x</text>
</g>
<!-- 76&#45;&gt;79 -->
<g id="edge47" class="edge">
<title>76&#45;&gt;79</title>
<path fill="none" stroke="black" d="M755.35,-216.76C759.62,-208.46 764.92,-198.15 769.73,-188.79"/>
<polygon fill="black" stroke="black" points="773.23,-190.64 774.7,-180.15 767.01,-187.44 773.23,-190.64"/>
</g>
</g>
</svg>
