<?xml version="1.0" encoding="UTF-8" standalone="no"?>
<!DOCTYPE svg PUBLIC "-//W3C//DTD SVG 1.1//EN"
 "http://www.w3.org/Graphics/SVG/1.1/DTD/svg11.dtd">
<!-- Generated by graphviz version 8.0.1 (20230327.1645)
 -->
<!-- Title: G Pages: 1 -->
<svg width="332pt" height="332pt"
 viewBox="0.00 0.00 332.00 332.00" xmlns="http://www.w3.org/2000/svg" xmlns:xlink="http://www.w3.org/1999/xlink">
<g id="graph0" class="graph" transform="scale(1 1) rotate(0) translate(4 328)">
<title>G</title>
<polygon fill="white" stroke="none" points="-4,4 -4,-328 328,-328 328,4 -4,4"/>
<!-- 0 -->
<g id="node1" class="node">
<title>0</title>
<ellipse fill="none" stroke="black" cx="171" cy="-306" rx="27" ry="18"/>
<text text-anchor="middle" x="171" y="-302.3" font-family="Times,serif" font-size="14.00">+</text>
</g>
<!-- 1 -->
<g id="node2" class="node">
<title>1</title>
<ellipse fill="none" stroke="black" cx="135" cy="-234" rx="27" ry="18"/>
<text text-anchor="middle" x="135" y="-230.3" font-family="Times,serif" font-size="14.00">+</text>
</g>
<!-- 0&#45;&gt;1 -->
<g id="edge11" class="edge">
<title>0&#45;&gt;1</title>
<path fill="none" stroke="black" d="M162.65,-288.76C158.38,-280.46 153.08,-270.15 148.27,-260.79"/>
<polygon fill="black" stroke="black" points="150.99,-259.44 143.3,-252.15 144.77,-262.64 150.99,-259.44"/>
</g>
<!-- 18 -->
<g id="node13" class="node">
<title>18</title>
<ellipse fill="none" stroke="black" cx="207" cy="-234" rx="27" ry="18"/>
<text text-anchor="middle" x="207" y="-230.3" font-family="Times,serif" font-size="14.00">x</text>
</g>
<!-- 0&#45;&gt;18 -->
<g id="edge12" class="edge">
<title>0&#45;&gt;18</title>
<path fill="none" stroke="black" d="M179.35,-288.76C183.62,-280.46 188.92,-270.15 193.73,-260.79"/>
<polygon fill="black" stroke="black" points="197.23,-262.64 198.7,-252.15 191.01,-259.44 197.23,-262.64"/>
</g>
<!-- 2 -->
<g id="node3" class="node">
<title>2</title>
<ellipse fill="none" stroke="black" cx="99" cy="-162" rx="27" ry="18"/>
<text text-anchor="middle" x="99" y="-158.3" font-family="Times,serif" font-size="14.00">*</text>
</g>
<!-- 1&#45;&gt;2 -->
<g id="edge5" class="edge">
<title>1&#45;&gt;2</title>
<path fill="none" stroke="black" d="M126.65,-216.76C122.38,-208.46 117.08,-198.15 112.27,-188.79"/>
<polygon fill="black" stroke="black" points="114.99,-187.44 107.3,-180.15 108.77,-190.64 114.99,-187.44"/>
</g>
<!-- 10 -->
<g id="node8" class="node">
<title>10</title>
<ellipse fill="none" stroke="black" cx="171" cy="-162" rx="27" ry="18"/>
<text text-anchor="middle" x="171" y="-158.3" font-family="Times,serif" font-size="14.00">*</text>
</g>
<!-- 1&#45;&gt;10 -->
<g id="edge10" class="edge">
<title>1&#45;&gt;10</title>
<path fill="none" stroke="black" d="M143.35,-216.76C147.62,-208.46 152.92,-198.15 157.73,-188.79"/>
<polygon fill="black" stroke="black" points="161.23,-190.64 162.7,-180.15 155.01,-187.44 161.23,-190.64"/>
</g>
<!-- 3 -->
<g id="node4" class="node">
<title>3</title>
<ellipse fill="none" stroke="black" cx="27" cy="-90" rx="27" ry="18"/>
<text text-anchor="middle" x="27" y="-86.3" font-family="Times,serif" font-size="14.00">5</text>
</g>
<!-- 2&#45;&gt;3 -->
<g id="edge1" class="edge">
<title>2&#45;&gt;3</title>
<path fill="none" stroke="black" d="M84.08,-146.5C74.14,-136.83 60.88,-123.94 49.65,-113.02"/>
<polygon fill="black" stroke="black" points="52.51,-110.95 42.9,-106.49 47.63,-115.97 52.51,-110.95"/>
</g>
<!-- 5 -->
<g id="node5" class="node">
<title>5</title>
<ellipse fill="none" stroke="black" cx="99" cy="-90" rx="27" ry="18"/>
<text text-anchor="middle" x="99" y="-86.3" font-family="Times,serif" font-size="14.00">^</text>
</g>
<!-- 2&#45;&gt;5 -->
<g id="edge4" class="edge">
<title>2&#45;&gt;5</title>
<path fill="none" stroke="black" d="M99,-143.7C99,-136.24 99,-127.32 99,-118.97"/>
<polygon fill="black" stroke="black" points="102.5,-119.1 99,-109.1 95.5,-119.1 102.5,-119.1"/>
</g>
<!-- 6 -->
<g id="node6" class="node">
<title>6</title>
<ellipse fill="none" stroke="black" cx="63" cy="-18" rx="27" ry="18"/>
<text text-anchor="middle" x="63" y="-14.3" font-family="Times,serif" font-size="14.00">x</text>
</g>
<!-- 5&#45;&gt;6 -->
<g id="edge2" class="edge">
<title>5&#45;&gt;6</title>
<path fill="none" stroke="black" d="M90.65,-72.76C86.38,-64.46 81.08,-54.15 76.27,-44.79"/>
<polygon fill="black" stroke="black" points="78.99,-43.44 71.3,-36.15 72.77,-46.64 78.99,-43.44"/>
</g>
<!-- 8 -->
<g id="node7" class="node">
<title>8</title>
<ellipse fill="none" stroke="black" cx="135" cy="-18" rx="27" ry="18"/>
<text text-anchor="middle" x="135" y="-14.3" font-family="Times,serif" font-size="14.00">2</text>
</g>
<!-- 5&#45;&gt;8 -->
<g id="edge3" class="edge">
<title>5&#45;&gt;8</title>
<path fill="none" stroke="black" d="M107.35,-72.76C111.62,-64.46 116.92,-54.15 121.73,-44.79"/>
<polygon fill="black" stroke="black" points="125.23,-46.64 126.7,-36.15 119.01,-43.44 125.23,-46.64"/>
</g>
<!-- 11 -->
<g id="node9" class="node">
<title>11</title>
<ellipse fill="none" stroke="black" cx="171" cy="-90" rx="27" ry="18"/>
<text text-anchor="middle" x="171" y="-86.3" font-family="Times,serif" font-size="14.00">4</text>
</g>
<!-- 10&#45;&gt;11 -->
<g id="edge6" class="edge">
<title>10&#45;&gt;11</title>
<path fill="none" stroke="black" d="M171,-143.7C171,-136.24 171,-127.32 171,-118.97"/>
<polygon fill="black" stroke="black" points="174.5,-119.1 171,-109.1 167.5,-119.1 174.5,-119.1"/>
</g>
<!-- 13 -->
<g id="node10" class="node">
<title>13</title>
<ellipse fill="none" stroke="black" cx="243" cy="-90" rx="27" ry="18"/>
<text text-anchor="middle" x="243" y="-86.3" font-family="Times,serif" font-size="14.00">^</text>
</g>
<!-- 10&#45;&gt;13 -->
<g id="edge9" class="edge">
<title>10&#45;&gt;13</title>
<path fill="none" stroke="black" d="M185.92,-146.5C195.86,-136.83 209.12,-123.94 220.35,-113.02"/>
<polygon fill="black" stroke="black" points="222.37,-115.97 227.1,-106.49 217.49,-110.95 222.37,-115.97"/>
</g>
<!-- 14 -->
<g id="node11" class="node">
<title>14</title>
<ellipse fill="none" stroke="black" cx="225" cy="-18" rx="27" ry="18"/>
<text text-anchor="middle" x="225" y="-14.3" font-family="Times,serif" font-size="14.00">x</text>
</g>
<!-- 13&#45;&gt;14 -->
<g id="edge7" class="edge">
<title>13&#45;&gt;14</title>
<path fill="none" stroke="black" d="M238.64,-72.05C236.65,-64.32 234.25,-54.96 232.01,-46.27"/>
<polygon fill="black" stroke="black" points="235.2,-45.6 229.32,-36.79 228.42,-47.35 235.2,-45.6"/>
</g>
<!-- 16 -->
<g id="node12" class="node">
<title>16</title>
<ellipse fill="none" stroke="black" cx="297" cy="-18" rx="27" ry="18"/>
<text text-anchor="middle" x="297" y="-14.3" font-family="Times,serif" font-size="14.00">2</text>
</g>
<!-- 13&#45;&gt;16 -->
<g id="edge8" class="edge">
<title>13&#45;&gt;16</title>
<path fill="none" stroke="black" d="M254.98,-73.46C261.91,-64.49 270.76,-53.02 278.55,-42.92"/>
<polygon fill="black" stroke="black" points="281.71,-45.55 285.05,-35.49 276.17,-41.27 281.71,-45.55"/>
</g>
</g>
</svg>
