<?xml version="1.0" encoding="UTF-8" standalone="no"?>
<!DOCTYPE svg PUBLIC "-//W3C//DTD SVG 1.1//EN"
 "http://www.w3.org/Graphics/SVG/1.1/DTD/svg11.dtd">
<!-- Generated by graphviz version 8.0.1 (20230327.1645)
 -->
<!-- Title: G Pages: 1 -->
<svg width="710pt" height="476pt"
 viewBox="0.00 0.00 710.00 476.00" xmlns="http://www.w3.org/2000/svg" xmlns:xlink="http://www.w3.org/1999/xlink">
<g id="graph0" class="graph" transform="scale(1 1) rotate(0) translate(4 472)">
<title>G</title>
<polygon fill="white" stroke="none" points="-4,4 -4,-472 706,-472 706,4 -4,4"/>
<!-- 0 -->
<g id="node1" class="node">
<title>0</title>
<ellipse fill="none" stroke="black" cx="459" cy="-450" rx="27" ry="18"/>
<text text-anchor="middle" x="459" y="-446.3" font-family="Times,serif" font-size="14.00">*</text>
</g>
<!-- 1 -->
<g id="node2" class="node">
<title>1</title>
<ellipse fill="none" stroke="black" cx="351" cy="-378" rx="27" ry="18"/>
<text text-anchor="middle" x="351" y="-374.3" font-family="Times,serif" font-size="14.00">*</text>
</g>
<!-- 0&#45;&gt;1 -->
<g id="edge18" class="edge">
<title>0&#45;&gt;1</title>
<path fill="none" stroke="black" d="M440.19,-436.81C423.33,-425.88 398.38,-409.71 379.15,-397.24"/>
<polygon fill="black" stroke="black" points="381.25,-393.79 370.96,-391.29 377.45,-399.66 381.25,-393.79"/>
</g>
<!-- 28 -->
<g id="node20" class="node">
<title>28</title>
<ellipse fill="none" stroke="black" cx="531" cy="-378" rx="27" ry="18"/>
<text text-anchor="middle" x="531" y="-374.3" font-family="Times,serif" font-size="14.00">^</text>
</g>
<!-- 0&#45;&gt;28 -->
<g id="edge33" class="edge">
<title>0&#45;&gt;28</title>
<path fill="none" stroke="black" d="M473.92,-434.5C483.86,-424.83 497.12,-411.94 508.35,-401.02"/>
<polygon fill="black" stroke="black" points="510.37,-403.97 515.1,-394.49 505.49,-398.95 510.37,-403.97"/>
</g>
<!-- 2 -->
<g id="node3" class="node">
<title>2</title>
<ellipse fill="none" stroke="black" cx="243" cy="-306" rx="27" ry="18"/>
<text text-anchor="middle" x="243" y="-302.3" font-family="Times,serif" font-size="14.00">*</text>
</g>
<!-- 1&#45;&gt;2 -->
<g id="edge7" class="edge">
<title>1&#45;&gt;2</title>
<path fill="none" stroke="black" d="M332.19,-364.81C315.33,-353.88 290.38,-337.71 271.15,-325.24"/>
<polygon fill="black" stroke="black" points="273.25,-321.79 262.96,-319.29 269.45,-327.66 273.25,-321.79"/>
</g>
<!-- 13 -->
<g id="node10" class="node">
<title>13</title>
<ellipse fill="none" stroke="black" cx="351" cy="-306" rx="27" ry="18"/>
<text text-anchor="middle" x="351" y="-302.3" font-family="Times,serif" font-size="14.00">*</text>
</g>
<!-- 1&#45;&gt;13 -->
<g id="edge17" class="edge">
<title>1&#45;&gt;13</title>
<path fill="none" stroke="black" d="M351,-359.7C351,-352.24 351,-343.32 351,-334.97"/>
<polygon fill="black" stroke="black" points="354.5,-335.1 351,-325.1 347.5,-335.1 354.5,-335.1"/>
</g>
<!-- 3 -->
<g id="node4" class="node">
<title>3</title>
<ellipse fill="none" stroke="black" cx="171" cy="-234" rx="27" ry="18"/>
<text text-anchor="middle" x="171" y="-230.3" font-family="Times,serif" font-size="14.00">*</text>
</g>
<!-- 2&#45;&gt;3 -->
<g id="edge5" class="edge">
<title>2&#45;&gt;3</title>
<path fill="none" stroke="black" d="M228.08,-290.5C218.14,-280.83 204.88,-267.94 193.65,-257.02"/>
<polygon fill="black" stroke="black" points="196.51,-254.95 186.9,-250.49 191.63,-259.97 196.51,-254.95"/>
</g>
<!-- 11 -->
<g id="node9" class="node">
<title>11</title>
<ellipse fill="none" stroke="black" cx="243" cy="-234" rx="27" ry="18"/>
<text text-anchor="middle" x="243" y="-230.3" font-family="Times,serif" font-size="14.00">e</text>
</g>
<!-- 2&#45;&gt;11 -->
<g id="edge6" class="edge">
<title>2&#45;&gt;11</title>
<path fill="none" stroke="black" d="M243,-287.7C243,-280.24 243,-271.32 243,-262.97"/>
<polygon fill="black" stroke="black" points="246.5,-263.1 243,-253.1 239.5,-263.1 246.5,-263.1"/>
</g>
<!-- 4 -->
<g id="node5" class="node">
<title>4</title>
<ellipse fill="none" stroke="black" cx="99" cy="-162" rx="27" ry="18"/>
<text text-anchor="middle" x="99" y="-158.3" font-family="Times,serif" font-size="14.00">*</text>
</g>
<!-- 3&#45;&gt;4 -->
<g id="edge3" class="edge">
<title>3&#45;&gt;4</title>
<path fill="none" stroke="black" d="M156.08,-218.5C146.14,-208.83 132.88,-195.94 121.65,-185.02"/>
<polygon fill="black" stroke="black" points="124.51,-182.95 114.9,-178.49 119.63,-187.97 124.51,-182.95"/>
</g>
<!-- 9 -->
<g id="node8" class="node">
<title>9</title>
<ellipse fill="none" stroke="black" cx="171" cy="-162" rx="27" ry="18"/>
<text text-anchor="middle" x="171" y="-158.3" font-family="Times,serif" font-size="14.00">3</text>
</g>
<!-- 3&#45;&gt;9 -->
<g id="edge4" class="edge">
<title>3&#45;&gt;9</title>
<path fill="none" stroke="black" d="M171,-215.7C171,-208.24 171,-199.32 171,-190.97"/>
<polygon fill="black" stroke="black" points="174.5,-191.1 171,-181.1 167.5,-191.1 174.5,-191.1"/>
</g>
<!-- 5 -->
<g id="node6" class="node">
<title>5</title>
<ellipse fill="none" stroke="black" cx="27" cy="-90" rx="27" ry="18"/>
<text text-anchor="middle" x="27" y="-86.3" font-family="Times,serif" font-size="14.00">6</text>
</g>
<!-- 4&#45;&gt;5 -->
<g id="edge1" class="edge">
<title>4&#45;&gt;5</title>
<path fill="none" stroke="black" d="M84.08,-146.5C74.14,-136.83 60.88,-123.94 49.65,-113.02"/>
<polygon fill="black" stroke="black" points="52.51,-110.95 42.9,-106.49 47.63,-115.97 52.51,-110.95"/>
</g>
<!-- 7 -->
<g id="node7" class="node">
<title>7</title>
<ellipse fill="none" stroke="black" cx="99" cy="-90" rx="27" ry="18"/>
<text text-anchor="middle" x="99" y="-86.3" font-family="Times,serif" font-size="14.00">5</text>
</g>
<!-- 4&#45;&gt;7 -->
<g id="edge2" class="edge">
<title>4&#45;&gt;7</title>
<path fill="none" stroke="black" d="M99,-143.7C99,-136.24 99,-127.32 99,-118.97"/>
<polygon fill="black" stroke="black" points="102.5,-119.1 99,-109.1 95.5,-119.1 102.5,-119.1"/>
</g>
<!-- 14 -->
<g id="node11" class="node">
<title>14</title>
<ellipse fill="none" stroke="black" cx="315" cy="-234" rx="27" ry="18"/>
<text text-anchor="middle" x="315" y="-230.3" font-family="Times,serif" font-size="14.00">*</text>
</g>
<!-- 13&#45;&gt;14 -->
<g id="edge13" class="edge">
<title>13&#45;&gt;14</title>
<path fill="none" stroke="black" d="M342.65,-288.76C338.38,-280.46 333.08,-270.15 328.27,-260.79"/>
<polygon fill="black" stroke="black" points="330.99,-259.44 323.3,-252.15 324.77,-262.64 330.99,-259.44"/>
</g>
<!-- 23 -->
<g id="node17" class="node">
<title>23</title>
<ellipse fill="none" stroke="black" cx="387" cy="-234" rx="27" ry="18"/>
<text text-anchor="middle" x="387" y="-230.3" font-family="Times,serif" font-size="14.00">^</text>
</g>
<!-- 13&#45;&gt;23 -->
<g id="edge16" class="edge">
<title>13&#45;&gt;23</title>
<path fill="none" stroke="black" d="M359.35,-288.76C363.62,-280.46 368.92,-270.15 373.73,-260.79"/>
<polygon fill="black" stroke="black" points="377.23,-262.64 378.7,-252.15 371.01,-259.44 377.23,-262.64"/>
</g>
<!-- 15 -->
<g id="node12" class="node">
<title>15</title>
<ellipse fill="none" stroke="black" cx="243" cy="-162" rx="27" ry="18"/>
<text text-anchor="middle" x="243" y="-158.3" font-family="Times,serif" font-size="14.00">^</text>
</g>
<!-- 14&#45;&gt;15 -->
<g id="edge10" class="edge">
<title>14&#45;&gt;15</title>
<path fill="none" stroke="black" d="M300.08,-218.5C290.14,-208.83 276.88,-195.94 265.65,-185.02"/>
<polygon fill="black" stroke="black" points="268.51,-182.95 258.9,-178.49 263.63,-187.97 268.51,-182.95"/>
</g>
<!-- 20 -->
<g id="node15" class="node">
<title>20</title>
<ellipse fill="none" stroke="black" cx="315" cy="-162" rx="27" ry="18"/>
<text text-anchor="middle" x="315" y="-158.3" font-family="Times,serif" font-size="14.00">sin</text>
</g>
<!-- 14&#45;&gt;20 -->
<g id="edge12" class="edge">
<title>14&#45;&gt;20</title>
<path fill="none" stroke="black" d="M315,-215.7C315,-208.24 315,-199.32 315,-190.97"/>
<polygon fill="black" stroke="black" points="318.5,-191.1 315,-181.1 311.5,-191.1 318.5,-191.1"/>
</g>
<!-- 16 -->
<g id="node13" class="node">
<title>16</title>
<ellipse fill="none" stroke="black" cx="171" cy="-90" rx="27" ry="18"/>
<text text-anchor="middle" x="171" y="-86.3" font-family="Times,serif" font-size="14.00">e</text>
</g>
<!-- 15&#45;&gt;16 -->
<g id="edge8" class="edge">
<title>15&#45;&gt;16</title>
<path fill="none" stroke="black" d="M228.08,-146.5C218.14,-136.83 204.88,-123.94 193.65,-113.02"/>
<polygon fill="black" stroke="black" points="196.51,-110.95 186.9,-106.49 191.63,-115.97 196.51,-110.95"/>
</g>
<!-- 18 -->
<g id="node14" class="node">
<title>18</title>
<ellipse fill="none" stroke="black" cx="243" cy="-90" rx="27" ry="18"/>
<text text-anchor="middle" x="243" y="-86.3" font-family="Times,serif" font-size="14.00">x</text>
</g>
<!-- 15&#45;&gt;18 -->
<g id="edge9" class="edge">
<title>15&#45;&gt;18</title>
<path fill="none" stroke="black" d="M243,-143.7C243,-136.24 243,-127.32 243,-118.97"/>
<polygon fill="black" stroke="black" points="246.5,-119.1 243,-109.1 239.5,-119.1 246.5,-119.1"/>
</g>
<!-- 21 -->
<g id="node16" class="node">
<title>21</title>
<ellipse fill="none" stroke="black" cx="315" cy="-90" rx="27" ry="18"/>
<text text-anchor="middle" x="315" y="-86.3" font-family="Times,serif" font-size="14.00">x</text>
</g>
<!-- 20&#45;&gt;21 -->
<g id="edge11" class="edge">
<title>20&#45;&gt;21</title>
<path fill="none" stroke="black" d="M315,-143.7C315,-136.24 315,-127.32 315,-118.97"/>
<polygon fill="black" stroke="black" points="318.5,-119.1 315,-109.1 311.5,-119.1 318.5,-119.1"/>
</g>
<!-- 24 -->
<g id="node18" class="node">
<title>24</title>
<ellipse fill="none" stroke="black" cx="387" cy="-162" rx="27" ry="18"/>
<text text-anchor="middle" x="387" y="-158.3" font-family="Times,serif" font-size="14.00">x</text>
</g>
<!-- 23&#45;&gt;24 -->
<g id="edge14" class="edge">
<title>23&#45;&gt;24</title>
<path fill="none" stroke="black" d="M387,-215.7C387,-208.24 387,-199.32 387,-190.97"/>
<polygon fill="black" stroke="black" points="390.5,-191.1 387,-181.1 383.5,-191.1 390.5,-191.1"/>
</g>
<!-- 26 -->
<g id="node19" class="node">
<title>26</title>
<ellipse fill="none" stroke="black" cx="459" cy="-162" rx="27" ry="18"/>
<text text-anchor="middle" x="459" y="-158.3" font-family="Times,serif" font-size="14.00">10</text>
</g>
<!-- 23&#45;&gt;26 -->
<g id="edge15" class="edge">
<title>23&#45;&gt;26</title>
<path fill="none" stroke="black" d="M401.92,-218.5C411.86,-208.83 425.12,-195.94 436.35,-185.02"/>
<polygon fill="black" stroke="black" points="438.37,-187.97 443.1,-178.49 433.49,-182.95 438.37,-187.97"/>
</g>
<!-- 29 -->
<g id="node21" class="node">
<title>29</title>
<ellipse fill="none" stroke="black" cx="531" cy="-306" rx="27" ry="18"/>
<text text-anchor="middle" x="531" y="-302.3" font-family="Times,serif" font-size="14.00">^</text>
</g>
<!-- 28&#45;&gt;29 -->
<g id="edge31" class="edge">
<title>28&#45;&gt;29</title>
<path fill="none" stroke="black" d="M531,-359.7C531,-352.24 531,-343.32 531,-334.97"/>
<polygon fill="black" stroke="black" points="534.5,-335.1 531,-325.1 527.5,-335.1 534.5,-335.1"/>
</g>
<!-- 49 -->
<g id="node34" class="node">
<title>49</title>
<ellipse fill="none" stroke="black" cx="603" cy="-306" rx="27" ry="18"/>
<text text-anchor="middle" x="603" y="-302.3" font-family="Times,serif" font-size="14.00">&#45;1</text>
</g>
<!-- 28&#45;&gt;49 -->
<g id="edge32" class="edge">
<title>28&#45;&gt;49</title>
<path fill="none" stroke="black" d="M545.92,-362.5C555.86,-352.83 569.12,-339.94 580.35,-329.02"/>
<polygon fill="black" stroke="black" points="582.37,-331.97 587.1,-322.49 577.49,-326.95 582.37,-331.97"/>
</g>
<!-- 30 -->
<g id="node22" class="node">
<title>30</title>
<ellipse fill="none" stroke="black" cx="531" cy="-234" rx="27" ry="18"/>
<text text-anchor="middle" x="531" y="-230.3" font-family="Times,serif" font-size="14.00">*</text>
</g>
<!-- 29&#45;&gt;30 -->
<g id="edge29" class="edge">
<title>29&#45;&gt;30</title>
<path fill="none" stroke="black" d="M531,-287.7C531,-280.24 531,-271.32 531,-262.97"/>
<polygon fill="black" stroke="black" points="534.5,-263.1 531,-253.1 527.5,-263.1 534.5,-263.1"/>
</g>
<!-- 47 -->
<g id="node33" class="node">
<title>47</title>
<ellipse fill="none" stroke="black" cx="603" cy="-234" rx="27" ry="18"/>
<text text-anchor="middle" x="603" y="-230.3" font-family="Times,serif" font-size="14.00">1</text>
</g>
<!-- 29&#45;&gt;47 -->
<g id="edge30" class="edge">
<title>29&#45;&gt;47</title>
<path fill="none" stroke="black" d="M545.92,-290.5C555.86,-280.83 569.12,-267.94 580.35,-257.02"/>
<polygon fill="black" stroke="black" points="582.37,-259.97 587.1,-250.49 577.49,-254.95 582.37,-259.97"/>
</g>
<!-- 31 -->
<g id="node23" class="node">
<title>31</title>
<ellipse fill="none" stroke="black" cx="531" cy="-162" rx="27" ry="18"/>
<text text-anchor="middle" x="531" y="-158.3" font-family="Times,serif" font-size="14.00">*</text>
</g>
<!-- 30&#45;&gt;31 -->
<g id="edge25" class="edge">
<title>30&#45;&gt;31</title>
<path fill="none" stroke="black" d="M531,-215.7C531,-208.24 531,-199.32 531,-190.97"/>
<polygon fill="black" stroke="black" points="534.5,-191.1 531,-181.1 527.5,-191.1 534.5,-191.1"/>
</g>
<!-- 42 -->
<g id="node30" class="node">
<title>42</title>
<ellipse fill="none" stroke="black" cx="603" cy="-162" rx="27" ry="18"/>
<text text-anchor="middle" x="603" y="-158.3" font-family="Times,serif" font-size="14.00">^</text>
</g>
<!-- 30&#45;&gt;42 -->
<g id="edge28" class="edge">
<title>30&#45;&gt;42</title>
<path fill="none" stroke="black" d="M545.92,-218.5C555.86,-208.83 569.12,-195.94 580.35,-185.02"/>
<polygon fill="black" stroke="black" points="582.37,-187.97 587.1,-178.49 577.49,-182.95 582.37,-187.97"/>
</g>
<!-- 32 -->
<g id="node24" class="node">
<title>32</title>
<ellipse fill="none" stroke="black" cx="459" cy="-90" rx="27" ry="18"/>
<text text-anchor="middle" x="459" y="-86.3" font-family="Times,serif" font-size="14.00">^</text>
</g>
<!-- 31&#45;&gt;32 -->
<g id="edge21" class="edge">
<title>31&#45;&gt;32</title>
<path fill="none" stroke="black" d="M516.08,-146.5C506.14,-136.83 492.88,-123.94 481.65,-113.02"/>
<polygon fill="black" stroke="black" points="484.51,-110.95 474.9,-106.49 479.63,-115.97 484.51,-110.95"/>
</g>
<!-- 37 -->
<g id="node27" class="node">
<title>37</title>
<ellipse fill="none" stroke="black" cx="531" cy="-90" rx="27" ry="18"/>
<text text-anchor="middle" x="531" y="-86.3" font-family="Times,serif" font-size="14.00">^</text>
</g>
<!-- 31&#45;&gt;37 -->
<g id="edge24" class="edge">
<title>31&#45;&gt;37</title>
<path fill="none" stroke="black" d="M531,-143.7C531,-136.24 531,-127.32 531,-118.97"/>
<polygon fill="black" stroke="black" points="534.5,-119.1 531,-109.1 527.5,-119.1 534.5,-119.1"/>
</g>
<!-- 33 -->
<g id="node25" class="node">
<title>33</title>
<ellipse fill="none" stroke="black" cx="387" cy="-18" rx="27" ry="18"/>
<text text-anchor="middle" x="387" y="-14.3" font-family="Times,serif" font-size="14.00">x</text>
</g>
<!-- 32&#45;&gt;33 -->
<g id="edge19" class="edge">
<title>32&#45;&gt;33</title>
<path fill="none" stroke="black" d="M444.08,-74.5C434.14,-64.83 420.88,-51.94 409.65,-41.02"/>
<polygon fill="black" stroke="black" points="412.51,-38.95 402.9,-34.49 407.63,-43.97 412.51,-38.95"/>
</g>
<!-- 35 -->
<g id="node26" class="node">
<title>35</title>
<ellipse fill="none" stroke="black" cx="459" cy="-18" rx="27" ry="18"/>
<text text-anchor="middle" x="459" y="-14.3" font-family="Times,serif" font-size="14.00">2</text>
</g>
<!-- 32&#45;&gt;35 -->
<g id="edge20" class="edge">
<title>32&#45;&gt;35</title>
<path fill="none" stroke="black" d="M459,-71.7C459,-64.24 459,-55.32 459,-46.97"/>
<polygon fill="black" stroke="black" points="462.5,-47.1 459,-37.1 455.5,-47.1 462.5,-47.1"/>
</g>
<!-- 38 -->
<g id="node28" class="node">
<title>38</title>
<ellipse fill="none" stroke="black" cx="531" cy="-18" rx="27" ry="18"/>
<text text-anchor="middle" x="531" y="-14.3" font-family="Times,serif" font-size="14.00">x</text>
</g>
<!-- 37&#45;&gt;38 -->
<g id="edge22" class="edge">
<title>37&#45;&gt;38</title>
<path fill="none" stroke="black" d="M531,-71.7C531,-64.24 531,-55.32 531,-46.97"/>
<polygon fill="black" stroke="black" points="534.5,-47.1 531,-37.1 527.5,-47.1 534.5,-47.1"/>
</g>
<!-- 40 -->
<g id="node29" class="node">
<title>40</title>
<ellipse fill="none" stroke="black" cx="603" cy="-18" rx="27" ry="18"/>
<text text-anchor="middle" x="603" y="-14.3" font-family="Times,serif" font-size="14.00">8</text>
</g>
<!-- 37&#45;&gt;40 -->
<g id="edge23" class="edge">
<title>37&#45;&gt;40</title>
<path fill="none" stroke="black" d="M545.92,-74.5C555.86,-64.83 569.12,-51.94 580.35,-41.02"/>
<polygon fill="black" stroke="black" points="582.37,-43.97 587.1,-34.49 577.49,-38.95 582.37,-43.97"/>
</g>
<!-- 43 -->
<g id="node31" class="node">
<title>43</title>
<ellipse fill="none" stroke="black" cx="603" cy="-90" rx="27" ry="18"/>
<text text-anchor="middle" x="603" y="-86.3" font-family="Times,serif" font-size="14.00">2</text>
</g>
<!-- 42&#45;&gt;43 -->
<g id="edge26" class="edge">
<title>42&#45;&gt;43</title>
<path fill="none" stroke="black" d="M603,-143.7C603,-136.24 603,-127.32 603,-118.97"/>
<polygon fill="black" stroke="black" points="606.5,-119.1 603,-109.1 599.5,-119.1 606.5,-119.1"/>
</g>
<!-- 45 -->
<g id="node32" class="node">
<title>45</title>
<ellipse fill="none" stroke="black" cx="675" cy="-90" rx="27" ry="18"/>
<text text-anchor="middle" x="675" y="-86.3" font-family="Times,serif" font-size="14.00">1</text>
</g>
<!-- 42&#45;&gt;45 -->
<g id="edge27" class="edge">
<title>42&#45;&gt;45</title>
<path fill="none" stroke="black" d="M617.92,-146.5C627.86,-136.83 641.12,-123.94 652.35,-113.02"/>
<polygon fill="black" stroke="black" points="654.37,-115.97 659.1,-106.49 649.49,-110.95 654.37,-115.97"/>
</g>
</g>
</svg>
