<?xml version="1.0" encoding="UTF-8" standalone="no"?>
<!DOCTYPE svg PUBLIC "-//W3C//DTD SVG 1.1//EN"
 "http://www.w3.org/Graphics/SVG/1.1/DTD/svg11.dtd">
<!-- Generated by graphviz version 8.0.1 (20230327.1645)
 -->
<!-- Title: G Pages: 1 -->
<svg width="566pt" height="404pt"
 viewBox="0.00 0.00 566.00 404.00" xmlns="http://www.w3.org/2000/svg" xmlns:xlink="http://www.w3.org/1999/xlink">
<g id="graph0" class="graph" transform="scale(1 1) rotate(0) translate(4 400)">
<title>G</title>
<polygon fill="white" stroke="none" points="-4,4 -4,-400 562,-400 562,4 -4,4"/>
<!-- 0 -->
<g id="node1" class="node">
<title>0</title>
<ellipse fill="none" stroke="black" cx="279" cy="-378" rx="27" ry="18"/>
<text text-anchor="middle" x="279" y="-374.3" font-family="Times,serif" font-size="14.00">*</text>
</g>
<!-- 1 -->
<g id="node2" class="node">
<title>1</title>
<ellipse fill="none" stroke="black" cx="207" cy="-306" rx="27" ry="18"/>
<text text-anchor="middle" x="207" y="-302.3" font-family="Times,serif" font-size="14.00">*</text>
</g>
<!-- 0&#45;&gt;1 -->
<g id="edge9" class="edge">
<title>0&#45;&gt;1</title>
<path fill="none" stroke="black" d="M264.08,-362.5C254.14,-352.83 240.88,-339.94 229.65,-329.02"/>
<polygon fill="black" stroke="black" points="232.51,-326.95 222.9,-322.49 227.63,-331.97 232.51,-326.95"/>
</g>
<!-- 15 -->
<g id="node11" class="node">
<title>15</title>
<ellipse fill="none" stroke="black" cx="351" cy="-306" rx="27" ry="18"/>
<text text-anchor="middle" x="351" y="-302.3" font-family="Times,serif" font-size="14.00">*</text>
</g>
<!-- 0&#45;&gt;15 -->
<g id="edge20" class="edge">
<title>0&#45;&gt;15</title>
<path fill="none" stroke="black" d="M293.92,-362.5C303.86,-352.83 317.12,-339.94 328.35,-329.02"/>
<polygon fill="black" stroke="black" points="330.37,-331.97 335.1,-322.49 325.49,-326.95 330.37,-331.97"/>
</g>
<!-- 2 -->
<g id="node3" class="node">
<title>2</title>
<ellipse fill="none" stroke="black" cx="99" cy="-234" rx="27" ry="18"/>
<text text-anchor="middle" x="99" y="-230.3" font-family="Times,serif" font-size="14.00">*</text>
</g>
<!-- 1&#45;&gt;2 -->
<g id="edge5" class="edge">
<title>1&#45;&gt;2</title>
<path fill="none" stroke="black" d="M188.19,-292.81C171.33,-281.88 146.38,-265.71 127.15,-253.24"/>
<polygon fill="black" stroke="black" points="129.25,-249.79 118.96,-247.29 125.45,-255.66 129.25,-249.79"/>
</g>
<!-- 10 -->
<g id="node8" class="node">
<title>10</title>
<ellipse fill="none" stroke="black" cx="207" cy="-234" rx="27" ry="18"/>
<text text-anchor="middle" x="207" y="-230.3" font-family="Times,serif" font-size="14.00">*</text>
</g>
<!-- 1&#45;&gt;10 -->
<g id="edge8" class="edge">
<title>1&#45;&gt;10</title>
<path fill="none" stroke="black" d="M207,-287.7C207,-280.24 207,-271.32 207,-262.97"/>
<polygon fill="black" stroke="black" points="210.5,-263.1 207,-253.1 203.5,-263.1 210.5,-263.1"/>
</g>
<!-- 3 -->
<g id="node4" class="node">
<title>3</title>
<ellipse fill="none" stroke="black" cx="27" cy="-162" rx="27" ry="18"/>
<text text-anchor="middle" x="27" y="-158.3" font-family="Times,serif" font-size="14.00">1</text>
</g>
<!-- 2&#45;&gt;3 -->
<g id="edge1" class="edge">
<title>2&#45;&gt;3</title>
<path fill="none" stroke="black" d="M84.08,-218.5C74.14,-208.83 60.88,-195.94 49.65,-185.02"/>
<polygon fill="black" stroke="black" points="52.51,-182.95 42.9,-178.49 47.63,-187.97 52.51,-182.95"/>
</g>
<!-- 5 -->
<g id="node5" class="node">
<title>5</title>
<ellipse fill="none" stroke="black" cx="99" cy="-162" rx="27" ry="18"/>
<text text-anchor="middle" x="99" y="-158.3" font-family="Times,serif" font-size="14.00">^</text>
</g>
<!-- 2&#45;&gt;5 -->
<g id="edge4" class="edge">
<title>2&#45;&gt;5</title>
<path fill="none" stroke="black" d="M99,-215.7C99,-208.24 99,-199.32 99,-190.97"/>
<polygon fill="black" stroke="black" points="102.5,-191.1 99,-181.1 95.5,-191.1 102.5,-191.1"/>
</g>
<!-- 6 -->
<g id="node6" class="node">
<title>6</title>
<ellipse fill="none" stroke="black" cx="81" cy="-90" rx="27" ry="18"/>
<text text-anchor="middle" x="81" y="-86.3" font-family="Times,serif" font-size="14.00">2</text>
</g>
<!-- 5&#45;&gt;6 -->
<g id="edge2" class="edge">
<title>5&#45;&gt;6</title>
<path fill="none" stroke="black" d="M94.64,-144.05C92.65,-136.32 90.25,-126.96 88.01,-118.27"/>
<polygon fill="black" stroke="black" points="91.2,-117.6 85.32,-108.79 84.42,-119.35 91.2,-117.6"/>
</g>
<!-- 8 -->
<g id="node7" class="node">
<title>8</title>
<ellipse fill="none" stroke="black" cx="153" cy="-90" rx="27" ry="18"/>
<text text-anchor="middle" x="153" y="-86.3" font-family="Times,serif" font-size="14.00">8</text>
</g>
<!-- 5&#45;&gt;8 -->
<g id="edge3" class="edge">
<title>5&#45;&gt;8</title>
<path fill="none" stroke="black" d="M110.98,-145.46C117.91,-136.49 126.76,-125.02 134.55,-114.92"/>
<polygon fill="black" stroke="black" points="137.71,-117.55 141.05,-107.49 132.17,-113.27 137.71,-117.55"/>
</g>
<!-- 11 -->
<g id="node9" class="node">
<title>11</title>
<ellipse fill="none" stroke="black" cx="171" cy="-162" rx="27" ry="18"/>
<text text-anchor="middle" x="171" y="-158.3" font-family="Times,serif" font-size="14.00">1</text>
</g>
<!-- 10&#45;&gt;11 -->
<g id="edge6" class="edge">
<title>10&#45;&gt;11</title>
<path fill="none" stroke="black" d="M198.65,-216.76C194.38,-208.46 189.08,-198.15 184.27,-188.79"/>
<polygon fill="black" stroke="black" points="186.99,-187.44 179.3,-180.15 180.77,-190.64 186.99,-187.44"/>
</g>
<!-- 13 -->
<g id="node10" class="node">
<title>13</title>
<ellipse fill="none" stroke="black" cx="243" cy="-162" rx="27" ry="18"/>
<text text-anchor="middle" x="243" y="-158.3" font-family="Times,serif" font-size="14.00">pi</text>
</g>
<!-- 10&#45;&gt;13 -->
<g id="edge7" class="edge">
<title>10&#45;&gt;13</title>
<path fill="none" stroke="black" d="M215.35,-216.76C219.62,-208.46 224.92,-198.15 229.73,-188.79"/>
<polygon fill="black" stroke="black" points="233.23,-190.64 234.7,-180.15 227.01,-187.44 233.23,-190.64"/>
</g>
<!-- 16 -->
<g id="node12" class="node">
<title>16</title>
<ellipse fill="none" stroke="black" cx="351" cy="-234" rx="27" ry="18"/>
<text text-anchor="middle" x="351" y="-230.3" font-family="Times,serif" font-size="14.00">*</text>
</g>
<!-- 15&#45;&gt;16 -->
<g id="edge16" class="edge">
<title>15&#45;&gt;16</title>
<path fill="none" stroke="black" d="M351,-287.7C351,-280.24 351,-271.32 351,-262.97"/>
<polygon fill="black" stroke="black" points="354.5,-263.1 351,-253.1 347.5,-263.1 354.5,-263.1"/>
</g>
<!-- 27 -->
<g id="node19" class="node">
<title>27</title>
<ellipse fill="none" stroke="black" cx="459" cy="-234" rx="27" ry="18"/>
<text text-anchor="middle" x="459" y="-230.3" font-family="Times,serif" font-size="14.00">^</text>
</g>
<!-- 15&#45;&gt;27 -->
<g id="edge19" class="edge">
<title>15&#45;&gt;27</title>
<path fill="none" stroke="black" d="M369.81,-292.81C386.67,-281.88 411.62,-265.71 430.85,-253.24"/>
<polygon fill="black" stroke="black" points="432.55,-255.66 439.04,-247.29 428.75,-249.79 432.55,-255.66"/>
</g>
<!-- 17 -->
<g id="node13" class="node">
<title>17</title>
<ellipse fill="none" stroke="black" cx="315" cy="-162" rx="27" ry="18"/>
<text text-anchor="middle" x="315" y="-158.3" font-family="Times,serif" font-size="14.00">*</text>
</g>
<!-- 16&#45;&gt;17 -->
<g id="edge14" class="edge">
<title>16&#45;&gt;17</title>
<path fill="none" stroke="black" d="M342.65,-216.76C338.38,-208.46 333.08,-198.15 328.27,-188.79"/>
<polygon fill="black" stroke="black" points="330.99,-187.44 323.3,-180.15 324.77,-190.64 330.99,-187.44"/>
</g>
<!-- 25 -->
<g id="node18" class="node">
<title>25</title>
<ellipse fill="none" stroke="black" cx="387" cy="-162" rx="27" ry="18"/>
<text text-anchor="middle" x="387" y="-158.3" font-family="Times,serif" font-size="14.00">x</text>
</g>
<!-- 16&#45;&gt;25 -->
<g id="edge15" class="edge">
<title>16&#45;&gt;25</title>
<path fill="none" stroke="black" d="M359.35,-216.76C363.62,-208.46 368.92,-198.15 373.73,-188.79"/>
<polygon fill="black" stroke="black" points="377.23,-190.64 378.7,-180.15 371.01,-187.44 377.23,-190.64"/>
</g>
<!-- 18 -->
<g id="node14" class="node">
<title>18</title>
<ellipse fill="none" stroke="black" cx="261" cy="-90" rx="27" ry="18"/>
<text text-anchor="middle" x="261" y="-86.3" font-family="Times,serif" font-size="14.00">1</text>
</g>
<!-- 17&#45;&gt;18 -->
<g id="edge10" class="edge">
<title>17&#45;&gt;18</title>
<path fill="none" stroke="black" d="M303.02,-145.46C296.09,-136.49 287.24,-125.02 279.45,-114.92"/>
<polygon fill="black" stroke="black" points="281.83,-113.27 272.95,-107.49 276.29,-117.55 281.83,-113.27"/>
</g>
<!-- 20 -->
<g id="node15" class="node">
<title>20</title>
<ellipse fill="none" stroke="black" cx="333" cy="-90" rx="27" ry="18"/>
<text text-anchor="middle" x="333" y="-86.3" font-family="Times,serif" font-size="14.00">^</text>
</g>
<!-- 17&#45;&gt;20 -->
<g id="edge13" class="edge">
<title>17&#45;&gt;20</title>
<path fill="none" stroke="black" d="M319.36,-144.05C321.35,-136.32 323.75,-126.96 325.99,-118.27"/>
<polygon fill="black" stroke="black" points="329.58,-119.35 328.68,-108.79 322.8,-117.6 329.58,-119.35"/>
</g>
<!-- 21 -->
<g id="node16" class="node">
<title>21</title>
<ellipse fill="none" stroke="black" cx="297" cy="-18" rx="27" ry="18"/>
<text text-anchor="middle" x="297" y="-14.3" font-family="Times,serif" font-size="14.00">x</text>
</g>
<!-- 20&#45;&gt;21 -->
<g id="edge11" class="edge">
<title>20&#45;&gt;21</title>
<path fill="none" stroke="black" d="M324.65,-72.76C320.38,-64.46 315.08,-54.15 310.27,-44.79"/>
<polygon fill="black" stroke="black" points="312.99,-43.44 305.3,-36.15 306.77,-46.64 312.99,-43.44"/>
</g>
<!-- 23 -->
<g id="node17" class="node">
<title>23</title>
<ellipse fill="none" stroke="black" cx="369" cy="-18" rx="27" ry="18"/>
<text text-anchor="middle" x="369" y="-14.3" font-family="Times,serif" font-size="14.00">8</text>
</g>
<!-- 20&#45;&gt;23 -->
<g id="edge12" class="edge">
<title>20&#45;&gt;23</title>
<path fill="none" stroke="black" d="M341.35,-72.76C345.62,-64.46 350.92,-54.15 355.73,-44.79"/>
<polygon fill="black" stroke="black" points="359.23,-46.64 360.7,-36.15 353.01,-43.44 359.23,-46.64"/>
</g>
<!-- 28 -->
<g id="node20" class="node">
<title>28</title>
<ellipse fill="none" stroke="black" cx="459" cy="-162" rx="27" ry="18"/>
<text text-anchor="middle" x="459" y="-158.3" font-family="Times,serif" font-size="14.00">x</text>
</g>
<!-- 27&#45;&gt;28 -->
<g id="edge17" class="edge">
<title>27&#45;&gt;28</title>
<path fill="none" stroke="black" d="M459,-215.7C459,-208.24 459,-199.32 459,-190.97"/>
<polygon fill="black" stroke="black" points="462.5,-191.1 459,-181.1 455.5,-191.1 462.5,-191.1"/>
</g>
<!-- 30 -->
<g id="node21" class="node">
<title>30</title>
<ellipse fill="none" stroke="black" cx="531" cy="-162" rx="27" ry="18"/>
<text text-anchor="middle" x="531" y="-158.3" font-family="Times,serif" font-size="14.00">&#45;9</text>
</g>
<!-- 27&#45;&gt;30 -->
<g id="edge18" class="edge">
<title>27&#45;&gt;30</title>
<path fill="none" stroke="black" d="M473.92,-218.5C483.86,-208.83 497.12,-195.94 508.35,-185.02"/>
<polygon fill="black" stroke="black" points="510.37,-187.97 515.1,-178.49 505.49,-182.95 510.37,-187.97"/>
</g>
</g>
</svg>
