<?xml version="1.0" encoding="UTF-8" standalone="no"?>
<!DOCTYPE svg PUBLIC "-//W3C//DTD SVG 1.1//EN"
 "http://www.w3.org/Graphics/SVG/1.1/DTD/svg11.dtd">
<!-- Generated by graphviz version 8.0.1 (20230327.1645)
 -->
<!-- Title: G Pages: 1 -->
<svg width="458pt" height="404pt"
 viewBox="0.00 0.00 458.00 404.00" xmlns="http://www.w3.org/2000/svg" xmlns:xlink="http://www.w3.org/1999/xlink">
<g id="graph0" class="graph" transform="scale(1 1) rotate(0) translate(4 400)">
<title>G</title>
<polygon fill="white" stroke="none" points="-4,4 -4,-400 454,-400 454,4 -4,4"/>
<!-- 0 -->
<g id="node1" class="node">
<title>0</title>
<ellipse fill="none" stroke="black" cx="117" cy="-378" rx="27" ry="18"/>
<text text-anchor="middle" x="117" y="-374.3" font-family="Times,serif" font-size="14.00">+</text>
</g>
<!-- 1 -->
<g id="node2" class="node">
<title>1</title>
<ellipse fill="none" stroke="black" cx="81" cy="-306" rx="27" ry="18"/>
<text text-anchor="middle" x="81" y="-302.3" font-family="Times,serif" font-size="14.00">1</text>
</g>
<!-- 0&#45;&gt;1 -->
<g id="edge1" class="edge">
<title>0&#45;&gt;1</title>
<path fill="none" stroke="black" d="M108.65,-360.76C104.38,-352.46 99.08,-342.15 94.27,-332.79"/>
<polygon fill="black" stroke="black" points="96.99,-331.44 89.3,-324.15 90.77,-334.64 96.99,-331.44"/>
</g>
<!-- 3 -->
<g id="node3" class="node">
<title>3</title>
<ellipse fill="none" stroke="black" cx="153" cy="-306" rx="27" ry="18"/>
<text text-anchor="middle" x="153" y="-302.3" font-family="Times,serif" font-size="14.00">+</text>
</g>
<!-- 0&#45;&gt;3 -->
<g id="edge17" class="edge">
<title>0&#45;&gt;3</title>
<path fill="none" stroke="black" d="M125.35,-360.76C129.62,-352.46 134.92,-342.15 139.73,-332.79"/>
<polygon fill="black" stroke="black" points="143.23,-334.64 144.7,-324.15 137.01,-331.44 143.23,-334.64"/>
</g>
<!-- 4 -->
<g id="node4" class="node">
<title>4</title>
<ellipse fill="none" stroke="black" cx="99" cy="-234" rx="27" ry="18"/>
<text text-anchor="middle" x="99" y="-230.3" font-family="Times,serif" font-size="14.00">*</text>
</g>
<!-- 3&#45;&gt;4 -->
<g id="edge6" class="edge">
<title>3&#45;&gt;4</title>
<path fill="none" stroke="black" d="M141.02,-289.46C134.09,-280.49 125.24,-269.02 117.45,-258.92"/>
<polygon fill="black" stroke="black" points="119.83,-257.27 110.95,-251.49 114.29,-261.55 119.83,-257.27"/>
</g>
<!-- 12 -->
<g id="node9" class="node">
<title>12</title>
<ellipse fill="none" stroke="black" cx="207" cy="-234" rx="27" ry="18"/>
<text text-anchor="middle" x="207" y="-230.3" font-family="Times,serif" font-size="14.00">*</text>
</g>
<!-- 3&#45;&gt;12 -->
<g id="edge16" class="edge">
<title>3&#45;&gt;12</title>
<path fill="none" stroke="black" d="M164.98,-289.46C171.91,-280.49 180.76,-269.02 188.55,-258.92"/>
<polygon fill="black" stroke="black" points="191.71,-261.55 195.05,-251.49 186.17,-257.27 191.71,-261.55"/>
</g>
<!-- 5 -->
<g id="node5" class="node">
<title>5</title>
<ellipse fill="none" stroke="black" cx="27" cy="-162" rx="27" ry="18"/>
<text text-anchor="middle" x="27" y="-158.3" font-family="Times,serif" font-size="14.00">a</text>
</g>
<!-- 4&#45;&gt;5 -->
<g id="edge2" class="edge">
<title>4&#45;&gt;5</title>
<path fill="none" stroke="black" d="M84.08,-218.5C74.14,-208.83 60.88,-195.94 49.65,-185.02"/>
<polygon fill="black" stroke="black" points="52.51,-182.95 42.9,-178.49 47.63,-187.97 52.51,-182.95"/>
</g>
<!-- 7 -->
<g id="node6" class="node">
<title>7</title>
<ellipse fill="none" stroke="black" cx="99" cy="-162" rx="27" ry="18"/>
<text text-anchor="middle" x="99" y="-158.3" font-family="Times,serif" font-size="14.00">^</text>
</g>
<!-- 4&#45;&gt;7 -->
<g id="edge5" class="edge">
<title>4&#45;&gt;7</title>
<path fill="none" stroke="black" d="M99,-215.7C99,-208.24 99,-199.32 99,-190.97"/>
<polygon fill="black" stroke="black" points="102.5,-191.1 99,-181.1 95.5,-191.1 102.5,-191.1"/>
</g>
<!-- 8 -->
<g id="node7" class="node">
<title>8</title>
<ellipse fill="none" stroke="black" cx="27" cy="-90" rx="27" ry="18"/>
<text text-anchor="middle" x="27" y="-86.3" font-family="Times,serif" font-size="14.00">x</text>
</g>
<!-- 7&#45;&gt;8 -->
<g id="edge3" class="edge">
<title>7&#45;&gt;8</title>
<path fill="none" stroke="black" d="M84.08,-146.5C74.14,-136.83 60.88,-123.94 49.65,-113.02"/>
<polygon fill="black" stroke="black" points="52.51,-110.95 42.9,-106.49 47.63,-115.97 52.51,-110.95"/>
</g>
<!-- 10 -->
<g id="node8" class="node">
<title>10</title>
<ellipse fill="none" stroke="black" cx="99" cy="-90" rx="27" ry="18"/>
<text text-anchor="middle" x="99" y="-86.3" font-family="Times,serif" font-size="14.00">&#45;2</text>
</g>
<!-- 7&#45;&gt;10 -->
<g id="edge4" class="edge">
<title>7&#45;&gt;10</title>
<path fill="none" stroke="black" d="M99,-143.7C99,-136.24 99,-127.32 99,-118.97"/>
<polygon fill="black" stroke="black" points="102.5,-119.1 99,-109.1 95.5,-119.1 102.5,-119.1"/>
</g>
<!-- 13 -->
<g id="node10" class="node">
<title>13</title>
<ellipse fill="none" stroke="black" cx="207" cy="-162" rx="27" ry="18"/>
<text text-anchor="middle" x="207" y="-158.3" font-family="Times,serif" font-size="14.00">*</text>
</g>
<!-- 12&#45;&gt;13 -->
<g id="edge10" class="edge">
<title>12&#45;&gt;13</title>
<path fill="none" stroke="black" d="M207,-215.7C207,-208.24 207,-199.32 207,-190.97"/>
<polygon fill="black" stroke="black" points="210.5,-191.1 207,-181.1 203.5,-191.1 210.5,-191.1"/>
</g>
<!-- 19 -->
<g id="node14" class="node">
<title>19</title>
<ellipse fill="none" stroke="black" cx="315" cy="-162" rx="27" ry="18"/>
<text text-anchor="middle" x="315" y="-158.3" font-family="Times,serif" font-size="14.00">*</text>
</g>
<!-- 12&#45;&gt;19 -->
<g id="edge15" class="edge">
<title>12&#45;&gt;19</title>
<path fill="none" stroke="black" d="M225.81,-220.81C242.67,-209.88 267.62,-193.71 286.85,-181.24"/>
<polygon fill="black" stroke="black" points="288.55,-183.66 295.04,-175.29 284.75,-177.79 288.55,-183.66"/>
</g>
<!-- 14 -->
<g id="node11" class="node">
<title>14</title>
<ellipse fill="none" stroke="black" cx="171" cy="-90" rx="27" ry="18"/>
<text text-anchor="middle" x="171" y="-86.3" font-family="Times,serif" font-size="14.00">a</text>
</g>
<!-- 13&#45;&gt;14 -->
<g id="edge7" class="edge">
<title>13&#45;&gt;14</title>
<path fill="none" stroke="black" d="M198.65,-144.76C194.38,-136.46 189.08,-126.15 184.27,-116.79"/>
<polygon fill="black" stroke="black" points="186.99,-115.44 179.3,-108.15 180.77,-118.64 186.99,-115.44"/>
</g>
<!-- 16 -->
<g id="node12" class="node">
<title>16</title>
<ellipse fill="none" stroke="black" cx="243" cy="-90" rx="27" ry="18"/>
<text text-anchor="middle" x="243" y="-86.3" font-family="Times,serif" font-size="14.00">ln</text>
</g>
<!-- 13&#45;&gt;16 -->
<g id="edge9" class="edge">
<title>13&#45;&gt;16</title>
<path fill="none" stroke="black" d="M215.35,-144.76C219.62,-136.46 224.92,-126.15 229.73,-116.79"/>
<polygon fill="black" stroke="black" points="233.23,-118.64 234.7,-108.15 227.01,-115.44 233.23,-118.64"/>
</g>
<!-- 17 -->
<g id="node13" class="node">
<title>17</title>
<ellipse fill="none" stroke="black" cx="243" cy="-18" rx="27" ry="18"/>
<text text-anchor="middle" x="243" y="-14.3" font-family="Times,serif" font-size="14.00">x</text>
</g>
<!-- 16&#45;&gt;17 -->
<g id="edge8" class="edge">
<title>16&#45;&gt;17</title>
<path fill="none" stroke="black" d="M243,-71.7C243,-64.24 243,-55.32 243,-46.97"/>
<polygon fill="black" stroke="black" points="246.5,-47.1 243,-37.1 239.5,-47.1 246.5,-47.1"/>
</g>
<!-- 20 -->
<g id="node15" class="node">
<title>20</title>
<ellipse fill="none" stroke="black" cx="315" cy="-90" rx="27" ry="18"/>
<text text-anchor="middle" x="315" y="-86.3" font-family="Times,serif" font-size="14.00">&#45;1</text>
</g>
<!-- 19&#45;&gt;20 -->
<g id="edge11" class="edge">
<title>19&#45;&gt;20</title>
<path fill="none" stroke="black" d="M315,-143.7C315,-136.24 315,-127.32 315,-118.97"/>
<polygon fill="black" stroke="black" points="318.5,-119.1 315,-109.1 311.5,-119.1 318.5,-119.1"/>
</g>
<!-- 22 -->
<g id="node16" class="node">
<title>22</title>
<ellipse fill="none" stroke="black" cx="387" cy="-90" rx="27" ry="18"/>
<text text-anchor="middle" x="387" y="-86.3" font-family="Times,serif" font-size="14.00">^</text>
</g>
<!-- 19&#45;&gt;22 -->
<g id="edge14" class="edge">
<title>19&#45;&gt;22</title>
<path fill="none" stroke="black" d="M329.92,-146.5C339.86,-136.83 353.12,-123.94 364.35,-113.02"/>
<polygon fill="black" stroke="black" points="366.37,-115.97 371.1,-106.49 361.49,-110.95 366.37,-115.97"/>
</g>
<!-- 23 -->
<g id="node17" class="node">
<title>23</title>
<ellipse fill="none" stroke="black" cx="351" cy="-18" rx="27" ry="18"/>
<text text-anchor="middle" x="351" y="-14.3" font-family="Times,serif" font-size="14.00">x</text>
</g>
<!-- 22&#45;&gt;23 -->
<g id="edge12" class="edge">
<title>22&#45;&gt;23</title>
<path fill="none" stroke="black" d="M378.65,-72.76C374.38,-64.46 369.08,-54.15 364.27,-44.79"/>
<polygon fill="black" stroke="black" points="366.99,-43.44 359.3,-36.15 360.77,-46.64 366.99,-43.44"/>
</g>
<!-- 25 -->
<g id="node18" class="node">
<title>25</title>
<ellipse fill="none" stroke="black" cx="423" cy="-18" rx="27" ry="18"/>
<text text-anchor="middle" x="423" y="-14.3" font-family="Times,serif" font-size="14.00">&#45;2</text>
</g>
<!-- 22&#45;&gt;25 -->
<g id="edge13" class="edge">
<title>22&#45;&gt;25</title>
<path fill="none" stroke="black" d="M395.35,-72.76C399.62,-64.46 404.92,-54.15 409.73,-44.79"/>
<polygon fill="black" stroke="black" points="413.23,-46.64 414.7,-36.15 407.01,-43.44 413.23,-46.64"/>
</g>
</g>
</svg>
