<?xml version="1.0" encoding="UTF-8" standalone="no"?>
<!DOCTYPE svg PUBLIC "-//W3C//DTD SVG 1.1//EN"
 "http://www.w3.org/Graphics/SVG/1.1/DTD/svg11.dtd">
<!-- Generated by graphviz version 8.0.1 (20230327.1645)
 -->
<!-- Title: G Pages: 1 -->
<svg width="314pt" height="476pt"
 viewBox="0.00 0.00 314.00 476.00" xmlns="http://www.w3.org/2000/svg" xmlns:xlink="http://www.w3.org/1999/xlink">
<g id="graph0" class="graph" transform="scale(1 1) rotate(0) translate(4 472)">
<title>G</title>
<polygon fill="white" stroke="none" points="-4,4 -4,-472 310,-472 310,4 -4,4"/>
<!-- 0 -->
<g id="node1" class="node">
<title>0</title>
<ellipse fill="none" stroke="black" cx="243" cy="-450" rx="27" ry="18"/>
<text text-anchor="middle" x="243" y="-446.3" font-family="Times,serif" font-size="14.00">+</text>
</g>
<!-- 1 -->
<g id="node2" class="node">
<title>1</title>
<ellipse fill="none" stroke="black" cx="207" cy="-378" rx="27" ry="18"/>
<text text-anchor="middle" x="207" y="-374.3" font-family="Times,serif" font-size="14.00">+</text>
</g>
<!-- 0&#45;&gt;1 -->
<g id="edge11" class="edge">
<title>0&#45;&gt;1</title>
<path fill="none" stroke="black" d="M234.65,-432.76C230.38,-424.46 225.08,-414.15 220.27,-404.79"/>
<polygon fill="black" stroke="black" points="222.99,-403.44 215.3,-396.15 216.77,-406.64 222.99,-403.44"/>
</g>
<!-- 18 -->
<g id="node13" class="node">
<title>18</title>
<ellipse fill="none" stroke="black" cx="279" cy="-378" rx="27" ry="18"/>
<text text-anchor="middle" x="279" y="-374.3" font-family="Times,serif" font-size="14.00">7</text>
</g>
<!-- 0&#45;&gt;18 -->
<g id="edge12" class="edge">
<title>0&#45;&gt;18</title>
<path fill="none" stroke="black" d="M251.35,-432.76C255.62,-424.46 260.92,-414.15 265.73,-404.79"/>
<polygon fill="black" stroke="black" points="269.23,-406.64 270.7,-396.15 263.01,-403.44 269.23,-406.64"/>
</g>
<!-- 2 -->
<g id="node3" class="node">
<title>2</title>
<ellipse fill="none" stroke="black" cx="171" cy="-306" rx="27" ry="18"/>
<text text-anchor="middle" x="171" y="-302.3" font-family="Times,serif" font-size="14.00">+</text>
</g>
<!-- 1&#45;&gt;2 -->
<g id="edge9" class="edge">
<title>1&#45;&gt;2</title>
<path fill="none" stroke="black" d="M198.65,-360.76C194.38,-352.46 189.08,-342.15 184.27,-332.79"/>
<polygon fill="black" stroke="black" points="186.99,-331.44 179.3,-324.15 180.77,-334.64 186.99,-331.44"/>
</g>
<!-- 16 -->
<g id="node12" class="node">
<title>16</title>
<ellipse fill="none" stroke="black" cx="243" cy="-306" rx="27" ry="18"/>
<text text-anchor="middle" x="243" y="-302.3" font-family="Times,serif" font-size="14.00">6</text>
</g>
<!-- 1&#45;&gt;16 -->
<g id="edge10" class="edge">
<title>1&#45;&gt;16</title>
<path fill="none" stroke="black" d="M215.35,-360.76C219.62,-352.46 224.92,-342.15 229.73,-332.79"/>
<polygon fill="black" stroke="black" points="233.23,-334.64 234.7,-324.15 227.01,-331.44 233.23,-334.64"/>
</g>
<!-- 3 -->
<g id="node4" class="node">
<title>3</title>
<ellipse fill="none" stroke="black" cx="135" cy="-234" rx="27" ry="18"/>
<text text-anchor="middle" x="135" y="-230.3" font-family="Times,serif" font-size="14.00">+</text>
</g>
<!-- 2&#45;&gt;3 -->
<g id="edge7" class="edge">
<title>2&#45;&gt;3</title>
<path fill="none" stroke="black" d="M162.65,-288.76C158.38,-280.46 153.08,-270.15 148.27,-260.79"/>
<polygon fill="black" stroke="black" points="150.99,-259.44 143.3,-252.15 144.77,-262.64 150.99,-259.44"/>
</g>
<!-- 14 -->
<g id="node11" class="node">
<title>14</title>
<ellipse fill="none" stroke="black" cx="207" cy="-234" rx="27" ry="18"/>
<text text-anchor="middle" x="207" y="-230.3" font-family="Times,serif" font-size="14.00">5</text>
</g>
<!-- 2&#45;&gt;14 -->
<g id="edge8" class="edge">
<title>2&#45;&gt;14</title>
<path fill="none" stroke="black" d="M179.35,-288.76C183.62,-280.46 188.92,-270.15 193.73,-260.79"/>
<polygon fill="black" stroke="black" points="197.23,-262.64 198.7,-252.15 191.01,-259.44 197.23,-262.64"/>
</g>
<!-- 4 -->
<g id="node5" class="node">
<title>4</title>
<ellipse fill="none" stroke="black" cx="99" cy="-162" rx="27" ry="18"/>
<text text-anchor="middle" x="99" y="-158.3" font-family="Times,serif" font-size="14.00">+</text>
</g>
<!-- 3&#45;&gt;4 -->
<g id="edge5" class="edge">
<title>3&#45;&gt;4</title>
<path fill="none" stroke="black" d="M126.65,-216.76C122.38,-208.46 117.08,-198.15 112.27,-188.79"/>
<polygon fill="black" stroke="black" points="114.99,-187.44 107.3,-180.15 108.77,-190.64 114.99,-187.44"/>
</g>
<!-- 12 -->
<g id="node10" class="node">
<title>12</title>
<ellipse fill="none" stroke="black" cx="171" cy="-162" rx="27" ry="18"/>
<text text-anchor="middle" x="171" y="-158.3" font-family="Times,serif" font-size="14.00">4</text>
</g>
<!-- 3&#45;&gt;12 -->
<g id="edge6" class="edge">
<title>3&#45;&gt;12</title>
<path fill="none" stroke="black" d="M143.35,-216.76C147.62,-208.46 152.92,-198.15 157.73,-188.79"/>
<polygon fill="black" stroke="black" points="161.23,-190.64 162.7,-180.15 155.01,-187.44 161.23,-190.64"/>
</g>
<!-- 5 -->
<g id="node6" class="node">
<title>5</title>
<ellipse fill="none" stroke="black" cx="63" cy="-90" rx="27" ry="18"/>
<text text-anchor="middle" x="63" y="-86.3" font-family="Times,serif" font-size="14.00">+</text>
</g>
<!-- 4&#45;&gt;5 -->
<g id="edge3" class="edge">
<title>4&#45;&gt;5</title>
<path fill="none" stroke="black" d="M90.65,-144.76C86.38,-136.46 81.08,-126.15 76.27,-116.79"/>
<polygon fill="black" stroke="black" points="78.99,-115.44 71.3,-108.15 72.77,-118.64 78.99,-115.44"/>
</g>
<!-- 10 -->
<g id="node9" class="node">
<title>10</title>
<ellipse fill="none" stroke="black" cx="135" cy="-90" rx="27" ry="18"/>
<text text-anchor="middle" x="135" y="-86.3" font-family="Times,serif" font-size="14.00">3</text>
</g>
<!-- 4&#45;&gt;10 -->
<g id="edge4" class="edge">
<title>4&#45;&gt;10</title>
<path fill="none" stroke="black" d="M107.35,-144.76C111.62,-136.46 116.92,-126.15 121.73,-116.79"/>
<polygon fill="black" stroke="black" points="125.23,-118.64 126.7,-108.15 119.01,-115.44 125.23,-118.64"/>
</g>
<!-- 6 -->
<g id="node7" class="node">
<title>6</title>
<ellipse fill="none" stroke="black" cx="27" cy="-18" rx="27" ry="18"/>
<text text-anchor="middle" x="27" y="-14.3" font-family="Times,serif" font-size="14.00">1</text>
</g>
<!-- 5&#45;&gt;6 -->
<g id="edge1" class="edge">
<title>5&#45;&gt;6</title>
<path fill="none" stroke="black" d="M54.65,-72.76C50.38,-64.46 45.08,-54.15 40.27,-44.79"/>
<polygon fill="black" stroke="black" points="42.99,-43.44 35.3,-36.15 36.77,-46.64 42.99,-43.44"/>
</g>
<!-- 8 -->
<g id="node8" class="node">
<title>8</title>
<ellipse fill="none" stroke="black" cx="99" cy="-18" rx="27" ry="18"/>
<text text-anchor="middle" x="99" y="-14.3" font-family="Times,serif" font-size="14.00">2</text>
</g>
<!-- 5&#45;&gt;8 -->
<g id="edge2" class="edge">
<title>5&#45;&gt;8</title>
<path fill="none" stroke="black" d="M71.35,-72.76C75.62,-64.46 80.92,-54.15 85.73,-44.79"/>
<polygon fill="black" stroke="black" points="89.23,-46.64 90.7,-36.15 83.01,-43.44 89.23,-46.64"/>
</g>
</g>
</svg>
