<?xml version="1.0" encoding="UTF-8" standalone="no"?>
<!DOCTYPE svg PUBLIC "-//W3C//DTD SVG 1.1//EN"
 "http://www.w3.org/Graphics/SVG/1.1/DTD/svg11.dtd">
<!-- Generated by graphviz version 8.0.1 (20230327.1645)
 -->
<!-- Title: G Pages: 1 -->
<svg width="242pt" height="332pt"
 viewBox="0.00 0.00 242.00 332.00" xmlns="http://www.w3.org/2000/svg" xmlns:xlink="http://www.w3.org/1999/xlink">
<g id="graph0" class="graph" transform="scale(1 1) rotate(0) translate(4 328)">
<title>G</title>
<polygon fill="white" stroke="none" points="-4,4 -4,-328 238,-328 238,4 -4,4"/>
<!-- 0 -->
<g id="node1" class="node">
<title>0</title>
<ellipse fill="none" stroke="black" cx="63" cy="-306" rx="27" ry="18"/>
<text text-anchor="middle" x="63" y="-302.3" font-family="Times,serif" font-size="14.00">*</text>
</g>
<!-- 1 -->
<g id="node2" class="node">
<title>1</title>
<ellipse fill="none" stroke="black" cx="27" cy="-234" rx="27" ry="18"/>
<text text-anchor="middle" x="27" y="-230.3" font-family="Times,serif" font-size="14.00">2</text>
</g>
<!-- 0&#45;&gt;1 -->
<g id="edge1" class="edge">
<title>0&#45;&gt;1</title>
<path fill="none" stroke="black" d="M54.65,-288.76C50.38,-280.46 45.08,-270.15 40.27,-260.79"/>
<polygon fill="black" stroke="black" points="42.99,-259.44 35.3,-252.15 36.77,-262.64 42.99,-259.44"/>
</g>
<!-- 3 -->
<g id="node3" class="node">
<title>3</title>
<ellipse fill="none" stroke="black" cx="99" cy="-234" rx="27" ry="18"/>
<text text-anchor="middle" x="99" y="-230.3" font-family="Times,serif" font-size="14.00">*</text>
</g>
<!-- 0&#45;&gt;3 -->
<g id="edge8" class="edge">
<title>0&#45;&gt;3</title>
<path fill="none" stroke="black" d="M71.35,-288.76C75.62,-280.46 80.92,-270.15 85.73,-260.79"/>
<polygon fill="black" stroke="black" points="89.23,-262.64 90.7,-252.15 83.01,-259.44 89.23,-262.64"/>
</g>
<!-- 4 -->
<g id="node4" class="node">
<title>4</title>
<ellipse fill="none" stroke="black" cx="63" cy="-162" rx="27" ry="18"/>
<text text-anchor="middle" x="63" y="-158.3" font-family="Times,serif" font-size="14.00">sin</text>
</g>
<!-- 3&#45;&gt;4 -->
<g id="edge3" class="edge">
<title>3&#45;&gt;4</title>
<path fill="none" stroke="black" d="M90.65,-216.76C86.38,-208.46 81.08,-198.15 76.27,-188.79"/>
<polygon fill="black" stroke="black" points="78.99,-187.44 71.3,-180.15 72.77,-190.64 78.99,-187.44"/>
</g>
<!-- 7 -->
<g id="node6" class="node">
<title>7</title>
<ellipse fill="none" stroke="black" cx="135" cy="-162" rx="27" ry="18"/>
<text text-anchor="middle" x="135" y="-158.3" font-family="Times,serif" font-size="14.00">^</text>
</g>
<!-- 3&#45;&gt;7 -->
<g id="edge7" class="edge">
<title>3&#45;&gt;7</title>
<path fill="none" stroke="black" d="M107.35,-216.76C111.62,-208.46 116.92,-198.15 121.73,-188.79"/>
<polygon fill="black" stroke="black" points="125.23,-190.64 126.7,-180.15 119.01,-187.44 125.23,-190.64"/>
</g>
<!-- 5 -->
<g id="node5" class="node">
<title>5</title>
<ellipse fill="none" stroke="black" cx="63" cy="-90" rx="27" ry="18"/>
<text text-anchor="middle" x="63" y="-86.3" font-family="Times,serif" font-size="14.00">x</text>
</g>
<!-- 4&#45;&gt;5 -->
<g id="edge2" class="edge">
<title>4&#45;&gt;5</title>
<path fill="none" stroke="black" d="M63,-143.7C63,-136.24 63,-127.32 63,-118.97"/>
<polygon fill="black" stroke="black" points="66.5,-119.1 63,-109.1 59.5,-119.1 66.5,-119.1"/>
</g>
<!-- 8 -->
<g id="node7" class="node">
<title>8</title>
<ellipse fill="none" stroke="black" cx="135" cy="-90" rx="27" ry="18"/>
<text text-anchor="middle" x="135" y="-86.3" font-family="Times,serif" font-size="14.00">cos</text>
</g>
<!-- 7&#45;&gt;8 -->
<g id="edge5" class="edge">
<title>7&#45;&gt;8</title>
<path fill="none" stroke="black" d="M135,-143.7C135,-136.24 135,-127.32 135,-118.97"/>
<polygon fill="black" stroke="black" points="138.5,-119.1 135,-109.1 131.5,-119.1 138.5,-119.1"/>
</g>
<!-- 11 -->
<g id="node9" class="node">
<title>11</title>
<ellipse fill="none" stroke="black" cx="207" cy="-90" rx="27" ry="18"/>
<text text-anchor="middle" x="207" y="-86.3" font-family="Times,serif" font-size="14.00">&#45;3</text>
</g>
<!-- 7&#45;&gt;11 -->
<g id="edge6" class="edge">
<title>7&#45;&gt;11</title>
<path fill="none" stroke="black" d="M149.92,-146.5C159.86,-136.83 173.12,-123.94 184.35,-113.02"/>
<polygon fill="black" stroke="black" points="186.37,-115.97 191.1,-106.49 181.49,-110.95 186.37,-115.97"/>
</g>
<!-- 9 -->
<g id="node8" class="node">
<title>9</title>
<ellipse fill="none" stroke="black" cx="135" cy="-18" rx="27" ry="18"/>
<text text-anchor="middle" x="135" y="-14.3" font-family="Times,serif" font-size="14.00">x</text>
</g>
<!-- 8&#45;&gt;9 -->
<g id="edge4" class="edge">
<title>8&#45;&gt;9</title>
<path fill="none" stroke="black" d="M135,-71.7C135,-64.24 135,-55.32 135,-46.97"/>
<polygon fill="black" stroke="black" points="138.5,-47.1 135,-37.1 131.5,-47.1 138.5,-47.1"/>
</g>
</g>
</svg>
