<?xml version="1.0" encoding="UTF-8" standalone="no"?>
<!DOCTYPE svg PUBLIC "-//W3C//DTD SVG 1.1//EN"
 "http://www.w3.org/Graphics/SVG/1.1/DTD/svg11.dtd">
<!-- Generated by graphviz version 8.0.1 (20230327.1645)
 -->
<!-- Title: G Pages: 1 -->
<svg width="566pt" height="548pt"
 viewBox="0.00 0.00 566.00 548.00" xmlns="http://www.w3.org/2000/svg" xmlns:xlink="http://www.w3.org/1999/xlink">
<g id="graph0" class="graph" transform="scale(1 1) rotate(0) translate(4 544)">
<title>G</title>
<polygon fill="white" stroke="none" points="-4,4 -4,-544 562,-544 562,4 -4,4"/>
<!-- 0 -->
<g id="node1" class="node">
<title>0</title>
<ellipse fill="none" stroke="black" cx="279" cy="-522" rx="27" ry="18"/>
<text text-anchor="middle" x="279" y="-518.3" font-family="Times,serif" font-size="14.00">+</text>
</g>
<!-- 1 -->
<g id="node2" class="node">
<title>1</title>
<ellipse fill="none" stroke="black" cx="243" cy="-450" rx="27" ry="18"/>
<text text-anchor="middle" x="243" y="-446.3" font-family="Times,serif" font-size="14.00">+</text>
</g>
<!-- 0&#45;&gt;1 -->
<g id="edge13" class="edge">
<title>0&#45;&gt;1</title>
<path fill="none" stroke="black" d="M270.65,-504.76C266.38,-496.46 261.08,-486.15 256.27,-476.79"/>
<polygon fill="black" stroke="black" points="258.99,-475.44 251.3,-468.15 252.77,-478.64 258.99,-475.44"/>
</g>
<!-- 20 -->
<g id="node15" class="node">
<title>20</title>
<ellipse fill="none" stroke="black" cx="351" cy="-450" rx="27" ry="18"/>
<text text-anchor="middle" x="351" y="-446.3" font-family="Times,serif" font-size="14.00">*</text>
</g>
<!-- 0&#45;&gt;20 -->
<g id="edge26" class="edge">
<title>0&#45;&gt;20</title>
<path fill="none" stroke="black" d="M293.92,-506.5C303.86,-496.83 317.12,-483.94 328.35,-473.02"/>
<polygon fill="black" stroke="black" points="330.37,-475.97 335.1,-466.49 325.49,-470.95 330.37,-475.97"/>
</g>
<!-- 2 -->
<g id="node3" class="node">
<title>2</title>
<ellipse fill="none" stroke="black" cx="171" cy="-378" rx="27" ry="18"/>
<text text-anchor="middle" x="171" y="-374.3" font-family="Times,serif" font-size="14.00">1</text>
</g>
<!-- 1&#45;&gt;2 -->
<g id="edge1" class="edge">
<title>1&#45;&gt;2</title>
<path fill="none" stroke="black" d="M228.08,-434.5C218.14,-424.83 204.88,-411.94 193.65,-401.02"/>
<polygon fill="black" stroke="black" points="196.51,-398.95 186.9,-394.49 191.63,-403.97 196.51,-398.95"/>
</g>
<!-- 4 -->
<g id="node4" class="node">
<title>4</title>
<ellipse fill="none" stroke="black" cx="243" cy="-378" rx="27" ry="18"/>
<text text-anchor="middle" x="243" y="-374.3" font-family="Times,serif" font-size="14.00">*</text>
</g>
<!-- 1&#45;&gt;4 -->
<g id="edge12" class="edge">
<title>1&#45;&gt;4</title>
<path fill="none" stroke="black" d="M243,-431.7C243,-424.24 243,-415.32 243,-406.97"/>
<polygon fill="black" stroke="black" points="246.5,-407.1 243,-397.1 239.5,-407.1 246.5,-407.1"/>
</g>
<!-- 5 -->
<g id="node5" class="node">
<title>5</title>
<ellipse fill="none" stroke="black" cx="171" cy="-306" rx="27" ry="18"/>
<text text-anchor="middle" x="171" y="-302.3" font-family="Times,serif" font-size="14.00">*</text>
</g>
<!-- 4&#45;&gt;5 -->
<g id="edge10" class="edge">
<title>4&#45;&gt;5</title>
<path fill="none" stroke="black" d="M228.08,-362.5C218.14,-352.83 204.88,-339.94 193.65,-329.02"/>
<polygon fill="black" stroke="black" points="196.51,-326.95 186.9,-322.49 191.63,-331.97 196.51,-326.95"/>
</g>
<!-- 18 -->
<g id="node14" class="node">
<title>18</title>
<ellipse fill="none" stroke="black" cx="243" cy="-306" rx="27" ry="18"/>
<text text-anchor="middle" x="243" y="-302.3" font-family="Times,serif" font-size="14.00">&#45;1</text>
</g>
<!-- 4&#45;&gt;18 -->
<g id="edge11" class="edge">
<title>4&#45;&gt;18</title>
<path fill="none" stroke="black" d="M243,-359.7C243,-352.24 243,-343.32 243,-334.97"/>
<polygon fill="black" stroke="black" points="246.5,-335.1 243,-325.1 239.5,-335.1 246.5,-335.1"/>
</g>
<!-- 6 -->
<g id="node6" class="node">
<title>6</title>
<ellipse fill="none" stroke="black" cx="99" cy="-234" rx="27" ry="18"/>
<text text-anchor="middle" x="99" y="-230.3" font-family="Times,serif" font-size="14.00">*</text>
</g>
<!-- 5&#45;&gt;6 -->
<g id="edge7" class="edge">
<title>5&#45;&gt;6</title>
<path fill="none" stroke="black" d="M156.08,-290.5C146.14,-280.83 132.88,-267.94 121.65,-257.02"/>
<polygon fill="black" stroke="black" points="124.51,-254.95 114.9,-250.49 119.63,-259.97 124.51,-254.95"/>
</g>
<!-- 15 -->
<g id="node12" class="node">
<title>15</title>
<ellipse fill="none" stroke="black" cx="171" cy="-234" rx="27" ry="18"/>
<text text-anchor="middle" x="171" y="-230.3" font-family="Times,serif" font-size="14.00">sin</text>
</g>
<!-- 5&#45;&gt;15 -->
<g id="edge9" class="edge">
<title>5&#45;&gt;15</title>
<path fill="none" stroke="black" d="M171,-287.7C171,-280.24 171,-271.32 171,-262.97"/>
<polygon fill="black" stroke="black" points="174.5,-263.1 171,-253.1 167.5,-263.1 174.5,-263.1"/>
</g>
<!-- 7 -->
<g id="node7" class="node">
<title>7</title>
<ellipse fill="none" stroke="black" cx="27" cy="-162" rx="27" ry="18"/>
<text text-anchor="middle" x="27" y="-158.3" font-family="Times,serif" font-size="14.00">9</text>
</g>
<!-- 6&#45;&gt;7 -->
<g id="edge2" class="edge">
<title>6&#45;&gt;7</title>
<path fill="none" stroke="black" d="M84.08,-218.5C74.14,-208.83 60.88,-195.94 49.65,-185.02"/>
<polygon fill="black" stroke="black" points="52.51,-182.95 42.9,-178.49 47.63,-187.97 52.51,-182.95"/>
</g>
<!-- 9 -->
<g id="node8" class="node">
<title>9</title>
<ellipse fill="none" stroke="black" cx="99" cy="-162" rx="27" ry="18"/>
<text text-anchor="middle" x="99" y="-158.3" font-family="Times,serif" font-size="14.00">^</text>
</g>
<!-- 6&#45;&gt;9 -->
<g id="edge6" class="edge">
<title>6&#45;&gt;9</title>
<path fill="none" stroke="black" d="M99,-215.7C99,-208.24 99,-199.32 99,-190.97"/>
<polygon fill="black" stroke="black" points="102.5,-191.1 99,-181.1 95.5,-191.1 102.5,-191.1"/>
</g>
<!-- 10 -->
<g id="node9" class="node">
<title>10</title>
<ellipse fill="none" stroke="black" cx="63" cy="-90" rx="27" ry="18"/>
<text text-anchor="middle" x="63" y="-86.3" font-family="Times,serif" font-size="14.00">cos</text>
</g>
<!-- 9&#45;&gt;10 -->
<g id="edge4" class="edge">
<title>9&#45;&gt;10</title>
<path fill="none" stroke="black" d="M90.65,-144.76C86.38,-136.46 81.08,-126.15 76.27,-116.79"/>
<polygon fill="black" stroke="black" points="78.99,-115.44 71.3,-108.15 72.77,-118.64 78.99,-115.44"/>
</g>
<!-- 13 -->
<g id="node11" class="node">
<title>13</title>
<ellipse fill="none" stroke="black" cx="135" cy="-90" rx="27" ry="18"/>
<text text-anchor="middle" x="135" y="-86.3" font-family="Times,serif" font-size="14.00">8</text>
</g>
<!-- 9&#45;&gt;13 -->
<g id="edge5" class="edge">
<title>9&#45;&gt;13</title>
<path fill="none" stroke="black" d="M107.35,-144.76C111.62,-136.46 116.92,-126.15 121.73,-116.79"/>
<polygon fill="black" stroke="black" points="125.23,-118.64 126.7,-108.15 119.01,-115.44 125.23,-118.64"/>
</g>
<!-- 11 -->
<g id="node10" class="node">
<title>11</title>
<ellipse fill="none" stroke="black" cx="63" cy="-18" rx="27" ry="18"/>
<text text-anchor="middle" x="63" y="-14.3" font-family="Times,serif" font-size="14.00">x</text>
</g>
<!-- 10&#45;&gt;11 -->
<g id="edge3" class="edge">
<title>10&#45;&gt;11</title>
<path fill="none" stroke="black" d="M63,-71.7C63,-64.24 63,-55.32 63,-46.97"/>
<polygon fill="black" stroke="black" points="66.5,-47.1 63,-37.1 59.5,-47.1 66.5,-47.1"/>
</g>
<!-- 16 -->
<g id="node13" class="node">
<title>16</title>
<ellipse fill="none" stroke="black" cx="171" cy="-162" rx="27" ry="18"/>
<text text-anchor="middle" x="171" y="-158.3" font-family="Times,serif" font-size="14.00">x</text>
</g>
<!-- 15&#45;&gt;16 -->
<g id="edge8" class="edge">
<title>15&#45;&gt;16</title>
<path fill="none" stroke="black" d="M171,-215.7C171,-208.24 171,-199.32 171,-190.97"/>
<polygon fill="black" stroke="black" points="174.5,-191.1 171,-181.1 167.5,-191.1 174.5,-191.1"/>
</g>
<!-- 21 -->
<g id="node16" class="node">
<title>21</title>
<ellipse fill="none" stroke="black" cx="351" cy="-378" rx="27" ry="18"/>
<text text-anchor="middle" x="351" y="-374.3" font-family="Times,serif" font-size="14.00">+</text>
</g>
<!-- 20&#45;&gt;21 -->
<g id="edge22" class="edge">
<title>20&#45;&gt;21</title>
<path fill="none" stroke="black" d="M351,-431.7C351,-424.24 351,-415.32 351,-406.97"/>
<polygon fill="black" stroke="black" points="354.5,-407.1 351,-397.1 347.5,-407.1 354.5,-407.1"/>
</g>
<!-- 35 -->
<g id="node25" class="node">
<title>35</title>
<ellipse fill="none" stroke="black" cx="459" cy="-378" rx="27" ry="18"/>
<text text-anchor="middle" x="459" y="-374.3" font-family="Times,serif" font-size="14.00">^</text>
</g>
<!-- 20&#45;&gt;35 -->
<g id="edge25" class="edge">
<title>20&#45;&gt;35</title>
<path fill="none" stroke="black" d="M369.81,-436.81C386.67,-425.88 411.62,-409.71 430.85,-397.24"/>
<polygon fill="black" stroke="black" points="432.55,-399.66 439.04,-391.29 428.75,-393.79 432.55,-399.66"/>
</g>
<!-- 22 -->
<g id="node17" class="node">
<title>22</title>
<ellipse fill="none" stroke="black" cx="315" cy="-306" rx="27" ry="18"/>
<text text-anchor="middle" x="315" y="-302.3" font-family="Times,serif" font-size="14.00">^</text>
</g>
<!-- 21&#45;&gt;22 -->
<g id="edge16" class="edge">
<title>21&#45;&gt;22</title>
<path fill="none" stroke="black" d="M342.65,-360.76C338.38,-352.46 333.08,-342.15 328.27,-332.79"/>
<polygon fill="black" stroke="black" points="330.99,-331.44 323.3,-324.15 324.77,-334.64 330.99,-331.44"/>
</g>
<!-- 27 -->
<g id="node20" class="node">
<title>27</title>
<ellipse fill="none" stroke="black" cx="387" cy="-306" rx="27" ry="18"/>
<text text-anchor="middle" x="387" y="-302.3" font-family="Times,serif" font-size="14.00">*</text>
</g>
<!-- 21&#45;&gt;27 -->
<g id="edge21" class="edge">
<title>21&#45;&gt;27</title>
<path fill="none" stroke="black" d="M359.35,-360.76C363.62,-352.46 368.92,-342.15 373.73,-332.79"/>
<polygon fill="black" stroke="black" points="377.23,-334.64 378.7,-324.15 371.01,-331.44 377.23,-334.64"/>
</g>
<!-- 23 -->
<g id="node18" class="node">
<title>23</title>
<ellipse fill="none" stroke="black" cx="243" cy="-234" rx="27" ry="18"/>
<text text-anchor="middle" x="243" y="-230.3" font-family="Times,serif" font-size="14.00">x</text>
</g>
<!-- 22&#45;&gt;23 -->
<g id="edge14" class="edge">
<title>22&#45;&gt;23</title>
<path fill="none" stroke="black" d="M300.08,-290.5C290.14,-280.83 276.88,-267.94 265.65,-257.02"/>
<polygon fill="black" stroke="black" points="268.51,-254.95 258.9,-250.49 263.63,-259.97 268.51,-254.95"/>
</g>
<!-- 25 -->
<g id="node19" class="node">
<title>25</title>
<ellipse fill="none" stroke="black" cx="315" cy="-234" rx="27" ry="18"/>
<text text-anchor="middle" x="315" y="-230.3" font-family="Times,serif" font-size="14.00">&#45;1</text>
</g>
<!-- 22&#45;&gt;25 -->
<g id="edge15" class="edge">
<title>22&#45;&gt;25</title>
<path fill="none" stroke="black" d="M315,-287.7C315,-280.24 315,-271.32 315,-262.97"/>
<polygon fill="black" stroke="black" points="318.5,-263.1 315,-253.1 311.5,-263.1 318.5,-263.1"/>
</g>
<!-- 28 -->
<g id="node21" class="node">
<title>28</title>
<ellipse fill="none" stroke="black" cx="387" cy="-234" rx="27" ry="18"/>
<text text-anchor="middle" x="387" y="-230.3" font-family="Times,serif" font-size="14.00">&#45;1</text>
</g>
<!-- 27&#45;&gt;28 -->
<g id="edge17" class="edge">
<title>27&#45;&gt;28</title>
<path fill="none" stroke="black" d="M387,-287.7C387,-280.24 387,-271.32 387,-262.97"/>
<polygon fill="black" stroke="black" points="390.5,-263.1 387,-253.1 383.5,-263.1 390.5,-263.1"/>
</g>
<!-- 30 -->
<g id="node22" class="node">
<title>30</title>
<ellipse fill="none" stroke="black" cx="459" cy="-234" rx="27" ry="18"/>
<text text-anchor="middle" x="459" y="-230.3" font-family="Times,serif" font-size="14.00">^</text>
</g>
<!-- 27&#45;&gt;30 -->
<g id="edge20" class="edge">
<title>27&#45;&gt;30</title>
<path fill="none" stroke="black" d="M401.92,-290.5C411.86,-280.83 425.12,-267.94 436.35,-257.02"/>
<polygon fill="black" stroke="black" points="438.37,-259.97 443.1,-250.49 433.49,-254.95 438.37,-259.97"/>
</g>
<!-- 31 -->
<g id="node23" class="node">
<title>31</title>
<ellipse fill="none" stroke="black" cx="423" cy="-162" rx="27" ry="18"/>
<text text-anchor="middle" x="423" y="-158.3" font-family="Times,serif" font-size="14.00">x</text>
</g>
<!-- 30&#45;&gt;31 -->
<g id="edge18" class="edge">
<title>30&#45;&gt;31</title>
<path fill="none" stroke="black" d="M450.65,-216.76C446.38,-208.46 441.08,-198.15 436.27,-188.79"/>
<polygon fill="black" stroke="black" points="438.99,-187.44 431.3,-180.15 432.77,-190.64 438.99,-187.44"/>
</g>
<!-- 33 -->
<g id="node24" class="node">
<title>33</title>
<ellipse fill="none" stroke="black" cx="495" cy="-162" rx="27" ry="18"/>
<text text-anchor="middle" x="495" y="-158.3" font-family="Times,serif" font-size="14.00">&#45;2</text>
</g>
<!-- 30&#45;&gt;33 -->
<g id="edge19" class="edge">
<title>30&#45;&gt;33</title>
<path fill="none" stroke="black" d="M467.35,-216.76C471.62,-208.46 476.92,-198.15 481.73,-188.79"/>
<polygon fill="black" stroke="black" points="485.23,-190.64 486.7,-180.15 479.01,-187.44 485.23,-190.64"/>
</g>
<!-- 36 -->
<g id="node26" class="node">
<title>36</title>
<ellipse fill="none" stroke="black" cx="459" cy="-306" rx="27" ry="18"/>
<text text-anchor="middle" x="459" y="-302.3" font-family="Times,serif" font-size="14.00">e</text>
</g>
<!-- 35&#45;&gt;36 -->
<g id="edge23" class="edge">
<title>35&#45;&gt;36</title>
<path fill="none" stroke="black" d="M459,-359.7C459,-352.24 459,-343.32 459,-334.97"/>
<polygon fill="black" stroke="black" points="462.5,-335.1 459,-325.1 455.5,-335.1 462.5,-335.1"/>
</g>
<!-- 38 -->
<g id="node27" class="node">
<title>38</title>
<ellipse fill="none" stroke="black" cx="531" cy="-306" rx="27" ry="18"/>
<text text-anchor="middle" x="531" y="-302.3" font-family="Times,serif" font-size="14.00">x</text>
</g>
<!-- 35&#45;&gt;38 -->
<g id="edge24" class="edge">
<title>35&#45;&gt;38</title>
<path fill="none" stroke="black" d="M473.92,-362.5C483.86,-352.83 497.12,-339.94 508.35,-329.02"/>
<polygon fill="black" stroke="black" points="510.37,-331.97 515.1,-322.49 505.49,-326.95 510.37,-331.97"/>
</g>
</g>
</svg>
