<?xml version="1.0" encoding="UTF-8" standalone="no"?>
<!DOCTYPE svg PUBLIC "-//W3C//DTD SVG 1.1//EN"
 "http://www.w3.org/Graphics/SVG/1.1/DTD/svg11.dtd">
<!-- Generated by graphviz version 8.0.1 (20230327.1645)
 -->
<!-- Title: G Pages: 1 -->
<svg width="1574pt" height="2132pt"
 viewBox="0.00 0.00 1574.00 2132.00" xmlns="http://www.w3.org/2000/svg" xmlns:xlink="http://www.w3.org/1999/xlink">
<g id="graph0" class="graph" transform="scale(1 1) rotate(0) translate(4 2128)">
<title>G</title>
<polygon fill="white" stroke="none" points="-4,4 -4,-2128 1570,-2128 1570,4 -4,4"/>
<!-- 0 -->
<g id="node1" class="node">
<title>0</title>
<ellipse fill="none" stroke="black" cx="1503" cy="-2106" rx="27" ry="18"/>
<text text-anchor="middle" x="1503" y="-2102.3" font-family="Times,serif" font-size="14.00">*</text>
</g>
<!-- 1 -->
<g id="node2" class="node">
<title>1</title>
<ellipse fill="none" stroke="black" cx="1467" cy="-2034" rx="27" ry="18"/>
<text text-anchor="middle" x="1467" y="-2030.3" font-family="Times,serif" font-size="14.00">*</text>
</g>
<!-- 0&#45;&gt;1 -->
<g id="edge81" class="edge">
<title>0&#45;&gt;1</title>
<path fill="none" stroke="black" d="M1494.65,-2088.76C1490.38,-2080.46 1485.08,-2070.15 1480.27,-2060.79"/>
<polygon fill="black" stroke="black" points="1482.99,-2059.44 1475.3,-2052.15 1476.77,-2062.64 1482.99,-2059.44"/>
</g>
<!-- 123 -->
<g id="node83" class="node">
<title>123</title>
<ellipse fill="none" stroke="black" cx="1539" cy="-2034" rx="27" ry="18"/>
<text text-anchor="middle" x="1539" y="-2030.3" font-family="Times,serif" font-size="14.00">z</text>
</g>
<!-- 0&#45;&gt;123 -->
<g id="edge82" class="edge">
<title>0&#45;&gt;123</title>
<path fill="none" stroke="black" d="M1511.35,-2088.76C1515.62,-2080.46 1520.92,-2070.15 1525.73,-2060.79"/>
<polygon fill="black" stroke="black" points="1529.23,-2062.64 1530.7,-2052.15 1523.01,-2059.44 1529.23,-2062.64"/>
</g>
<!-- 2 -->
<g id="node3" class="node">
<title>2</title>
<ellipse fill="none" stroke="black" cx="1431" cy="-1962" rx="27" ry="18"/>
<text text-anchor="middle" x="1431" y="-1958.3" font-family="Times,serif" font-size="14.00">*</text>
</g>
<!-- 1&#45;&gt;2 -->
<g id="edge79" class="edge">
<title>1&#45;&gt;2</title>
<path fill="none" stroke="black" d="M1458.65,-2016.76C1454.38,-2008.46 1449.08,-1998.15 1444.27,-1988.79"/>
<polygon fill="black" stroke="black" points="1446.99,-1987.44 1439.3,-1980.15 1440.77,-1990.64 1446.99,-1987.44"/>
</g>
<!-- 121 -->
<g id="node82" class="node">
<title>121</title>
<ellipse fill="none" stroke="black" cx="1503" cy="-1962" rx="27" ry="18"/>
<text text-anchor="middle" x="1503" y="-1958.3" font-family="Times,serif" font-size="14.00">y</text>
</g>
<!-- 1&#45;&gt;121 -->
<g id="edge80" class="edge">
<title>1&#45;&gt;121</title>
<path fill="none" stroke="black" d="M1475.35,-2016.76C1479.62,-2008.46 1484.92,-1998.15 1489.73,-1988.79"/>
<polygon fill="black" stroke="black" points="1493.23,-1990.64 1494.7,-1980.15 1487.01,-1987.44 1493.23,-1990.64"/>
</g>
<!-- 3 -->
<g id="node4" class="node">
<title>3</title>
<ellipse fill="none" stroke="black" cx="1395" cy="-1890" rx="27" ry="18"/>
<text text-anchor="middle" x="1395" y="-1886.3" font-family="Times,serif" font-size="14.00">*</text>
</g>
<!-- 2&#45;&gt;3 -->
<g id="edge77" class="edge">
<title>2&#45;&gt;3</title>
<path fill="none" stroke="black" d="M1422.65,-1944.76C1418.38,-1936.46 1413.08,-1926.15 1408.27,-1916.79"/>
<polygon fill="black" stroke="black" points="1410.99,-1915.44 1403.3,-1908.15 1404.77,-1918.64 1410.99,-1915.44"/>
</g>
<!-- 119 -->
<g id="node81" class="node">
<title>119</title>
<ellipse fill="none" stroke="black" cx="1467" cy="-1890" rx="27" ry="18"/>
<text text-anchor="middle" x="1467" y="-1886.3" font-family="Times,serif" font-size="14.00">w</text>
</g>
<!-- 2&#45;&gt;119 -->
<g id="edge78" class="edge">
<title>2&#45;&gt;119</title>
<path fill="none" stroke="black" d="M1439.35,-1944.76C1443.62,-1936.46 1448.92,-1926.15 1453.73,-1916.79"/>
<polygon fill="black" stroke="black" points="1457.23,-1918.64 1458.7,-1908.15 1451.01,-1915.44 1457.23,-1918.64"/>
</g>
<!-- 4 -->
<g id="node5" class="node">
<title>4</title>
<ellipse fill="none" stroke="black" cx="1359" cy="-1818" rx="27" ry="18"/>
<text text-anchor="middle" x="1359" y="-1814.3" font-family="Times,serif" font-size="14.00">*</text>
</g>
<!-- 3&#45;&gt;4 -->
<g id="edge75" class="edge">
<title>3&#45;&gt;4</title>
<path fill="none" stroke="black" d="M1386.65,-1872.76C1382.38,-1864.46 1377.08,-1854.15 1372.27,-1844.79"/>
<polygon fill="black" stroke="black" points="1374.99,-1843.44 1367.3,-1836.15 1368.77,-1846.64 1374.99,-1843.44"/>
</g>
<!-- 117 -->
<g id="node80" class="node">
<title>117</title>
<ellipse fill="none" stroke="black" cx="1431" cy="-1818" rx="27" ry="18"/>
<text text-anchor="middle" x="1431" y="-1814.3" font-family="Times,serif" font-size="14.00">v</text>
</g>
<!-- 3&#45;&gt;117 -->
<g id="edge76" class="edge">
<title>3&#45;&gt;117</title>
<path fill="none" stroke="black" d="M1403.35,-1872.76C1407.62,-1864.46 1412.92,-1854.15 1417.73,-1844.79"/>
<polygon fill="black" stroke="black" points="1421.23,-1846.64 1422.7,-1836.15 1415.01,-1843.44 1421.23,-1846.64"/>
</g>
<!-- 5 -->
<g id="node6" class="node">
<title>5</title>
<ellipse fill="none" stroke="black" cx="1323" cy="-1746" rx="27" ry="18"/>
<text text-anchor="middle" x="1323" y="-1742.3" font-family="Times,serif" font-size="14.00">*</text>
</g>
<!-- 4&#45;&gt;5 -->
<g id="edge71" class="edge">
<title>4&#45;&gt;5</title>
<path fill="none" stroke="black" d="M1350.65,-1800.76C1346.38,-1792.46 1341.08,-1782.15 1336.27,-1772.79"/>
<polygon fill="black" stroke="black" points="1338.99,-1771.44 1331.3,-1764.15 1332.77,-1774.64 1338.99,-1771.44"/>
</g>
<!-- 112 -->
<g id="node77" class="node">
<title>112</title>
<ellipse fill="none" stroke="black" cx="1395" cy="-1746" rx="27" ry="18"/>
<text text-anchor="middle" x="1395" y="-1742.3" font-family="Times,serif" font-size="14.00">^</text>
</g>
<!-- 4&#45;&gt;112 -->
<g id="edge74" class="edge">
<title>4&#45;&gt;112</title>
<path fill="none" stroke="black" d="M1367.35,-1800.76C1371.62,-1792.46 1376.92,-1782.15 1381.73,-1772.79"/>
<polygon fill="black" stroke="black" points="1385.23,-1774.64 1386.7,-1764.15 1379.01,-1771.44 1385.23,-1774.64"/>
</g>
<!-- 6 -->
<g id="node7" class="node">
<title>6</title>
<ellipse fill="none" stroke="black" cx="1251" cy="-1674" rx="27" ry="18"/>
<text text-anchor="middle" x="1251" y="-1670.3" font-family="Times,serif" font-size="14.00">*</text>
</g>
<!-- 5&#45;&gt;6 -->
<g id="edge67" class="edge">
<title>5&#45;&gt;6</title>
<path fill="none" stroke="black" d="M1308.08,-1730.5C1298.14,-1720.83 1284.88,-1707.94 1273.65,-1697.02"/>
<polygon fill="black" stroke="black" points="1276.51,-1694.95 1266.9,-1690.49 1271.63,-1699.97 1276.51,-1694.95"/>
</g>
<!-- 107 -->
<g id="node74" class="node">
<title>107</title>
<ellipse fill="none" stroke="black" cx="1323" cy="-1674" rx="27" ry="18"/>
<text text-anchor="middle" x="1323" y="-1670.3" font-family="Times,serif" font-size="14.00">^</text>
</g>
<!-- 5&#45;&gt;107 -->
<g id="edge70" class="edge">
<title>5&#45;&gt;107</title>
<path fill="none" stroke="black" d="M1323,-1727.7C1323,-1720.24 1323,-1711.32 1323,-1702.97"/>
<polygon fill="black" stroke="black" points="1326.5,-1703.1 1323,-1693.1 1319.5,-1703.1 1326.5,-1703.1"/>
</g>
<!-- 7 -->
<g id="node8" class="node">
<title>7</title>
<ellipse fill="none" stroke="black" cx="1179" cy="-1602" rx="27" ry="18"/>
<text text-anchor="middle" x="1179" y="-1598.3" font-family="Times,serif" font-size="14.00">*</text>
</g>
<!-- 6&#45;&gt;7 -->
<g id="edge63" class="edge">
<title>6&#45;&gt;7</title>
<path fill="none" stroke="black" d="M1236.08,-1658.5C1226.14,-1648.83 1212.88,-1635.94 1201.65,-1625.02"/>
<polygon fill="black" stroke="black" points="1204.51,-1622.95 1194.9,-1618.49 1199.63,-1627.97 1204.51,-1622.95"/>
</g>
<!-- 102 -->
<g id="node71" class="node">
<title>102</title>
<ellipse fill="none" stroke="black" cx="1251" cy="-1602" rx="27" ry="18"/>
<text text-anchor="middle" x="1251" y="-1598.3" font-family="Times,serif" font-size="14.00">^</text>
</g>
<!-- 6&#45;&gt;102 -->
<g id="edge66" class="edge">
<title>6&#45;&gt;102</title>
<path fill="none" stroke="black" d="M1251,-1655.7C1251,-1648.24 1251,-1639.32 1251,-1630.97"/>
<polygon fill="black" stroke="black" points="1254.5,-1631.1 1251,-1621.1 1247.5,-1631.1 1254.5,-1631.1"/>
</g>
<!-- 8 -->
<g id="node9" class="node">
<title>8</title>
<ellipse fill="none" stroke="black" cx="1107" cy="-1530" rx="27" ry="18"/>
<text text-anchor="middle" x="1107" y="-1526.3" font-family="Times,serif" font-size="14.00">*</text>
</g>
<!-- 7&#45;&gt;8 -->
<g id="edge59" class="edge">
<title>7&#45;&gt;8</title>
<path fill="none" stroke="black" d="M1164.08,-1586.5C1154.14,-1576.83 1140.88,-1563.94 1129.65,-1553.02"/>
<polygon fill="black" stroke="black" points="1132.51,-1550.95 1122.9,-1546.49 1127.63,-1555.97 1132.51,-1550.95"/>
</g>
<!-- 97 -->
<g id="node68" class="node">
<title>97</title>
<ellipse fill="none" stroke="black" cx="1179" cy="-1530" rx="27" ry="18"/>
<text text-anchor="middle" x="1179" y="-1526.3" font-family="Times,serif" font-size="14.00">^</text>
</g>
<!-- 7&#45;&gt;97 -->
<g id="edge62" class="edge">
<title>7&#45;&gt;97</title>
<path fill="none" stroke="black" d="M1179,-1583.7C1179,-1576.24 1179,-1567.32 1179,-1558.97"/>
<polygon fill="black" stroke="black" points="1182.5,-1559.1 1179,-1549.1 1175.5,-1559.1 1182.5,-1559.1"/>
</g>
<!-- 9 -->
<g id="node10" class="node">
<title>9</title>
<ellipse fill="none" stroke="black" cx="1035" cy="-1458" rx="27" ry="18"/>
<text text-anchor="middle" x="1035" y="-1454.3" font-family="Times,serif" font-size="14.00">*</text>
</g>
<!-- 8&#45;&gt;9 -->
<g id="edge57" class="edge">
<title>8&#45;&gt;9</title>
<path fill="none" stroke="black" d="M1092.08,-1514.5C1082.14,-1504.83 1068.88,-1491.94 1057.65,-1481.02"/>
<polygon fill="black" stroke="black" points="1060.51,-1478.95 1050.9,-1474.49 1055.63,-1483.97 1060.51,-1478.95"/>
</g>
<!-- 95 -->
<g id="node67" class="node">
<title>95</title>
<ellipse fill="none" stroke="black" cx="1107" cy="-1458" rx="27" ry="18"/>
<text text-anchor="middle" x="1107" y="-1454.3" font-family="Times,serif" font-size="14.00">q</text>
</g>
<!-- 8&#45;&gt;95 -->
<g id="edge58" class="edge">
<title>8&#45;&gt;95</title>
<path fill="none" stroke="black" d="M1107,-1511.7C1107,-1504.24 1107,-1495.32 1107,-1486.97"/>
<polygon fill="black" stroke="black" points="1110.5,-1487.1 1107,-1477.1 1103.5,-1487.1 1110.5,-1487.1"/>
</g>
<!-- 10 -->
<g id="node11" class="node">
<title>10</title>
<ellipse fill="none" stroke="black" cx="999" cy="-1386" rx="27" ry="18"/>
<text text-anchor="middle" x="999" y="-1382.3" font-family="Times,serif" font-size="14.00">*</text>
</g>
<!-- 9&#45;&gt;10 -->
<g id="edge55" class="edge">
<title>9&#45;&gt;10</title>
<path fill="none" stroke="black" d="M1026.65,-1440.76C1022.38,-1432.46 1017.08,-1422.15 1012.27,-1412.79"/>
<polygon fill="black" stroke="black" points="1014.99,-1411.44 1007.3,-1404.15 1008.77,-1414.64 1014.99,-1411.44"/>
</g>
<!-- 93 -->
<g id="node66" class="node">
<title>93</title>
<ellipse fill="none" stroke="black" cx="1071" cy="-1386" rx="27" ry="18"/>
<text text-anchor="middle" x="1071" y="-1382.3" font-family="Times,serif" font-size="14.00">p</text>
</g>
<!-- 9&#45;&gt;93 -->
<g id="edge56" class="edge">
<title>9&#45;&gt;93</title>
<path fill="none" stroke="black" d="M1043.35,-1440.76C1047.62,-1432.46 1052.92,-1422.15 1057.73,-1412.79"/>
<polygon fill="black" stroke="black" points="1061.23,-1414.64 1062.7,-1404.15 1055.01,-1411.44 1061.23,-1414.64"/>
</g>
<!-- 11 -->
<g id="node12" class="node">
<title>11</title>
<ellipse fill="none" stroke="black" cx="963" cy="-1314" rx="27" ry="18"/>
<text text-anchor="middle" x="963" y="-1310.3" font-family="Times,serif" font-size="14.00">*</text>
</g>
<!-- 10&#45;&gt;11 -->
<g id="edge51" class="edge">
<title>10&#45;&gt;11</title>
<path fill="none" stroke="black" d="M990.65,-1368.76C986.38,-1360.46 981.08,-1350.15 976.27,-1340.79"/>
<polygon fill="black" stroke="black" points="978.99,-1339.44 971.3,-1332.15 972.77,-1342.64 978.99,-1339.44"/>
</g>
<!-- 88 -->
<g id="node63" class="node">
<title>88</title>
<ellipse fill="none" stroke="black" cx="1035" cy="-1314" rx="27" ry="18"/>
<text text-anchor="middle" x="1035" y="-1310.3" font-family="Times,serif" font-size="14.00">^</text>
</g>
<!-- 10&#45;&gt;88 -->
<g id="edge54" class="edge">
<title>10&#45;&gt;88</title>
<path fill="none" stroke="black" d="M1007.35,-1368.76C1011.62,-1360.46 1016.92,-1350.15 1021.73,-1340.79"/>
<polygon fill="black" stroke="black" points="1025.23,-1342.64 1026.7,-1332.15 1019.01,-1339.44 1025.23,-1342.64"/>
</g>
<!-- 12 -->
<g id="node13" class="node">
<title>12</title>
<ellipse fill="none" stroke="black" cx="891" cy="-1242" rx="27" ry="18"/>
<text text-anchor="middle" x="891" y="-1238.3" font-family="Times,serif" font-size="14.00">*</text>
</g>
<!-- 11&#45;&gt;12 -->
<g id="edge49" class="edge">
<title>11&#45;&gt;12</title>
<path fill="none" stroke="black" d="M948.08,-1298.5C938.14,-1288.83 924.88,-1275.94 913.65,-1265.02"/>
<polygon fill="black" stroke="black" points="916.51,-1262.95 906.9,-1258.49 911.63,-1267.97 916.51,-1262.95"/>
</g>
<!-- 86 -->
<g id="node62" class="node">
<title>86</title>
<ellipse fill="none" stroke="black" cx="963" cy="-1242" rx="27" ry="18"/>
<text text-anchor="middle" x="963" y="-1238.3" font-family="Times,serif" font-size="14.00">n</text>
</g>
<!-- 11&#45;&gt;86 -->
<g id="edge50" class="edge">
<title>11&#45;&gt;86</title>
<path fill="none" stroke="black" d="M963,-1295.7C963,-1288.24 963,-1279.32 963,-1270.97"/>
<polygon fill="black" stroke="black" points="966.5,-1271.1 963,-1261.1 959.5,-1271.1 966.5,-1271.1"/>
</g>
<!-- 13 -->
<g id="node14" class="node">
<title>13</title>
<ellipse fill="none" stroke="black" cx="855" cy="-1170" rx="27" ry="18"/>
<text text-anchor="middle" x="855" y="-1166.3" font-family="Times,serif" font-size="14.00">*</text>
</g>
<!-- 12&#45;&gt;13 -->
<g id="edge47" class="edge">
<title>12&#45;&gt;13</title>
<path fill="none" stroke="black" d="M882.65,-1224.76C878.38,-1216.46 873.08,-1206.15 868.27,-1196.79"/>
<polygon fill="black" stroke="black" points="870.99,-1195.44 863.3,-1188.15 864.77,-1198.64 870.99,-1195.44"/>
</g>
<!-- 84 -->
<g id="node61" class="node">
<title>84</title>
<ellipse fill="none" stroke="black" cx="927" cy="-1170" rx="27" ry="18"/>
<text text-anchor="middle" x="927" y="-1166.3" font-family="Times,serif" font-size="14.00">m</text>
</g>
<!-- 12&#45;&gt;84 -->
<g id="edge48" class="edge">
<title>12&#45;&gt;84</title>
<path fill="none" stroke="black" d="M899.35,-1224.76C903.62,-1216.46 908.92,-1206.15 913.73,-1196.79"/>
<polygon fill="black" stroke="black" points="917.23,-1198.64 918.7,-1188.15 911.01,-1195.44 917.23,-1198.64"/>
</g>
<!-- 14 -->
<g id="node15" class="node">
<title>14</title>
<ellipse fill="none" stroke="black" cx="819" cy="-1098" rx="27" ry="18"/>
<text text-anchor="middle" x="819" y="-1094.3" font-family="Times,serif" font-size="14.00">*</text>
</g>
<!-- 13&#45;&gt;14 -->
<g id="edge43" class="edge">
<title>13&#45;&gt;14</title>
<path fill="none" stroke="black" d="M846.65,-1152.76C842.38,-1144.46 837.08,-1134.15 832.27,-1124.79"/>
<polygon fill="black" stroke="black" points="834.99,-1123.44 827.3,-1116.15 828.77,-1126.64 834.99,-1123.44"/>
</g>
<!-- 79 -->
<g id="node58" class="node">
<title>79</title>
<ellipse fill="none" stroke="black" cx="891" cy="-1098" rx="27" ry="18"/>
<text text-anchor="middle" x="891" y="-1094.3" font-family="Times,serif" font-size="14.00">^</text>
</g>
<!-- 13&#45;&gt;79 -->
<g id="edge46" class="edge">
<title>13&#45;&gt;79</title>
<path fill="none" stroke="black" d="M863.35,-1152.76C867.62,-1144.46 872.92,-1134.15 877.73,-1124.79"/>
<polygon fill="black" stroke="black" points="881.23,-1126.64 882.7,-1116.15 875.01,-1123.44 881.23,-1126.64"/>
</g>
<!-- 15 -->
<g id="node16" class="node">
<title>15</title>
<ellipse fill="none" stroke="black" cx="747" cy="-1026" rx="27" ry="18"/>
<text text-anchor="middle" x="747" y="-1022.3" font-family="Times,serif" font-size="14.00">*</text>
</g>
<!-- 14&#45;&gt;15 -->
<g id="edge39" class="edge">
<title>14&#45;&gt;15</title>
<path fill="none" stroke="black" d="M804.08,-1082.5C794.14,-1072.83 780.88,-1059.94 769.65,-1049.02"/>
<polygon fill="black" stroke="black" points="772.51,-1046.95 762.9,-1042.49 767.63,-1051.97 772.51,-1046.95"/>
</g>
<!-- 74 -->
<g id="node55" class="node">
<title>74</title>
<ellipse fill="none" stroke="black" cx="819" cy="-1026" rx="27" ry="18"/>
<text text-anchor="middle" x="819" y="-1022.3" font-family="Times,serif" font-size="14.00">^</text>
</g>
<!-- 14&#45;&gt;74 -->
<g id="edge42" class="edge">
<title>14&#45;&gt;74</title>
<path fill="none" stroke="black" d="M819,-1079.7C819,-1072.24 819,-1063.32 819,-1054.97"/>
<polygon fill="black" stroke="black" points="822.5,-1055.1 819,-1045.1 815.5,-1055.1 822.5,-1055.1"/>
</g>
<!-- 16 -->
<g id="node17" class="node">
<title>16</title>
<ellipse fill="none" stroke="black" cx="675" cy="-954" rx="27" ry="18"/>
<text text-anchor="middle" x="675" y="-950.3" font-family="Times,serif" font-size="14.00">*</text>
</g>
<!-- 15&#45;&gt;16 -->
<g id="edge37" class="edge">
<title>15&#45;&gt;16</title>
<path fill="none" stroke="black" d="M732.08,-1010.5C722.14,-1000.83 708.88,-987.94 697.65,-977.02"/>
<polygon fill="black" stroke="black" points="700.51,-974.95 690.9,-970.49 695.63,-979.97 700.51,-974.95"/>
</g>
<!-- 72 -->
<g id="node54" class="node">
<title>72</title>
<ellipse fill="none" stroke="black" cx="747" cy="-954" rx="27" ry="18"/>
<text text-anchor="middle" x="747" y="-950.3" font-family="Times,serif" font-size="14.00">j</text>
</g>
<!-- 15&#45;&gt;72 -->
<g id="edge38" class="edge">
<title>15&#45;&gt;72</title>
<path fill="none" stroke="black" d="M747,-1007.7C747,-1000.24 747,-991.32 747,-982.97"/>
<polygon fill="black" stroke="black" points="750.5,-983.1 747,-973.1 743.5,-983.1 750.5,-983.1"/>
</g>
<!-- 17 -->
<g id="node18" class="node">
<title>17</title>
<ellipse fill="none" stroke="black" cx="639" cy="-882" rx="27" ry="18"/>
<text text-anchor="middle" x="639" y="-878.3" font-family="Times,serif" font-size="14.00">*</text>
</g>
<!-- 16&#45;&gt;17 -->
<g id="edge33" class="edge">
<title>16&#45;&gt;17</title>
<path fill="none" stroke="black" d="M666.65,-936.76C662.38,-928.46 657.08,-918.15 652.27,-908.79"/>
<polygon fill="black" stroke="black" points="654.99,-907.44 647.3,-900.15 648.77,-910.64 654.99,-907.44"/>
</g>
<!-- 67 -->
<g id="node51" class="node">
<title>67</title>
<ellipse fill="none" stroke="black" cx="711" cy="-882" rx="27" ry="18"/>
<text text-anchor="middle" x="711" y="-878.3" font-family="Times,serif" font-size="14.00">^</text>
</g>
<!-- 16&#45;&gt;67 -->
<g id="edge36" class="edge">
<title>16&#45;&gt;67</title>
<path fill="none" stroke="black" d="M683.35,-936.76C687.62,-928.46 692.92,-918.15 697.73,-908.79"/>
<polygon fill="black" stroke="black" points="701.23,-910.64 702.7,-900.15 695.01,-907.44 701.23,-910.64"/>
</g>
<!-- 18 -->
<g id="node19" class="node">
<title>18</title>
<ellipse fill="none" stroke="black" cx="567" cy="-810" rx="27" ry="18"/>
<text text-anchor="middle" x="567" y="-806.3" font-family="Times,serif" font-size="14.00">*</text>
</g>
<!-- 17&#45;&gt;18 -->
<g id="edge31" class="edge">
<title>17&#45;&gt;18</title>
<path fill="none" stroke="black" d="M624.08,-866.5C614.14,-856.83 600.88,-843.94 589.65,-833.02"/>
<polygon fill="black" stroke="black" points="592.51,-830.95 582.9,-826.49 587.63,-835.97 592.51,-830.95"/>
</g>
<!-- 65 -->
<g id="node50" class="node">
<title>65</title>
<ellipse fill="none" stroke="black" cx="639" cy="-810" rx="27" ry="18"/>
<text text-anchor="middle" x="639" y="-806.3" font-family="Times,serif" font-size="14.00">i</text>
</g>
<!-- 17&#45;&gt;65 -->
<g id="edge32" class="edge">
<title>17&#45;&gt;65</title>
<path fill="none" stroke="black" d="M639,-863.7C639,-856.24 639,-847.32 639,-838.97"/>
<polygon fill="black" stroke="black" points="642.5,-839.1 639,-829.1 635.5,-839.1 642.5,-839.1"/>
</g>
<!-- 19 -->
<g id="node20" class="node">
<title>19</title>
<ellipse fill="none" stroke="black" cx="531" cy="-738" rx="27" ry="18"/>
<text text-anchor="middle" x="531" y="-734.3" font-family="Times,serif" font-size="14.00">*</text>
</g>
<!-- 18&#45;&gt;19 -->
<g id="edge27" class="edge">
<title>18&#45;&gt;19</title>
<path fill="none" stroke="black" d="M558.65,-792.76C554.38,-784.46 549.08,-774.15 544.27,-764.79"/>
<polygon fill="black" stroke="black" points="546.99,-763.44 539.3,-756.15 540.77,-766.64 546.99,-763.44"/>
</g>
<!-- 60 -->
<g id="node47" class="node">
<title>60</title>
<ellipse fill="none" stroke="black" cx="603" cy="-738" rx="27" ry="18"/>
<text text-anchor="middle" x="603" y="-734.3" font-family="Times,serif" font-size="14.00">^</text>
</g>
<!-- 18&#45;&gt;60 -->
<g id="edge30" class="edge">
<title>18&#45;&gt;60</title>
<path fill="none" stroke="black" d="M575.35,-792.76C579.62,-784.46 584.92,-774.15 589.73,-764.79"/>
<polygon fill="black" stroke="black" points="593.23,-766.64 594.7,-756.15 587.01,-763.44 593.23,-766.64"/>
</g>
<!-- 20 -->
<g id="node21" class="node">
<title>20</title>
<ellipse fill="none" stroke="black" cx="459" cy="-666" rx="27" ry="18"/>
<text text-anchor="middle" x="459" y="-662.3" font-family="Times,serif" font-size="14.00">*</text>
</g>
<!-- 19&#45;&gt;20 -->
<g id="edge25" class="edge">
<title>19&#45;&gt;20</title>
<path fill="none" stroke="black" d="M516.08,-722.5C506.14,-712.83 492.88,-699.94 481.65,-689.02"/>
<polygon fill="black" stroke="black" points="484.51,-686.95 474.9,-682.49 479.63,-691.97 484.51,-686.95"/>
</g>
<!-- 58 -->
<g id="node46" class="node">
<title>58</title>
<ellipse fill="none" stroke="black" cx="531" cy="-666" rx="27" ry="18"/>
<text text-anchor="middle" x="531" y="-662.3" font-family="Times,serif" font-size="14.00">g</text>
</g>
<!-- 19&#45;&gt;58 -->
<g id="edge26" class="edge">
<title>19&#45;&gt;58</title>
<path fill="none" stroke="black" d="M531,-719.7C531,-712.24 531,-703.32 531,-694.97"/>
<polygon fill="black" stroke="black" points="534.5,-695.1 531,-685.1 527.5,-695.1 534.5,-695.1"/>
</g>
<!-- 21 -->
<g id="node22" class="node">
<title>21</title>
<ellipse fill="none" stroke="black" cx="423" cy="-594" rx="27" ry="18"/>
<text text-anchor="middle" x="423" y="-590.3" font-family="Times,serif" font-size="14.00">*</text>
</g>
<!-- 20&#45;&gt;21 -->
<g id="edge23" class="edge">
<title>20&#45;&gt;21</title>
<path fill="none" stroke="black" d="M450.65,-648.76C446.38,-640.46 441.08,-630.15 436.27,-620.79"/>
<polygon fill="black" stroke="black" points="438.99,-619.44 431.3,-612.15 432.77,-622.64 438.99,-619.44"/>
</g>
<!-- 56 -->
<g id="node45" class="node">
<title>56</title>
<ellipse fill="none" stroke="black" cx="495" cy="-594" rx="27" ry="18"/>
<text text-anchor="middle" x="495" y="-590.3" font-family="Times,serif" font-size="14.00">f</text>
</g>
<!-- 20&#45;&gt;56 -->
<g id="edge24" class="edge">
<title>20&#45;&gt;56</title>
<path fill="none" stroke="black" d="M467.35,-648.76C471.62,-640.46 476.92,-630.15 481.73,-620.79"/>
<polygon fill="black" stroke="black" points="485.23,-622.64 486.7,-612.15 479.01,-619.44 485.23,-622.64"/>
</g>
<!-- 22 -->
<g id="node23" class="node">
<title>22</title>
<ellipse fill="none" stroke="black" cx="387" cy="-522" rx="27" ry="18"/>
<text text-anchor="middle" x="387" y="-518.3" font-family="Times,serif" font-size="14.00">*</text>
</g>
<!-- 21&#45;&gt;22 -->
<g id="edge19" class="edge">
<title>21&#45;&gt;22</title>
<path fill="none" stroke="black" d="M414.65,-576.76C410.38,-568.46 405.08,-558.15 400.27,-548.79"/>
<polygon fill="black" stroke="black" points="402.99,-547.44 395.3,-540.15 396.77,-550.64 402.99,-547.44"/>
</g>
<!-- 51 -->
<g id="node42" class="node">
<title>51</title>
<ellipse fill="none" stroke="black" cx="459" cy="-522" rx="27" ry="18"/>
<text text-anchor="middle" x="459" y="-518.3" font-family="Times,serif" font-size="14.00">^</text>
</g>
<!-- 21&#45;&gt;51 -->
<g id="edge22" class="edge">
<title>21&#45;&gt;51</title>
<path fill="none" stroke="black" d="M431.35,-576.76C435.62,-568.46 440.92,-558.15 445.73,-548.79"/>
<polygon fill="black" stroke="black" points="449.23,-550.64 450.7,-540.15 443.01,-547.44 449.23,-550.64"/>
</g>
<!-- 23 -->
<g id="node24" class="node">
<title>23</title>
<ellipse fill="none" stroke="black" cx="315" cy="-450" rx="27" ry="18"/>
<text text-anchor="middle" x="315" y="-446.3" font-family="Times,serif" font-size="14.00">*</text>
</g>
<!-- 22&#45;&gt;23 -->
<g id="edge17" class="edge">
<title>22&#45;&gt;23</title>
<path fill="none" stroke="black" d="M372.08,-506.5C362.14,-496.83 348.88,-483.94 337.65,-473.02"/>
<polygon fill="black" stroke="black" points="340.51,-470.95 330.9,-466.49 335.63,-475.97 340.51,-470.95"/>
</g>
<!-- 49 -->
<g id="node41" class="node">
<title>49</title>
<ellipse fill="none" stroke="black" cx="387" cy="-450" rx="27" ry="18"/>
<text text-anchor="middle" x="387" y="-446.3" font-family="Times,serif" font-size="14.00">e</text>
</g>
<!-- 22&#45;&gt;49 -->
<g id="edge18" class="edge">
<title>22&#45;&gt;49</title>
<path fill="none" stroke="black" d="M387,-503.7C387,-496.24 387,-487.32 387,-478.97"/>
<polygon fill="black" stroke="black" points="390.5,-479.1 387,-469.1 383.5,-479.1 390.5,-479.1"/>
</g>
<!-- 24 -->
<g id="node25" class="node">
<title>24</title>
<ellipse fill="none" stroke="black" cx="279" cy="-378" rx="27" ry="18"/>
<text text-anchor="middle" x="279" y="-374.3" font-family="Times,serif" font-size="14.00">*</text>
</g>
<!-- 23&#45;&gt;24 -->
<g id="edge13" class="edge">
<title>23&#45;&gt;24</title>
<path fill="none" stroke="black" d="M306.65,-432.76C302.38,-424.46 297.08,-414.15 292.27,-404.79"/>
<polygon fill="black" stroke="black" points="294.99,-403.44 287.3,-396.15 288.77,-406.64 294.99,-403.44"/>
</g>
<!-- 44 -->
<g id="node38" class="node">
<title>44</title>
<ellipse fill="none" stroke="black" cx="351" cy="-378" rx="27" ry="18"/>
<text text-anchor="middle" x="351" y="-374.3" font-family="Times,serif" font-size="14.00">^</text>
</g>
<!-- 23&#45;&gt;44 -->
<g id="edge16" class="edge">
<title>23&#45;&gt;44</title>
<path fill="none" stroke="black" d="M323.35,-432.76C327.62,-424.46 332.92,-414.15 337.73,-404.79"/>
<polygon fill="black" stroke="black" points="341.23,-406.64 342.7,-396.15 335.01,-403.44 341.23,-406.64"/>
</g>
<!-- 25 -->
<g id="node26" class="node">
<title>25</title>
<ellipse fill="none" stroke="black" cx="207" cy="-306" rx="27" ry="18"/>
<text text-anchor="middle" x="207" y="-302.3" font-family="Times,serif" font-size="14.00">*</text>
</g>
<!-- 24&#45;&gt;25 -->
<g id="edge9" class="edge">
<title>24&#45;&gt;25</title>
<path fill="none" stroke="black" d="M264.08,-362.5C254.14,-352.83 240.88,-339.94 229.65,-329.02"/>
<polygon fill="black" stroke="black" points="232.51,-326.95 222.9,-322.49 227.63,-331.97 232.51,-326.95"/>
</g>
<!-- 39 -->
<g id="node35" class="node">
<title>39</title>
<ellipse fill="none" stroke="black" cx="279" cy="-306" rx="27" ry="18"/>
<text text-anchor="middle" x="279" y="-302.3" font-family="Times,serif" font-size="14.00">^</text>
</g>
<!-- 24&#45;&gt;39 -->
<g id="edge12" class="edge">
<title>24&#45;&gt;39</title>
<path fill="none" stroke="black" d="M279,-359.7C279,-352.24 279,-343.32 279,-334.97"/>
<polygon fill="black" stroke="black" points="282.5,-335.1 279,-325.1 275.5,-335.1 282.5,-335.1"/>
</g>
<!-- 26 -->
<g id="node27" class="node">
<title>26</title>
<ellipse fill="none" stroke="black" cx="135" cy="-234" rx="27" ry="18"/>
<text text-anchor="middle" x="135" y="-230.3" font-family="Times,serif" font-size="14.00">*</text>
</g>
<!-- 25&#45;&gt;26 -->
<g id="edge7" class="edge">
<title>25&#45;&gt;26</title>
<path fill="none" stroke="black" d="M192.08,-290.5C182.14,-280.83 168.88,-267.94 157.65,-257.02"/>
<polygon fill="black" stroke="black" points="160.51,-254.95 150.9,-250.49 155.63,-259.97 160.51,-254.95"/>
</g>
<!-- 37 -->
<g id="node34" class="node">
<title>37</title>
<ellipse fill="none" stroke="black" cx="207" cy="-234" rx="27" ry="18"/>
<text text-anchor="middle" x="207" y="-230.3" font-family="Times,serif" font-size="14.00">c</text>
</g>
<!-- 25&#45;&gt;37 -->
<g id="edge8" class="edge">
<title>25&#45;&gt;37</title>
<path fill="none" stroke="black" d="M207,-287.7C207,-280.24 207,-271.32 207,-262.97"/>
<polygon fill="black" stroke="black" points="210.5,-263.1 207,-253.1 203.5,-263.1 210.5,-263.1"/>
</g>
<!-- 27 -->
<g id="node28" class="node">
<title>27</title>
<ellipse fill="none" stroke="black" cx="99" cy="-162" rx="27" ry="18"/>
<text text-anchor="middle" x="99" y="-158.3" font-family="Times,serif" font-size="14.00">*</text>
</g>
<!-- 26&#45;&gt;27 -->
<g id="edge5" class="edge">
<title>26&#45;&gt;27</title>
<path fill="none" stroke="black" d="M126.65,-216.76C122.38,-208.46 117.08,-198.15 112.27,-188.79"/>
<polygon fill="black" stroke="black" points="114.99,-187.44 107.3,-180.15 108.77,-190.64 114.99,-187.44"/>
</g>
<!-- 35 -->
<g id="node33" class="node">
<title>35</title>
<ellipse fill="none" stroke="black" cx="171" cy="-162" rx="27" ry="18"/>
<text text-anchor="middle" x="171" y="-158.3" font-family="Times,serif" font-size="14.00">b</text>
</g>
<!-- 26&#45;&gt;35 -->
<g id="edge6" class="edge">
<title>26&#45;&gt;35</title>
<path fill="none" stroke="black" d="M143.35,-216.76C147.62,-208.46 152.92,-198.15 157.73,-188.79"/>
<polygon fill="black" stroke="black" points="161.23,-190.64 162.7,-180.15 155.01,-187.44 161.23,-190.64"/>
</g>
<!-- 28 -->
<g id="node29" class="node">
<title>28</title>
<ellipse fill="none" stroke="black" cx="63" cy="-90" rx="27" ry="18"/>
<text text-anchor="middle" x="63" y="-86.3" font-family="Times,serif" font-size="14.00">^</text>
</g>
<!-- 27&#45;&gt;28 -->
<g id="edge3" class="edge">
<title>27&#45;&gt;28</title>
<path fill="none" stroke="black" d="M90.65,-144.76C86.38,-136.46 81.08,-126.15 76.27,-116.79"/>
<polygon fill="black" stroke="black" points="78.99,-115.44 71.3,-108.15 72.77,-118.64 78.99,-115.44"/>
</g>
<!-- 33 -->
<g id="node32" class="node">
<title>33</title>
<ellipse fill="none" stroke="black" cx="135" cy="-90" rx="27" ry="18"/>
<text text-anchor="middle" x="135" y="-86.3" font-family="Times,serif" font-size="14.00">a</text>
</g>
<!-- 27&#45;&gt;33 -->
<g id="edge4" class="edge">
<title>27&#45;&gt;33</title>
<path fill="none" stroke="black" d="M107.35,-144.76C111.62,-136.46 116.92,-126.15 121.73,-116.79"/>
<polygon fill="black" stroke="black" points="125.23,-118.64 126.7,-108.15 119.01,-115.44 125.23,-118.64"/>
</g>
<!-- 29 -->
<g id="node30" class="node">
<title>29</title>
<ellipse fill="none" stroke="black" cx="27" cy="-18" rx="27" ry="18"/>
<text text-anchor="middle" x="27" y="-14.3" font-family="Times,serif" font-size="14.00">a</text>
</g>
<!-- 28&#45;&gt;29 -->
<g id="edge1" class="edge">
<title>28&#45;&gt;29</title>
<path fill="none" stroke="black" d="M54.65,-72.76C50.38,-64.46 45.08,-54.15 40.27,-44.79"/>
<polygon fill="black" stroke="black" points="42.99,-43.44 35.3,-36.15 36.77,-46.64 42.99,-43.44"/>
</g>
<!-- 31 -->
<g id="node31" class="node">
<title>31</title>
<ellipse fill="none" stroke="black" cx="99" cy="-18" rx="27" ry="18"/>
<text text-anchor="middle" x="99" y="-14.3" font-family="Times,serif" font-size="14.00">2</text>
</g>
<!-- 28&#45;&gt;31 -->
<g id="edge2" class="edge">
<title>28&#45;&gt;31</title>
<path fill="none" stroke="black" d="M71.35,-72.76C75.62,-64.46 80.92,-54.15 85.73,-44.79"/>
<polygon fill="black" stroke="black" points="89.23,-46.64 90.7,-36.15 83.01,-43.44 89.23,-46.64"/>
</g>
<!-- 40 -->
<g id="node36" class="node">
<title>40</title>
<ellipse fill="none" stroke="black" cx="279" cy="-234" rx="27" ry="18"/>
<text text-anchor="middle" x="279" y="-230.3" font-family="Times,serif" font-size="14.00">d</text>
</g>
<!-- 39&#45;&gt;40 -->
<g id="edge10" class="edge">
<title>39&#45;&gt;40</title>
<path fill="none" stroke="black" d="M279,-287.7C279,-280.24 279,-271.32 279,-262.97"/>
<polygon fill="black" stroke="black" points="282.5,-263.1 279,-253.1 275.5,-263.1 282.5,-263.1"/>
</g>
<!-- 42 -->
<g id="node37" class="node">
<title>42</title>
<ellipse fill="none" stroke="black" cx="351" cy="-234" rx="27" ry="18"/>
<text text-anchor="middle" x="351" y="-230.3" font-family="Times,serif" font-size="14.00">4</text>
</g>
<!-- 39&#45;&gt;42 -->
<g id="edge11" class="edge">
<title>39&#45;&gt;42</title>
<path fill="none" stroke="black" d="M293.92,-290.5C303.86,-280.83 317.12,-267.94 328.35,-257.02"/>
<polygon fill="black" stroke="black" points="330.37,-259.97 335.1,-250.49 325.49,-254.95 330.37,-259.97"/>
</g>
<!-- 45 -->
<g id="node39" class="node">
<title>45</title>
<ellipse fill="none" stroke="black" cx="351" cy="-306" rx="27" ry="18"/>
<text text-anchor="middle" x="351" y="-302.3" font-family="Times,serif" font-size="14.00">e</text>
</g>
<!-- 44&#45;&gt;45 -->
<g id="edge14" class="edge">
<title>44&#45;&gt;45</title>
<path fill="none" stroke="black" d="M351,-359.7C351,-352.24 351,-343.32 351,-334.97"/>
<polygon fill="black" stroke="black" points="354.5,-335.1 351,-325.1 347.5,-335.1 354.5,-335.1"/>
</g>
<!-- 47 -->
<g id="node40" class="node">
<title>47</title>
<ellipse fill="none" stroke="black" cx="423" cy="-306" rx="27" ry="18"/>
<text text-anchor="middle" x="423" y="-302.3" font-family="Times,serif" font-size="14.00">2</text>
</g>
<!-- 44&#45;&gt;47 -->
<g id="edge15" class="edge">
<title>44&#45;&gt;47</title>
<path fill="none" stroke="black" d="M365.92,-362.5C375.86,-352.83 389.12,-339.94 400.35,-329.02"/>
<polygon fill="black" stroke="black" points="402.37,-331.97 407.1,-322.49 397.49,-326.95 402.37,-331.97"/>
</g>
<!-- 52 -->
<g id="node43" class="node">
<title>52</title>
<ellipse fill="none" stroke="black" cx="459" cy="-450" rx="27" ry="18"/>
<text text-anchor="middle" x="459" y="-446.3" font-family="Times,serif" font-size="14.00">f</text>
</g>
<!-- 51&#45;&gt;52 -->
<g id="edge20" class="edge">
<title>51&#45;&gt;52</title>
<path fill="none" stroke="black" d="M459,-503.7C459,-496.24 459,-487.32 459,-478.97"/>
<polygon fill="black" stroke="black" points="462.5,-479.1 459,-469.1 455.5,-479.1 462.5,-479.1"/>
</g>
<!-- 54 -->
<g id="node44" class="node">
<title>54</title>
<ellipse fill="none" stroke="black" cx="531" cy="-450" rx="27" ry="18"/>
<text text-anchor="middle" x="531" y="-446.3" font-family="Times,serif" font-size="14.00">2</text>
</g>
<!-- 51&#45;&gt;54 -->
<g id="edge21" class="edge">
<title>51&#45;&gt;54</title>
<path fill="none" stroke="black" d="M473.92,-506.5C483.86,-496.83 497.12,-483.94 508.35,-473.02"/>
<polygon fill="black" stroke="black" points="510.37,-475.97 515.1,-466.49 505.49,-470.95 510.37,-475.97"/>
</g>
<!-- 61 -->
<g id="node48" class="node">
<title>61</title>
<ellipse fill="none" stroke="black" cx="603" cy="-666" rx="27" ry="18"/>
<text text-anchor="middle" x="603" y="-662.3" font-family="Times,serif" font-size="14.00">h</text>
</g>
<!-- 60&#45;&gt;61 -->
<g id="edge28" class="edge">
<title>60&#45;&gt;61</title>
<path fill="none" stroke="black" d="M603,-719.7C603,-712.24 603,-703.32 603,-694.97"/>
<polygon fill="black" stroke="black" points="606.5,-695.1 603,-685.1 599.5,-695.1 606.5,-695.1"/>
</g>
<!-- 63 -->
<g id="node49" class="node">
<title>63</title>
<ellipse fill="none" stroke="black" cx="675" cy="-666" rx="27" ry="18"/>
<text text-anchor="middle" x="675" y="-662.3" font-family="Times,serif" font-size="14.00">2</text>
</g>
<!-- 60&#45;&gt;63 -->
<g id="edge29" class="edge">
<title>60&#45;&gt;63</title>
<path fill="none" stroke="black" d="M617.92,-722.5C627.86,-712.83 641.12,-699.94 652.35,-689.02"/>
<polygon fill="black" stroke="black" points="654.37,-691.97 659.1,-682.49 649.49,-686.95 654.37,-691.97"/>
</g>
<!-- 68 -->
<g id="node52" class="node">
<title>68</title>
<ellipse fill="none" stroke="black" cx="711" cy="-810" rx="27" ry="18"/>
<text text-anchor="middle" x="711" y="-806.3" font-family="Times,serif" font-size="14.00">j</text>
</g>
<!-- 67&#45;&gt;68 -->
<g id="edge34" class="edge">
<title>67&#45;&gt;68</title>
<path fill="none" stroke="black" d="M711,-863.7C711,-856.24 711,-847.32 711,-838.97"/>
<polygon fill="black" stroke="black" points="714.5,-839.1 711,-829.1 707.5,-839.1 714.5,-839.1"/>
</g>
<!-- 70 -->
<g id="node53" class="node">
<title>70</title>
<ellipse fill="none" stroke="black" cx="783" cy="-810" rx="27" ry="18"/>
<text text-anchor="middle" x="783" y="-806.3" font-family="Times,serif" font-size="14.00">2</text>
</g>
<!-- 67&#45;&gt;70 -->
<g id="edge35" class="edge">
<title>67&#45;&gt;70</title>
<path fill="none" stroke="black" d="M725.92,-866.5C735.86,-856.83 749.12,-843.94 760.35,-833.02"/>
<polygon fill="black" stroke="black" points="762.37,-835.97 767.1,-826.49 757.49,-830.95 762.37,-835.97"/>
</g>
<!-- 75 -->
<g id="node56" class="node">
<title>75</title>
<ellipse fill="none" stroke="black" cx="819" cy="-954" rx="27" ry="18"/>
<text text-anchor="middle" x="819" y="-950.3" font-family="Times,serif" font-size="14.00">k</text>
</g>
<!-- 74&#45;&gt;75 -->
<g id="edge40" class="edge">
<title>74&#45;&gt;75</title>
<path fill="none" stroke="black" d="M819,-1007.7C819,-1000.24 819,-991.32 819,-982.97"/>
<polygon fill="black" stroke="black" points="822.5,-983.1 819,-973.1 815.5,-983.1 822.5,-983.1"/>
</g>
<!-- 77 -->
<g id="node57" class="node">
<title>77</title>
<ellipse fill="none" stroke="black" cx="891" cy="-954" rx="27" ry="18"/>
<text text-anchor="middle" x="891" y="-950.3" font-family="Times,serif" font-size="14.00">2</text>
</g>
<!-- 74&#45;&gt;77 -->
<g id="edge41" class="edge">
<title>74&#45;&gt;77</title>
<path fill="none" stroke="black" d="M833.92,-1010.5C843.86,-1000.83 857.12,-987.94 868.35,-977.02"/>
<polygon fill="black" stroke="black" points="870.37,-979.97 875.1,-970.49 865.49,-974.95 870.37,-979.97"/>
</g>
<!-- 80 -->
<g id="node59" class="node">
<title>80</title>
<ellipse fill="none" stroke="black" cx="891" cy="-1026" rx="27" ry="18"/>
<text text-anchor="middle" x="891" y="-1022.3" font-family="Times,serif" font-size="14.00">l</text>
</g>
<!-- 79&#45;&gt;80 -->
<g id="edge44" class="edge">
<title>79&#45;&gt;80</title>
<path fill="none" stroke="black" d="M891,-1079.7C891,-1072.24 891,-1063.32 891,-1054.97"/>
<polygon fill="black" stroke="black" points="894.5,-1055.1 891,-1045.1 887.5,-1055.1 894.5,-1055.1"/>
</g>
<!-- 82 -->
<g id="node60" class="node">
<title>82</title>
<ellipse fill="none" stroke="black" cx="963" cy="-1026" rx="27" ry="18"/>
<text text-anchor="middle" x="963" y="-1022.3" font-family="Times,serif" font-size="14.00">2</text>
</g>
<!-- 79&#45;&gt;82 -->
<g id="edge45" class="edge">
<title>79&#45;&gt;82</title>
<path fill="none" stroke="black" d="M905.92,-1082.5C915.86,-1072.83 929.12,-1059.94 940.35,-1049.02"/>
<polygon fill="black" stroke="black" points="942.37,-1051.97 947.1,-1042.49 937.49,-1046.95 942.37,-1051.97"/>
</g>
<!-- 89 -->
<g id="node64" class="node">
<title>89</title>
<ellipse fill="none" stroke="black" cx="1035" cy="-1242" rx="27" ry="18"/>
<text text-anchor="middle" x="1035" y="-1238.3" font-family="Times,serif" font-size="14.00">o</text>
</g>
<!-- 88&#45;&gt;89 -->
<g id="edge52" class="edge">
<title>88&#45;&gt;89</title>
<path fill="none" stroke="black" d="M1035,-1295.7C1035,-1288.24 1035,-1279.32 1035,-1270.97"/>
<polygon fill="black" stroke="black" points="1038.5,-1271.1 1035,-1261.1 1031.5,-1271.1 1038.5,-1271.1"/>
</g>
<!-- 91 -->
<g id="node65" class="node">
<title>91</title>
<ellipse fill="none" stroke="black" cx="1107" cy="-1242" rx="27" ry="18"/>
<text text-anchor="middle" x="1107" y="-1238.3" font-family="Times,serif" font-size="14.00">4</text>
</g>
<!-- 88&#45;&gt;91 -->
<g id="edge53" class="edge">
<title>88&#45;&gt;91</title>
<path fill="none" stroke="black" d="M1049.92,-1298.5C1059.86,-1288.83 1073.12,-1275.94 1084.35,-1265.02"/>
<polygon fill="black" stroke="black" points="1086.37,-1267.97 1091.1,-1258.49 1081.49,-1262.95 1086.37,-1267.97"/>
</g>
<!-- 98 -->
<g id="node69" class="node">
<title>98</title>
<ellipse fill="none" stroke="black" cx="1179" cy="-1458" rx="27" ry="18"/>
<text text-anchor="middle" x="1179" y="-1454.3" font-family="Times,serif" font-size="14.00">r</text>
</g>
<!-- 97&#45;&gt;98 -->
<g id="edge60" class="edge">
<title>97&#45;&gt;98</title>
<path fill="none" stroke="black" d="M1179,-1511.7C1179,-1504.24 1179,-1495.32 1179,-1486.97"/>
<polygon fill="black" stroke="black" points="1182.5,-1487.1 1179,-1477.1 1175.5,-1487.1 1182.5,-1487.1"/>
</g>
<!-- 100 -->
<g id="node70" class="node">
<title>100</title>
<ellipse fill="none" stroke="black" cx="1251" cy="-1458" rx="27" ry="18"/>
<text text-anchor="middle" x="1251" y="-1454.3" font-family="Times,serif" font-size="14.00">2</text>
</g>
<!-- 97&#45;&gt;100 -->
<g id="edge61" class="edge">
<title>97&#45;&gt;100</title>
<path fill="none" stroke="black" d="M1193.92,-1514.5C1203.86,-1504.83 1217.12,-1491.94 1228.35,-1481.02"/>
<polygon fill="black" stroke="black" points="1230.37,-1483.97 1235.1,-1474.49 1225.49,-1478.95 1230.37,-1483.97"/>
</g>
<!-- 103 -->
<g id="node72" class="node">
<title>103</title>
<ellipse fill="none" stroke="black" cx="1251" cy="-1530" rx="27" ry="18"/>
<text text-anchor="middle" x="1251" y="-1526.3" font-family="Times,serif" font-size="14.00">s</text>
</g>
<!-- 102&#45;&gt;103 -->
<g id="edge64" class="edge">
<title>102&#45;&gt;103</title>
<path fill="none" stroke="black" d="M1251,-1583.7C1251,-1576.24 1251,-1567.32 1251,-1558.97"/>
<polygon fill="black" stroke="black" points="1254.5,-1559.1 1251,-1549.1 1247.5,-1559.1 1254.5,-1559.1"/>
</g>
<!-- 105 -->
<g id="node73" class="node">
<title>105</title>
<ellipse fill="none" stroke="black" cx="1323" cy="-1530" rx="27" ry="18"/>
<text text-anchor="middle" x="1323" y="-1526.3" font-family="Times,serif" font-size="14.00">4</text>
</g>
<!-- 102&#45;&gt;105 -->
<g id="edge65" class="edge">
<title>102&#45;&gt;105</title>
<path fill="none" stroke="black" d="M1265.92,-1586.5C1275.86,-1576.83 1289.12,-1563.94 1300.35,-1553.02"/>
<polygon fill="black" stroke="black" points="1302.37,-1555.97 1307.1,-1546.49 1297.49,-1550.95 1302.37,-1555.97"/>
</g>
<!-- 108 -->
<g id="node75" class="node">
<title>108</title>
<ellipse fill="none" stroke="black" cx="1323" cy="-1602" rx="27" ry="18"/>
<text text-anchor="middle" x="1323" y="-1598.3" font-family="Times,serif" font-size="14.00">t</text>
</g>
<!-- 107&#45;&gt;108 -->
<g id="edge68" class="edge">
<title>107&#45;&gt;108</title>
<path fill="none" stroke="black" d="M1323,-1655.7C1323,-1648.24 1323,-1639.32 1323,-1630.97"/>
<polygon fill="black" stroke="black" points="1326.5,-1631.1 1323,-1621.1 1319.5,-1631.1 1326.5,-1631.1"/>
</g>
<!-- 110 -->
<g id="node76" class="node">
<title>110</title>
<ellipse fill="none" stroke="black" cx="1395" cy="-1602" rx="27" ry="18"/>
<text text-anchor="middle" x="1395" y="-1598.3" font-family="Times,serif" font-size="14.00">2</text>
</g>
<!-- 107&#45;&gt;110 -->
<g id="edge69" class="edge">
<title>107&#45;&gt;110</title>
<path fill="none" stroke="black" d="M1337.92,-1658.5C1347.86,-1648.83 1361.12,-1635.94 1372.35,-1625.02"/>
<polygon fill="black" stroke="black" points="1374.37,-1627.97 1379.1,-1618.49 1369.49,-1622.95 1374.37,-1627.97"/>
</g>
<!-- 113 -->
<g id="node78" class="node">
<title>113</title>
<ellipse fill="none" stroke="black" cx="1395" cy="-1674" rx="27" ry="18"/>
<text text-anchor="middle" x="1395" y="-1670.3" font-family="Times,serif" font-size="14.00">u</text>
</g>
<!-- 112&#45;&gt;113 -->
<g id="edge72" class="edge">
<title>112&#45;&gt;113</title>
<path fill="none" stroke="black" d="M1395,-1727.7C1395,-1720.24 1395,-1711.32 1395,-1702.97"/>
<polygon fill="black" stroke="black" points="1398.5,-1703.1 1395,-1693.1 1391.5,-1703.1 1398.5,-1703.1"/>
</g>
<!-- 115 -->
<g id="node79" class="node">
<title>115</title>
<ellipse fill="none" stroke="black" cx="1467" cy="-1674" rx="27" ry="18"/>
<text text-anchor="middle" x="1467" y="-1670.3" font-family="Times,serif" font-size="14.00">2</text>
</g>
<!-- 112&#45;&gt;115 -->
<g id="edge73" class="edge">
<title>112&#45;&gt;115</title>
<path fill="none" stroke="black" d="M1409.92,-1730.5C1419.86,-1720.83 1433.12,-1707.94 1444.35,-1697.02"/>
<polygon fill="black" stroke="black" points="1446.37,-1699.97 1451.1,-1690.49 1441.49,-1694.95 1446.37,-1699.97"/>
</g>
</g>
</svg>
