<?xml version="1.0" encoding="UTF-8" standalone="no"?>
<!DOCTYPE svg PUBLIC "-//W3C//DTD SVG 1.1//EN"
 "http://www.w3.org/Graphics/SVG/1.1/DTD/svg11.dtd">
<!-- Generated by graphviz version 8.0.1 (20230327.1645)
 -->
<!-- Title: G Pages: 1 -->
<svg width="494pt" height="476pt"
 viewBox="0.00 0.00 494.00 476.00" xmlns="http://www.w3.org/2000/svg" xmlns:xlink="http://www.w3.org/1999/xlink">
<g id="graph0" class="graph" transform="scale(1 1) rotate(0) translate(4 472)">
<title>G</title>
<polygon fill="white" stroke="none" points="-4,4 -4,-472 490,-472 490,4 -4,4"/>
<!-- 0 -->
<g id="node1" class="node">
<title>0</title>
<ellipse fill="none" stroke="black" cx="279" cy="-450" rx="27" ry="18"/>
<text text-anchor="middle" x="279" y="-446.3" font-family="Times,serif" font-size="14.00">*</text>
</g>
<!-- 1 -->
<g id="node2" class="node">
<title>1</title>
<ellipse fill="none" stroke="black" cx="207" cy="-378" rx="27" ry="18"/>
<text text-anchor="middle" x="207" y="-374.3" font-family="Times,serif" font-size="14.00">*</text>
</g>
<!-- 0&#45;&gt;1 -->
<g id="edge18" class="edge">
<title>0&#45;&gt;1</title>
<path fill="none" stroke="black" d="M264.08,-434.5C254.14,-424.83 240.88,-411.94 229.65,-401.02"/>
<polygon fill="black" stroke="black" points="232.51,-398.95 222.9,-394.49 227.63,-403.97 232.51,-398.95"/>
</g>
<!-- 27 -->
<g id="node20" class="node">
<title>27</title>
<ellipse fill="none" stroke="black" cx="351" cy="-378" rx="27" ry="18"/>
<text text-anchor="middle" x="351" y="-374.3" font-family="Times,serif" font-size="14.00">^</text>
</g>
<!-- 0&#45;&gt;27 -->
<g id="edge28" class="edge">
<title>0&#45;&gt;27</title>
<path fill="none" stroke="black" d="M293.92,-434.5C303.86,-424.83 317.12,-411.94 328.35,-401.02"/>
<polygon fill="black" stroke="black" points="330.37,-403.97 335.1,-394.49 325.49,-398.95 330.37,-403.97"/>
</g>
<!-- 2 -->
<g id="node3" class="node">
<title>2</title>
<ellipse fill="none" stroke="black" cx="135" cy="-306" rx="27" ry="18"/>
<text text-anchor="middle" x="135" y="-302.3" font-family="Times,serif" font-size="14.00">cos</text>
</g>
<!-- 1&#45;&gt;2 -->
<g id="edge5" class="edge">
<title>1&#45;&gt;2</title>
<path fill="none" stroke="black" d="M192.08,-362.5C182.14,-352.83 168.88,-339.94 157.65,-329.02"/>
<polygon fill="black" stroke="black" points="160.51,-326.95 150.9,-322.49 155.63,-331.97 160.51,-326.95"/>
</g>
<!-- 9 -->
<g id="node8" class="node">
<title>9</title>
<ellipse fill="none" stroke="black" cx="207" cy="-306" rx="27" ry="18"/>
<text text-anchor="middle" x="207" y="-302.3" font-family="Times,serif" font-size="14.00">*</text>
</g>
<!-- 1&#45;&gt;9 -->
<g id="edge17" class="edge">
<title>1&#45;&gt;9</title>
<path fill="none" stroke="black" d="M207,-359.7C207,-352.24 207,-343.32 207,-334.97"/>
<polygon fill="black" stroke="black" points="210.5,-335.1 207,-325.1 203.5,-335.1 210.5,-335.1"/>
</g>
<!-- 3 -->
<g id="node4" class="node">
<title>3</title>
<ellipse fill="none" stroke="black" cx="99" cy="-234" rx="27" ry="18"/>
<text text-anchor="middle" x="99" y="-230.3" font-family="Times,serif" font-size="14.00">cos</text>
</g>
<!-- 2&#45;&gt;3 -->
<g id="edge4" class="edge">
<title>2&#45;&gt;3</title>
<path fill="none" stroke="black" d="M126.65,-288.76C122.38,-280.46 117.08,-270.15 112.27,-260.79"/>
<polygon fill="black" stroke="black" points="114.99,-259.44 107.3,-252.15 108.77,-262.64 114.99,-259.44"/>
</g>
<!-- 4 -->
<g id="node5" class="node">
<title>4</title>
<ellipse fill="none" stroke="black" cx="99" cy="-162" rx="27" ry="18"/>
<text text-anchor="middle" x="99" y="-158.3" font-family="Times,serif" font-size="14.00">^</text>
</g>
<!-- 3&#45;&gt;4 -->
<g id="edge3" class="edge">
<title>3&#45;&gt;4</title>
<path fill="none" stroke="black" d="M99,-215.7C99,-208.24 99,-199.32 99,-190.97"/>
<polygon fill="black" stroke="black" points="102.5,-191.1 99,-181.1 95.5,-191.1 102.5,-191.1"/>
</g>
<!-- 5 -->
<g id="node6" class="node">
<title>5</title>
<ellipse fill="none" stroke="black" cx="27" cy="-90" rx="27" ry="18"/>
<text text-anchor="middle" x="27" y="-86.3" font-family="Times,serif" font-size="14.00">x</text>
</g>
<!-- 4&#45;&gt;5 -->
<g id="edge1" class="edge">
<title>4&#45;&gt;5</title>
<path fill="none" stroke="black" d="M84.08,-146.5C74.14,-136.83 60.88,-123.94 49.65,-113.02"/>
<polygon fill="black" stroke="black" points="52.51,-110.95 42.9,-106.49 47.63,-115.97 52.51,-110.95"/>
</g>
<!-- 7 -->
<g id="node7" class="node">
<title>7</title>
<ellipse fill="none" stroke="black" cx="99" cy="-90" rx="27" ry="18"/>
<text text-anchor="middle" x="99" y="-86.3" font-family="Times,serif" font-size="14.00">2</text>
</g>
<!-- 4&#45;&gt;7 -->
<g id="edge2" class="edge">
<title>4&#45;&gt;7</title>
<path fill="none" stroke="black" d="M99,-143.7C99,-136.24 99,-127.32 99,-118.97"/>
<polygon fill="black" stroke="black" points="102.5,-119.1 99,-109.1 95.5,-119.1 102.5,-119.1"/>
</g>
<!-- 10 -->
<g id="node9" class="node">
<title>10</title>
<ellipse fill="none" stroke="black" cx="171" cy="-234" rx="27" ry="18"/>
<text text-anchor="middle" x="171" y="-230.3" font-family="Times,serif" font-size="14.00">&#45;1</text>
</g>
<!-- 9&#45;&gt;10 -->
<g id="edge6" class="edge">
<title>9&#45;&gt;10</title>
<path fill="none" stroke="black" d="M198.65,-288.76C194.38,-280.46 189.08,-270.15 184.27,-260.79"/>
<polygon fill="black" stroke="black" points="186.99,-259.44 179.3,-252.15 180.77,-262.64 186.99,-259.44"/>
</g>
<!-- 12 -->
<g id="node10" class="node">
<title>12</title>
<ellipse fill="none" stroke="black" cx="243" cy="-234" rx="27" ry="18"/>
<text text-anchor="middle" x="243" y="-230.3" font-family="Times,serif" font-size="14.00">*</text>
</g>
<!-- 9&#45;&gt;12 -->
<g id="edge16" class="edge">
<title>9&#45;&gt;12</title>
<path fill="none" stroke="black" d="M215.35,-288.76C219.62,-280.46 224.92,-270.15 229.73,-260.79"/>
<polygon fill="black" stroke="black" points="233.23,-262.64 234.7,-252.15 227.01,-259.44 233.23,-262.64"/>
</g>
<!-- 13 -->
<g id="node11" class="node">
<title>13</title>
<ellipse fill="none" stroke="black" cx="171" cy="-162" rx="27" ry="18"/>
<text text-anchor="middle" x="171" y="-158.3" font-family="Times,serif" font-size="14.00">sin</text>
</g>
<!-- 12&#45;&gt;13 -->
<g id="edge10" class="edge">
<title>12&#45;&gt;13</title>
<path fill="none" stroke="black" d="M228.08,-218.5C218.14,-208.83 204.88,-195.94 193.65,-185.02"/>
<polygon fill="black" stroke="black" points="196.51,-182.95 186.9,-178.49 191.63,-187.97 196.51,-182.95"/>
</g>
<!-- 19 -->
<g id="node15" class="node">
<title>19</title>
<ellipse fill="none" stroke="black" cx="243" cy="-162" rx="27" ry="18"/>
<text text-anchor="middle" x="243" y="-158.3" font-family="Times,serif" font-size="14.00">*</text>
</g>
<!-- 12&#45;&gt;19 -->
<g id="edge15" class="edge">
<title>12&#45;&gt;19</title>
<path fill="none" stroke="black" d="M243,-215.7C243,-208.24 243,-199.32 243,-190.97"/>
<polygon fill="black" stroke="black" points="246.5,-191.1 243,-181.1 239.5,-191.1 246.5,-191.1"/>
</g>
<!-- 14 -->
<g id="node12" class="node">
<title>14</title>
<ellipse fill="none" stroke="black" cx="171" cy="-90" rx="27" ry="18"/>
<text text-anchor="middle" x="171" y="-86.3" font-family="Times,serif" font-size="14.00">^</text>
</g>
<!-- 13&#45;&gt;14 -->
<g id="edge9" class="edge">
<title>13&#45;&gt;14</title>
<path fill="none" stroke="black" d="M171,-143.7C171,-136.24 171,-127.32 171,-118.97"/>
<polygon fill="black" stroke="black" points="174.5,-119.1 171,-109.1 167.5,-119.1 174.5,-119.1"/>
</g>
<!-- 15 -->
<g id="node13" class="node">
<title>15</title>
<ellipse fill="none" stroke="black" cx="99" cy="-18" rx="27" ry="18"/>
<text text-anchor="middle" x="99" y="-14.3" font-family="Times,serif" font-size="14.00">x</text>
</g>
<!-- 14&#45;&gt;15 -->
<g id="edge7" class="edge">
<title>14&#45;&gt;15</title>
<path fill="none" stroke="black" d="M156.08,-74.5C146.14,-64.83 132.88,-51.94 121.65,-41.02"/>
<polygon fill="black" stroke="black" points="124.51,-38.95 114.9,-34.49 119.63,-43.97 124.51,-38.95"/>
</g>
<!-- 17 -->
<g id="node14" class="node">
<title>17</title>
<ellipse fill="none" stroke="black" cx="171" cy="-18" rx="27" ry="18"/>
<text text-anchor="middle" x="171" y="-14.3" font-family="Times,serif" font-size="14.00">2</text>
</g>
<!-- 14&#45;&gt;17 -->
<g id="edge8" class="edge">
<title>14&#45;&gt;17</title>
<path fill="none" stroke="black" d="M171,-71.7C171,-64.24 171,-55.32 171,-46.97"/>
<polygon fill="black" stroke="black" points="174.5,-47.1 171,-37.1 167.5,-47.1 174.5,-47.1"/>
</g>
<!-- 20 -->
<g id="node16" class="node">
<title>20</title>
<ellipse fill="none" stroke="black" cx="243" cy="-90" rx="27" ry="18"/>
<text text-anchor="middle" x="243" y="-86.3" font-family="Times,serif" font-size="14.00">2</text>
</g>
<!-- 19&#45;&gt;20 -->
<g id="edge11" class="edge">
<title>19&#45;&gt;20</title>
<path fill="none" stroke="black" d="M243,-143.7C243,-136.24 243,-127.32 243,-118.97"/>
<polygon fill="black" stroke="black" points="246.5,-119.1 243,-109.1 239.5,-119.1 246.5,-119.1"/>
</g>
<!-- 22 -->
<g id="node17" class="node">
<title>22</title>
<ellipse fill="none" stroke="black" cx="315" cy="-90" rx="27" ry="18"/>
<text text-anchor="middle" x="315" y="-86.3" font-family="Times,serif" font-size="14.00">^</text>
</g>
<!-- 19&#45;&gt;22 -->
<g id="edge14" class="edge">
<title>19&#45;&gt;22</title>
<path fill="none" stroke="black" d="M257.92,-146.5C267.86,-136.83 281.12,-123.94 292.35,-113.02"/>
<polygon fill="black" stroke="black" points="294.37,-115.97 299.1,-106.49 289.49,-110.95 294.37,-115.97"/>
</g>
<!-- 23 -->
<g id="node18" class="node">
<title>23</title>
<ellipse fill="none" stroke="black" cx="243" cy="-18" rx="27" ry="18"/>
<text text-anchor="middle" x="243" y="-14.3" font-family="Times,serif" font-size="14.00">x</text>
</g>
<!-- 22&#45;&gt;23 -->
<g id="edge12" class="edge">
<title>22&#45;&gt;23</title>
<path fill="none" stroke="black" d="M300.08,-74.5C290.14,-64.83 276.88,-51.94 265.65,-41.02"/>
<polygon fill="black" stroke="black" points="268.51,-38.95 258.9,-34.49 263.63,-43.97 268.51,-38.95"/>
</g>
<!-- 25 -->
<g id="node19" class="node">
<title>25</title>
<ellipse fill="none" stroke="black" cx="315" cy="-18" rx="27" ry="18"/>
<text text-anchor="middle" x="315" y="-14.3" font-family="Times,serif" font-size="14.00">1</text>
</g>
<!-- 22&#45;&gt;25 -->
<g id="edge13" class="edge">
<title>22&#45;&gt;25</title>
<path fill="none" stroke="black" d="M315,-71.7C315,-64.24 315,-55.32 315,-46.97"/>
<polygon fill="black" stroke="black" points="318.5,-47.1 315,-37.1 311.5,-47.1 318.5,-47.1"/>
</g>
<!-- 28 -->
<g id="node21" class="node">
<title>28</title>
<ellipse fill="none" stroke="black" cx="351" cy="-306" rx="27" ry="18"/>
<text text-anchor="middle" x="351" y="-302.3" font-family="Times,serif" font-size="14.00">*</text>
</g>
<!-- 27&#45;&gt;28 -->
<g id="edge26" class="edge">
<title>27&#45;&gt;28</title>
<path fill="none" stroke="black" d="M351,-359.7C351,-352.24 351,-343.32 351,-334.97"/>
<polygon fill="black" stroke="black" points="354.5,-335.1 351,-325.1 347.5,-335.1 354.5,-335.1"/>
</g>
<!-- 39 -->
<g id="node29" class="node">
<title>39</title>
<ellipse fill="none" stroke="black" cx="423" cy="-306" rx="27" ry="18"/>
<text text-anchor="middle" x="423" y="-302.3" font-family="Times,serif" font-size="14.00">&#45;1</text>
</g>
<!-- 27&#45;&gt;39 -->
<g id="edge27" class="edge">
<title>27&#45;&gt;39</title>
<path fill="none" stroke="black" d="M365.92,-362.5C375.86,-352.83 389.12,-339.94 400.35,-329.02"/>
<polygon fill="black" stroke="black" points="402.37,-331.97 407.1,-322.49 397.49,-326.95 402.37,-331.97"/>
</g>
<!-- 29 -->
<g id="node22" class="node">
<title>29</title>
<ellipse fill="none" stroke="black" cx="351" cy="-234" rx="27" ry="18"/>
<text text-anchor="middle" x="351" y="-230.3" font-family="Times,serif" font-size="14.00">sin</text>
</g>
<!-- 28&#45;&gt;29 -->
<g id="edge23" class="edge">
<title>28&#45;&gt;29</title>
<path fill="none" stroke="black" d="M351,-287.7C351,-280.24 351,-271.32 351,-262.97"/>
<polygon fill="black" stroke="black" points="354.5,-263.1 351,-253.1 347.5,-263.1 354.5,-263.1"/>
</g>
<!-- 36 -->
<g id="node27" class="node">
<title>36</title>
<ellipse fill="none" stroke="black" cx="423" cy="-234" rx="27" ry="18"/>
<text text-anchor="middle" x="423" y="-230.3" font-family="Times,serif" font-size="14.00">ln</text>
</g>
<!-- 28&#45;&gt;36 -->
<g id="edge25" class="edge">
<title>28&#45;&gt;36</title>
<path fill="none" stroke="black" d="M365.92,-290.5C375.86,-280.83 389.12,-267.94 400.35,-257.02"/>
<polygon fill="black" stroke="black" points="402.37,-259.97 407.1,-250.49 397.49,-254.95 402.37,-259.97"/>
</g>
<!-- 30 -->
<g id="node23" class="node">
<title>30</title>
<ellipse fill="none" stroke="black" cx="351" cy="-162" rx="27" ry="18"/>
<text text-anchor="middle" x="351" y="-158.3" font-family="Times,serif" font-size="14.00">cos</text>
</g>
<!-- 29&#45;&gt;30 -->
<g id="edge22" class="edge">
<title>29&#45;&gt;30</title>
<path fill="none" stroke="black" d="M351,-215.7C351,-208.24 351,-199.32 351,-190.97"/>
<polygon fill="black" stroke="black" points="354.5,-191.1 351,-181.1 347.5,-191.1 354.5,-191.1"/>
</g>
<!-- 31 -->
<g id="node24" class="node">
<title>31</title>
<ellipse fill="none" stroke="black" cx="387" cy="-90" rx="27" ry="18"/>
<text text-anchor="middle" x="387" y="-86.3" font-family="Times,serif" font-size="14.00">^</text>
</g>
<!-- 30&#45;&gt;31 -->
<g id="edge21" class="edge">
<title>30&#45;&gt;31</title>
<path fill="none" stroke="black" d="M359.35,-144.76C363.62,-136.46 368.92,-126.15 373.73,-116.79"/>
<polygon fill="black" stroke="black" points="377.23,-118.64 378.7,-108.15 371.01,-115.44 377.23,-118.64"/>
</g>
<!-- 32 -->
<g id="node25" class="node">
<title>32</title>
<ellipse fill="none" stroke="black" cx="387" cy="-18" rx="27" ry="18"/>
<text text-anchor="middle" x="387" y="-14.3" font-family="Times,serif" font-size="14.00">x</text>
</g>
<!-- 31&#45;&gt;32 -->
<g id="edge19" class="edge">
<title>31&#45;&gt;32</title>
<path fill="none" stroke="black" d="M387,-71.7C387,-64.24 387,-55.32 387,-46.97"/>
<polygon fill="black" stroke="black" points="390.5,-47.1 387,-37.1 383.5,-47.1 390.5,-47.1"/>
</g>
<!-- 34 -->
<g id="node26" class="node">
<title>34</title>
<ellipse fill="none" stroke="black" cx="459" cy="-18" rx="27" ry="18"/>
<text text-anchor="middle" x="459" y="-14.3" font-family="Times,serif" font-size="14.00">2</text>
</g>
<!-- 31&#45;&gt;34 -->
<g id="edge20" class="edge">
<title>31&#45;&gt;34</title>
<path fill="none" stroke="black" d="M401.92,-74.5C411.86,-64.83 425.12,-51.94 436.35,-41.02"/>
<polygon fill="black" stroke="black" points="438.37,-43.97 443.1,-34.49 433.49,-38.95 438.37,-43.97"/>
</g>
<!-- 37 -->
<g id="node28" class="node">
<title>37</title>
<ellipse fill="none" stroke="black" cx="423" cy="-162" rx="27" ry="18"/>
<text text-anchor="middle" x="423" y="-158.3" font-family="Times,serif" font-size="14.00">5</text>
</g>
<!-- 36&#45;&gt;37 -->
<g id="edge24" class="edge">
<title>36&#45;&gt;37</title>
<path fill="none" stroke="black" d="M423,-215.7C423,-208.24 423,-199.32 423,-190.97"/>
<polygon fill="black" stroke="black" points="426.5,-191.1 423,-181.1 419.5,-191.1 426.5,-191.1"/>
</g>
</g>
</svg>
