<?xml version="1.0" encoding="UTF-8" standalone="no"?>
<!DOCTYPE svg PUBLIC "-//W3C//DTD SVG 1.1//EN"
 "http://www.w3.org/Graphics/SVG/1.1/DTD/svg11.dtd">
<!-- Generated by graphviz version 8.0.1 (20230327.1645)
 -->
<!-- Title: G Pages: 1 -->
<svg width="350pt" height="332pt"
 viewBox="0.00 0.00 350.00 332.00" xmlns="http://www.w3.org/2000/svg" xmlns:xlink="http://www.w3.org/1999/xlink">
<g id="graph0" class="graph" transform="scale(1 1) rotate(0) translate(4 328)">
<title>G</title>
<polygon fill="white" stroke="none" points="-4,4 -4,-328 346,-328 346,4 -4,4"/>
<!-- 0 -->
<g id="node1" class="node">
<title>0</title>
<ellipse fill="none" stroke="black" cx="135" cy="-306" rx="27" ry="18"/>
<text text-anchor="middle" x="135" y="-302.3" font-family="Times,serif" font-size="14.00">*</text>
</g>
<!-- 1 -->
<g id="node2" class="node">
<title>1</title>
<ellipse fill="none" stroke="black" cx="99" cy="-234" rx="27" ry="18"/>
<text text-anchor="middle" x="99" y="-230.3" font-family="Times,serif" font-size="14.00">^</text>
</g>
<!-- 0&#45;&gt;1 -->
<g id="edge5" class="edge">
<title>0&#45;&gt;1</title>
<path fill="none" stroke="black" d="M126.65,-288.76C122.38,-280.46 117.08,-270.15 112.27,-260.79"/>
<polygon fill="black" stroke="black" points="114.99,-259.44 107.3,-252.15 108.77,-262.64 114.99,-259.44"/>
</g>
<!-- 9 -->
<g id="node7" class="node">
<title>9</title>
<ellipse fill="none" stroke="black" cx="171" cy="-234" rx="27" ry="18"/>
<text text-anchor="middle" x="171" y="-230.3" font-family="Times,serif" font-size="14.00">^</text>
</g>
<!-- 0&#45;&gt;9 -->
<g id="edge12" class="edge">
<title>0&#45;&gt;9</title>
<path fill="none" stroke="black" d="M143.35,-288.76C147.62,-280.46 152.92,-270.15 157.73,-260.79"/>
<polygon fill="black" stroke="black" points="161.23,-262.64 162.7,-252.15 155.01,-259.44 161.23,-262.64"/>
</g>
<!-- 2 -->
<g id="node3" class="node">
<title>2</title>
<ellipse fill="none" stroke="black" cx="27" cy="-162" rx="27" ry="18"/>
<text text-anchor="middle" x="27" y="-158.3" font-family="Times,serif" font-size="14.00">^</text>
</g>
<!-- 1&#45;&gt;2 -->
<g id="edge3" class="edge">
<title>1&#45;&gt;2</title>
<path fill="none" stroke="black" d="M84.08,-218.5C74.14,-208.83 60.88,-195.94 49.65,-185.02"/>
<polygon fill="black" stroke="black" points="52.51,-182.95 42.9,-178.49 47.63,-187.97 52.51,-182.95"/>
</g>
<!-- 7 -->
<g id="node6" class="node">
<title>7</title>
<ellipse fill="none" stroke="black" cx="99" cy="-162" rx="27" ry="18"/>
<text text-anchor="middle" x="99" y="-158.3" font-family="Times,serif" font-size="14.00">&#45;1</text>
</g>
<!-- 1&#45;&gt;7 -->
<g id="edge4" class="edge">
<title>1&#45;&gt;7</title>
<path fill="none" stroke="black" d="M99,-215.7C99,-208.24 99,-199.32 99,-190.97"/>
<polygon fill="black" stroke="black" points="102.5,-191.1 99,-181.1 95.5,-191.1 102.5,-191.1"/>
</g>
<!-- 3 -->
<g id="node4" class="node">
<title>3</title>
<ellipse fill="none" stroke="black" cx="27" cy="-90" rx="27" ry="18"/>
<text text-anchor="middle" x="27" y="-86.3" font-family="Times,serif" font-size="14.00">x</text>
</g>
<!-- 2&#45;&gt;3 -->
<g id="edge1" class="edge">
<title>2&#45;&gt;3</title>
<path fill="none" stroke="black" d="M27,-143.7C27,-136.24 27,-127.32 27,-118.97"/>
<polygon fill="black" stroke="black" points="30.5,-119.1 27,-109.1 23.5,-119.1 30.5,-119.1"/>
</g>
<!-- 5 -->
<g id="node5" class="node">
<title>5</title>
<ellipse fill="none" stroke="black" cx="99" cy="-90" rx="27" ry="18"/>
<text text-anchor="middle" x="99" y="-86.3" font-family="Times,serif" font-size="14.00">2</text>
</g>
<!-- 2&#45;&gt;5 -->
<g id="edge2" class="edge">
<title>2&#45;&gt;5</title>
<path fill="none" stroke="black" d="M41.92,-146.5C51.86,-136.83 65.12,-123.94 76.35,-113.02"/>
<polygon fill="black" stroke="black" points="78.37,-115.97 83.1,-106.49 73.49,-110.95 78.37,-115.97"/>
</g>
<!-- 10 -->
<g id="node8" class="node">
<title>10</title>
<ellipse fill="none" stroke="black" cx="171" cy="-162" rx="27" ry="18"/>
<text text-anchor="middle" x="171" y="-158.3" font-family="Times,serif" font-size="14.00">x</text>
</g>
<!-- 9&#45;&gt;10 -->
<g id="edge6" class="edge">
<title>9&#45;&gt;10</title>
<path fill="none" stroke="black" d="M171,-215.7C171,-208.24 171,-199.32 171,-190.97"/>
<polygon fill="black" stroke="black" points="174.5,-191.1 171,-181.1 167.5,-191.1 174.5,-191.1"/>
</g>
<!-- 12 -->
<g id="node9" class="node">
<title>12</title>
<ellipse fill="none" stroke="black" cx="243" cy="-162" rx="27" ry="18"/>
<text text-anchor="middle" x="243" y="-158.3" font-family="Times,serif" font-size="14.00">*</text>
</g>
<!-- 9&#45;&gt;12 -->
<g id="edge11" class="edge">
<title>9&#45;&gt;12</title>
<path fill="none" stroke="black" d="M185.92,-218.5C195.86,-208.83 209.12,-195.94 220.35,-185.02"/>
<polygon fill="black" stroke="black" points="222.37,-187.97 227.1,-178.49 217.49,-182.95 222.37,-187.97"/>
</g>
<!-- 13 -->
<g id="node10" class="node">
<title>13</title>
<ellipse fill="none" stroke="black" cx="207" cy="-90" rx="27" ry="18"/>
<text text-anchor="middle" x="207" y="-86.3" font-family="Times,serif" font-size="14.00">1</text>
</g>
<!-- 12&#45;&gt;13 -->
<g id="edge7" class="edge">
<title>12&#45;&gt;13</title>
<path fill="none" stroke="black" d="M234.65,-144.76C230.38,-136.46 225.08,-126.15 220.27,-116.79"/>
<polygon fill="black" stroke="black" points="222.99,-115.44 215.3,-108.15 216.77,-118.64 222.99,-115.44"/>
</g>
<!-- 15 -->
<g id="node11" class="node">
<title>15</title>
<ellipse fill="none" stroke="black" cx="279" cy="-90" rx="27" ry="18"/>
<text text-anchor="middle" x="279" y="-86.3" font-family="Times,serif" font-size="14.00">^</text>
</g>
<!-- 12&#45;&gt;15 -->
<g id="edge10" class="edge">
<title>12&#45;&gt;15</title>
<path fill="none" stroke="black" d="M251.35,-144.76C255.62,-136.46 260.92,-126.15 265.73,-116.79"/>
<polygon fill="black" stroke="black" points="269.23,-118.64 270.7,-108.15 263.01,-115.44 269.23,-118.64"/>
</g>
<!-- 16 -->
<g id="node12" class="node">
<title>16</title>
<ellipse fill="none" stroke="black" cx="243" cy="-18" rx="27" ry="18"/>
<text text-anchor="middle" x="243" y="-14.3" font-family="Times,serif" font-size="14.00">2</text>
</g>
<!-- 15&#45;&gt;16 -->
<g id="edge8" class="edge">
<title>15&#45;&gt;16</title>
<path fill="none" stroke="black" d="M270.65,-72.76C266.38,-64.46 261.08,-54.15 256.27,-44.79"/>
<polygon fill="black" stroke="black" points="258.99,-43.44 251.3,-36.15 252.77,-46.64 258.99,-43.44"/>
</g>
<!-- 18 -->
<g id="node13" class="node">
<title>18</title>
<ellipse fill="none" stroke="black" cx="315" cy="-18" rx="27" ry="18"/>
<text text-anchor="middle" x="315" y="-14.3" font-family="Times,serif" font-size="14.00">&#45;1</text>
</g>
<!-- 15&#45;&gt;18 -->
<g id="edge9" class="edge">
<title>15&#45;&gt;18</title>
<path fill="none" stroke="black" d="M287.35,-72.76C291.62,-64.46 296.92,-54.15 301.73,-44.79"/>
<polygon fill="black" stroke="black" points="305.23,-46.64 306.7,-36.15 299.01,-43.44 305.23,-46.64"/>
</g>
</g>
</svg>
